<?xml version="1.0" encoding="utf-8"?>
<!-- Generator: Adobe Illustrator 22.0.0, SVG Export Plug-In . SVG Version: 6.00 Build 0)  -->
<svg version="1.1" id="Layer_1" xmlns="http://www.w3.org/2000/svg" xmlns:xlink="http://www.w3.org/1999/xlink" x="0px" y="0px"
	 viewBox="0 0 479.5 472.1" enable-background="new 0 0 479.5 472.1" xml:space="preserve">
<g>
	<path fill="#13B0BF" d="M241.3,382c16.2,40.1,55.5,68.5,101.4,68.5c18.5,0,35.8-4.6,51.1-12.7l63.2,8.3l-11.5-67.7
		c4.2-11.6,6.5-24.2,6.5-37.3c0-60.4-49-109.3-109.3-109.3c-10.6,0-20.9,1.5-30.6,4.3c0,0-0.9,3.7,1.7,13.8
		c9.1-2.9,18.8-4.4,28.9-4.4c52.8,0,95.7,42.8,95.7,95.7c0,52.8-42.8,95.7-95.7,95.7c-41.1,0-76.2-25.9-89.7-62.3
		C246.8,363.8,241.3,382,241.3,382z"/>
	<path fill="#F0677F" d="M173.8,116.3c-78.9,0-142.9,64-142.9,142.9c0,17.1,3,33.5,8.5,48.7l-15,88.5l82.7-10.8
		c19.9,10.6,42.6,16.6,66.8,16.6c78.9,0,142.9-64,142.9-142.9C316.7,180.3,252.7,116.3,173.8,116.3z M173.8,384.3
		c-69.1,0-125.1-56-125.1-125.1c0-69.1,56-125.1,125.1-125.1c69.1,0,125.1,56,125.1,125.1C298.8,328.3,242.8,384.3,173.8,384.3z"/>
	<circle fill="#FFFFFF" cx="345" cy="290.1" r="17.3"/>
	<polygon fill="#EFEA66" points="327.7,315.4 325.1,328.8 332.8,328.8 332.8,391.4 325.1,391.4 325.1,404 362.2,404 362.2,315.4 	
		"/>
	<path fill="#F34809" d="M120.2,202.2l31.5,22.3c0,0,13-23,28.4-13c11.3,7.4-5.2,20.4-17.6,29.9c-16.3,12.5-16.4,25.7-16.7,55.4
		c23.8,0.4,42-0.2,42-0.2c0-22.6,0-24.9,0-24.9s-1.7-5.9,14.2-16.3c15.9-10.4,33-30.1,20.3-57.9c-12.7-27.8-59.3-27.8-78.8-17.5
		S120.2,202.2,120.2,202.2z"/>
	<circle fill="#FFFFFF" cx="167.6" cy="329.6" r="23.2"/>
	<path fill="#4784DA" d="M296.5,75c-16.1-10.9-33.3-19-51.1-24.2L224.3,82c-2.7,4-7.3,5.8-11.8,5.2c-13.1-1.7-26.4-1.6-39.4,0.4
		c-3,0.5-6.2,0-9-1.9c-2.8-1.9-4.5-4.7-5.1-7.8l-7.9-41.7c-0.6-3.1,0-6.4,1.9-9.1c1.9-2.8,4.7-4.5,7.8-5.1
		c50.3-8.3,103.8,2.1,149.3,33s74.8,76.9,85.6,126.7c0.6,3.1,0,6.4-1.9,9.1c-1.9,2.8-4.7,4.5-7.8,5.1l-41.7,7.9
		c-3,0.6-6.3,0-9.1-1.9c-2.7-1.8-4.5-4.7-5.1-7.6c-3-12.8-7.7-25.2-14.1-36.7c-2.2-3.9-2.2-8.9,0.5-12.8l21.2-31.1
		C326.4,99,312.6,85.9,296.5,75z"/>
</g>
</svg>
