<svg id="Layer_1" data-name="Layer 1" xmlns="http://www.w3.org/2000/svg" viewBox="0 0 561.05 446.98"><defs><style>.cls-1{fill:#ff9c00;}.cls-1,.cls-3,.cls-4,.cls-5{stroke:#000;stroke-miterlimit:10;}.cls-1,.cls-3{stroke-width:6.5px;}.cls-2{fill:#061766;}.cls-3,.cls-4,.cls-5{fill:none;}.cls-4{stroke-width:1.39px;}.cls-5{stroke-width:1.86px;}.cls-6{fill:#4c0c82;}.cls-7{fill:#d93b0a;}</style></defs><title>Artificial</title><polygon class="cls-1" points="112.42 61.83 83.16 78.55 70.61 102.25 49.01 119.34 49.01 138.48 23.92 155.58 19.74 177.42 3.71 205.38 21.14 238.13 30.89 270.19 58.07 277.85 66.43 315.48 92.22 329.42 107.55 352.42 157.02 369.14 203.01 359.38 211.38 384.47 207.2 442.7 235.77 435.34 249.71 391.44 278.28 367.05 291.52 318.34 335.42 339.87 375.84 331.51 396.74 309.91 425.31 301.55 432.28 273.67 474.79 282.03 527.05 259.74 549.35 227.68 557.72 164.26 543.78 130.82 538.9 94.58 502.66 77.86 477.58 45.1 430.89 28.38 398.13 13.11 344.48 3.29 297.79 9.56 262.94 3.29 211.38 8.17 180.02 24.2 143.78 29.77 112.42 61.83"/><circle class="cls-2" cx="75.9" cy="138.24" r="6.37"/><circle cx="20.45" cy="176.15" r="6.37"/><circle cx="20.45" cy="238.74" r="6.37"/><circle cx="92.97" cy="266.39" r="7.2"/><circle cx="131.4" cy="285.97" r="5.66"/><circle cx="57.07" cy="225.27" r="5.66"/><circle class="cls-2" cx="270.43" cy="48.06" r="7.2"/><circle cx="334.56" cy="70.01" r="7.2"/><circle class="cls-2" cx="180.01" cy="23.04" r="6.58"/><circle cx="113.11" cy="61.84" r="6.58"/><circle cx="352.91" cy="266.39" r="8.95"/><circle cx="412.98" cy="238.02" r="5.83"/><circle cx="386.28" cy="294.96" r="5.83"/><circle class="cls-2" cx="253.51" cy="349.53" r="5.83"/><circle cx="233.07" cy="257.58" r="5.83"/><circle cx="237.05" cy="286.13" r="5.83"/><circle cx="199.38" cy="294.05" r="5.83"/><circle cx="271.23" cy="316.55" r="5.83"/><circle cx="242.88" cy="332.54" r="5.83"/><circle cx="233.07" cy="355.74" r="4.97"/><circle cx="242.88" cy="375.1" r="4.97"/><circle class="cls-2" cx="395.5" cy="137.55" r="6.1"/><circle cx="442.58" cy="84.34" r="6.1"/><circle class="cls-2" cx="491.92" cy="103.14" r="6.1"/><circle class="cls-2" cx="518.08" cy="125.77" r="6.1"/><circle cx="457.63" cy="226.75" r="6.1"/><circle cx="489.22" cy="241.15" r="6.1"/><circle cx="200.74" cy="319.52" r="7.2"/><circle class="cls-2" cx="266.68" cy="275.41" r="9.02"/><path class="cls-3" d="M75.35,288.9l36-11.46,38.72,19.74,30.66-5.11,35.91,13c29.75-5,37.68-7.91,37.68-7.91l34.18,30.42,20.28,1.79" transform="translate(-17.29 -11.05)"/><polyline class="cls-3" points="271.23 316.55 242.88 332.54 233.07 355.74 203.01 359.38"/><path class="cls-4" d="M130.4,76.19,117.45,197l35-72c33.88,5.38,97.9,19.32,97.9,19.32Z" transform="translate(-17.29 -11.05)"/><polygon class="cls-4" points="238.9 118.2 270.43 48.06 298.95 9.41 380.45 71.77 451.53 122.92 516.53 159.7 549.35 227.68 527.05 259.74 490.54 241.15 474.79 282.03 457.63 226.75 352.92 194.77 350.54 200.49 412.98 238.03 432.28 273.67 352.92 268.01 266.68 275.41 233.07 257.58 163.47 281.02 161.72 233.95 135.16 111.01 145.19 27.35 200.74 66.33 233.07 133.28 238.9 118.2"/><polyline class="cls-4" points="327.36 121.51 381.82 70.01 433.63 30.26 491.92 103.14 502.66 77.86 538.9 94.58 518.08 125.77 516.53 159.7 457.63 226.75 395.5 139.09 331.65 70.01 270.43 48.06 200.74 66.33 180.01 23.04"/><polyline class="cls-4" points="3.71 205.38 100.16 185.96 220.76 155.77 253.51 113.97 305.53 111.01 298.95 9.41"/><polyline class="cls-4" points="147.32 306.65 157.58 366.51 200.74 319.52 237.05 286.13 233.07 257.58"/><polyline class="cls-4" points="335.42 339.87 319.72 309.13 387.32 294.05 396.74 309.91"/><polyline class="cls-4" points="319.72 309.13 352.92 266.39 412.98 238.03 445.96 185.01 451.53 122.92 442.58 84.34 378.87 72.81"/><polyline class="cls-5" points="200.74 319.52 242.88 332.54 253.51 349.53 275.71 369.24"/><polyline class="cls-5" points="249.71 391.44 242.88 375.1 233.07 355.74"/><line class="cls-5" x1="92.22" y1="329.42" x2="131.4" y2="285.42"/><polyline class="cls-5" points="112.42 61.83 75.9 138.24 100.16 185.96 57.06 225.27 20.45 238.74"/><circle class="cls-2" cx="135.16" cy="111.01" r="7.2"/><circle class="cls-2" cx="161.72" cy="233.95" r="7.2"/><circle class="cls-2" cx="433.63" cy="30.26" r="8.95"/><circle class="cls-2" cx="298.95" cy="9.87" r="6.58"/><circle class="cls-2" cx="321.04" cy="310.72" r="9.02"/><circle class="cls-2" cx="275.71" cy="370.13" r="9.02"/><circle class="cls-6" cx="100.16" cy="185.96" r="7.2"/><circle class="cls-6" cx="147.32" cy="306.65" r="7.2"/><circle class="cls-6" cx="200.74" cy="66.33" r="7.2"/><circle class="cls-6" cx="380.45" cy="71.77" r="8.95"/><circle class="cls-6" cx="451.53" cy="122.92" r="8.95"/><circle class="cls-6" cx="445.96" cy="185.01" r="8.95"/><circle class="cls-6" cx="516.53" cy="159.7" r="7.64"/><circle class="cls-6" cx="161.72" cy="281.02" r="7.2"/><path class="cls-7" d="M283.59,164.2h-.22c-1.14,4.54-2.38,9.19-3.86,13.84L272,200.16h23l-7.49-22C285.86,173.16,284.73,168.62,283.59,164.2Z" transform="translate(-17.29 -11.05)"/><path class="cls-7" d="M299.26,112.14a81.43,81.43,0,1,0,81.43,81.43A81.42,81.42,0,0,0,299.26,112.14Zm6,119.77-8.17-24H270l-7.94,24h-10.2l26-76.44h11.91l26.09,76.44Zm31.64,0H327V155.47h9.87Z" transform="translate(-17.29 -11.05)"/></svg>