<svg id="Layer_1" data-name="Layer 1" xmlns="http://www.w3.org/2000/svg" viewBox="0 0 517.57 438.64"><defs><style>.cls-1{fill:#4784da;}.cls-2{fill:#061766;}.cls-3{fill:#efea66;}.cls-4{fill:#f0677f;}.cls-5{fill:#ff9c00;}.cls-6{fill:none;}.cls-7{fill:#6c5b7d;}</style></defs><title>BigData</title><path class="cls-1" d="M372.81,162.37l42.93-37.58L380.28,59.26,322.93,74.4l0,.07c-.71-.44-1.43-.87-2.15-1.29L308.11,16.32,233.6,16.1,220.27,70.38q-4.38,2.24-8.5,4.87L159.53,61l-35,65.76,38.7,34.47c0,.84,0,1.69,0,2.54q0,4.17.33,8.27l-36.93,35,38.06,64.07,52-16c2.06,1.16,4.16,2.26,6.3,3.28l13.46,51.54,74.47-2.42,11.25-54c.94-.56,1.87-1.15,2.79-1.74l52,16.76,38-64.13-42-40.95C372.82,163.12,372.81,162.74,372.81,162.37Zm-105-69.75a71,71,0,1,1-71,71A71,71,0,0,1,267.84,92.62Z" transform="translate(-14.23 -16.1)"/><path class="cls-2" d="M267.84,70.29a93.36,93.36,0,1,0,93.36,93.36A93.36,93.36,0,0,0,267.84,70.29Zm0,159.88a66.53,66.53,0,1,1,66.52-66.52A66.52,66.52,0,0,1,267.84,230.17Z" transform="translate(-14.23 -16.1)"/><path class="cls-3" d="M179,339.91l28.48-25.1L183.9,271l-38,10.11,0,.05c-.47-.29-.94-.58-1.42-.86l-8.43-38-49.43-.15-8.84,36.25q-2.91,1.5-5.64,3.26l-34.65-9.54L14.23,316.11l25.68,23c0,.56,0,1.13,0,1.69,0,1.86.07,3.7.21,5.53L15.61,369.74l25.24,42.79,34.49-10.67c1.36.77,2.75,1.51,4.17,2.19l8.93,34.43,49.4-1.62,7.46-36.05,1.85-1.16,34.52,11.19L206.84,368,179,340.66C179,340.41,179,340.16,179,339.91Zm-69.63-46.59a47.45,47.45,0,1,1-47.11,47.44A47.28,47.28,0,0,1,109.32,293.32Z" transform="translate(-14.23 -16.1)"/><path class="cls-4" d="M109.32,278.4c-34.2,0-61.93,27.92-61.93,62.36s27.73,62.36,61.93,62.36,61.93-27.92,61.93-62.36S143.53,278.4,109.32,278.4Zm0,106.8a44.44,44.44,0,1,1,44.13-44.44A44.28,44.28,0,0,1,109.32,385.2Z" transform="translate(-14.23 -16.1)"/><path class="cls-5" d="M204.44,104.12A143.57,143.57,0,1,0,348,247.69,143.57,143.57,0,0,0,204.44,104.12Zm0,275.33A131.77,131.77,0,1,1,336.2,247.69,131.77,131.77,0,0,1,204.44,379.45Z" transform="translate(-14.23 -16.1)"/><circle class="cls-6" cx="190.2" cy="231.59" r="142.64"/><rect class="cls-7" x="400.73" y="365.09" width="32.83" height="22.61" transform="translate(-131.63 533.36) rotate(-60)"/><path class="cls-7" d="M347.57,317.27a159.36,159.36,0,1,0-17.36,27.89l32.51,18.77,16.42-28.43ZM204.44,390.32A142.64,142.64,0,1,1,347.07,247.69,142.64,142.64,0,0,1,204.44,390.32Z" transform="translate(-14.23 -16.1)"/><polygon class="cls-1" points="400.61 340.01 401.33 340.43 403.54 336.6 367.11 315.57 364.9 319.4 365.75 319.88 349.33 348.31 348.49 347.83 346.08 352 382.51 373.03 384.92 368.86 384.19 368.44 400.61 340.01"/><rect class="cls-7" x="390.58" y="370.12" width="32.83" height="0.84" transform="translate(-131.63 521.64) rotate(-60)"/><rect class="cls-7" x="354.94" y="349.47" width="32.83" height="0.97" transform="translate(-131.63 480.48) rotate(-60)"/><polygon class="cls-1" points="423.17 347.81 420.91 351.73 404.5 380.16 402.2 384.15 496.59 438.64 517.57 402.31 423.17 347.81"/></svg>