<svg id="Layer_1" data-name="Layer 1" xmlns="http://www.w3.org/2000/svg" viewBox="0 0 684.86 433.08"><defs><style>.cls-1{fill:#d93b0a;}.cls-2{fill:#061766;}.cls-10,.cls-11,.cls-13,.cls-15,.cls-16,.cls-3,.cls-4,.cls-5,.cls-6,.cls-8,.cls-9{fill:none;stroke-miterlimit:10;}.cls-3{stroke:#325d7f;}.cls-3,.cls-4,.cls-5,.cls-8{stroke-width:7.34px;}.cls-4{stroke:#c16b86;}.cls-16,.cls-5{stroke:#4784da;}.cls-6{stroke:#4c0c82;stroke-width:6.98px;}.cls-7{fill:#4c0c82;}.cls-10,.cls-8{stroke:#f34809;}.cls-15,.cls-9{stroke:#6c5b7d;}.cls-10,.cls-9{stroke-width:11px;}.cls-11{stroke:#f2727f;}.cls-11,.cls-15{stroke-width:9.78px;}.cls-12{fill:#c20165;}.cls-13{stroke:#c20165;stroke-width:5.09px;}.cls-14{fill:#ff9c00;}.cls-16{stroke-width:12.23px;}</style></defs><title>Cybersecurity</title><rect class="cls-1" x="342.86" y="85.32" width="127.83" height="97.07"/><polygon class="cls-2" points="373.39 85.32 430.24 182.38 470.69 182.38 470.69 85.32 373.39 85.32"/><line class="cls-3" x1="416.79" y1="266.61" x2="416.79" y2="371.49"/><path class="cls-2" d="M317.53,331l-4.16,3s-1.87,1.62-3.82-.76l-1.25-1.53a2.17,2.17,0,0,1-.12-2.68,5.71,5.71,0,0,1,.95-1c2.17-1.8,5.92-4.77,5.92-4.77s-4.78-3.56-9.8-1-6.37,5.67-6.62,7.83,1.15,4.52-1.91,7.32-20.61,20.42-20.61,20.42l-6.33,6.22s-3.95,3.68-.29,7.08c2.73,2.55,6.23.26,8.33-2s25.39-25.52,25.39-25.52a6.16,6.16,0,0,1,6.43-2.54,7.36,7.36,0,0,0,8.65-5.67C319,331.89,317.53,331,317.53,331Z" transform="translate(-13.75 -16.68)"/><circle class="cls-4" cx="281.47" cy="331.8" r="45.28"/><circle class="cls-5" cx="408.39" cy="398.43" r="28.31"/><rect class="cls-6" x="342.86" y="85.32" width="127.83" height="97.07"/><path class="cls-7" d="M340.35,205.73v9.07h160v-9.07ZM435.57,212h-32.5v-3.75h32.5Z" transform="translate(-13.75 -16.68)"/><polyline class="cls-8" points="279.46 286.52 279.46 271.08 300.84 248.01 339.4 248.01"/><polyline class="cls-4" points="155.25 343.71 241.79 240.2 328.48 240.2"/><polyline class="cls-9" points="512.74 205.81 535.68 205.81 571.31 229"/><polyline class="cls-3" points="108.91 195.07 155.25 195.07 173.58 217.41 309.31 217.41"/><polyline class="cls-8" points="285.92 112.11 262.15 112.11 240.77 87.15 248.91 80.18 267.25 102.08 289 102.08"/><circle class="cls-3" cx="214.37" cy="49.55" r="45.88"/><circle class="cls-3" cx="112.96" cy="377.7" r="51.71"/><circle class="cls-10" cx="57.21" cy="200.16" r="51.71"/><circle class="cls-11" cx="624.19" cy="252.08" r="55.78"/><rect class="cls-12" x="191.4" y="37.77" width="45.05" height="36.14" rx="6" ry="6"/><path class="cls-13" d="M215.66,54.45v-10s1.28-9.17,12-9.17a12.68,12.68,0,0,1,12.77,9.59v9.59" transform="translate(-13.75 -16.68)"/><path class="cls-12" d="M141.12,403h-3.05L137,402a24.87,24.87,0,1,0-2.71,2.72l1.06,1.06v3l19.19,19.15,5.72-5.72Zm-23,0a17.27,17.27,0,1,1,17.27-17.27A17.27,17.27,0,0,1,118.09,403Z" transform="translate(-13.75 -16.68)"/><path class="cls-1" d="M664.58,242.29H611.29a6.63,6.63,0,0,0-6.63,6.66l0,40a6.66,6.66,0,0,0,6.66,6.66h53.29a6.66,6.66,0,0,0,6.66-6.66V249A6.66,6.66,0,0,0,664.58,242.29Zm0,13.32-26.64,16.65-26.65-16.65V249l26.65,16.65L664.58,249Z" transform="translate(-13.75 -16.68)"/><path class="cls-14" d="M48.87,239.3H94.68s13.58-2,12.56-17.64-17.15-13.92-17.15-13.92S91.63,185,72.28,184.67,53.62,207.4,53.62,207.4,35,204.18,34.61,224C34.61,239.72,48.87,239.3,48.87,239.3Z" transform="translate(-13.75 -16.68)"/><path class="cls-12" d="M425.57,429.78l1.14,7.56,8-10.87-10.86-8L425,426a11.46,11.46,0,1,1,9.63-13l3.77-.57a15.28,15.28,0,1,0-12.83,17.38Z" transform="translate(-13.75 -16.68)"/><line class="cls-15" x1="397.56" y1="267" x2="397.56" y2="371.1"/><circle class="cls-16" cx="405.74" cy="143.44" r="123.83"/></svg>