<svg id="Layer_1" data-name="Layer 1" xmlns="http://www.w3.org/2000/svg" viewBox="0 0 947.59 426.03"><defs><style>.cls-1{fill:#c20165;}.cls-2{fill:#4c0c82;}.cls-11,.cls-12,.cls-3,.cls-9{fill:none;stroke-miterlimit:10;}.cls-12,.cls-3{stroke:#6c5b7d;}.cls-11,.cls-3,.cls-9{stroke-width:8.23px;}.cls-4{fill:#fff;}.cls-5{fill:#f8b195;}.cls-6{fill:#4784da;}.cls-7{fill:#6c5b7d;}.cls-8{fill:#ff9c00;}.cls-9{stroke:#4784da;}.cls-10{fill:#f34809;}.cls-11{stroke:#f34809;}.cls-12{stroke-width:8.95px;}</style></defs><title>ERP</title><path class="cls-1" d="M260.8,298l75-132.51c-22.88-13.62-46-19.36-74.53-19.36a153,153,0,1,0,153,153c0-.38,0-.75,0-1.13Z" transform="translate(-24.2 -26.13)"/><path class="cls-2" d="M282,285.32l79-133.67s75.94,40.51,78,133.67Z" transform="translate(-24.2 -26.13)"/><polyline class="cls-3" points="122.26 284.13 56.84 321.8 56.84 390.2"/><polyline class="cls-3" points="353.39 206.79 418.82 169.12 418.82 125.52"/><rect class="cls-4" x="360.85" y="90.16" width="40.31" height="14.54"/><rect class="cls-4" x="407.11" y="90.16" width="18.5" height="14.54"/><rect class="cls-4" y="409.37" width="40.31" height="14.54"/><rect class="cls-4" x="46.26" y="409.37" width="18.5" height="14.54"/><rect class="cls-5" x="597.18" y="329.01" width="45.27" height="14.54"/><rect class="cls-6" x="525.8" y="329.01" width="60.14" height="14.54"/><rect class="cls-7" x="525.8" y="347.19" width="60.14" height="14.54"/><rect class="cls-5" x="651.37" y="329.01" width="70.88" height="14.54"/><rect class="cls-5" x="729.19" y="329.01" width="35.44" height="14.54"/><rect class="cls-5" x="768.35" y="329.01" width="92.69" height="14.54"/><rect class="cls-5" x="597.18" y="348.59" width="60.39" height="14.54"/><rect class="cls-5" x="661.86" y="348.59" width="21.73" height="14.54"/><rect class="cls-5" x="689.62" y="348.59" width="82.69" height="14.54"/><rect class="cls-5" x="778.34" y="348.59" width="36.35" height="14.54"/><rect class="cls-5" x="597.18" y="386.51" width="60.39" height="14.54"/><rect class="cls-5" x="661.86" y="386.51" width="24.95" height="14.54"/><rect class="cls-5" x="692.59" y="386.51" width="81.7" height="14.54"/><rect class="cls-5" x="597.18" y="368.17" width="46.51" height="14.54"/><rect class="cls-5" x="650.21" y="368.17" width="74.02" height="14.54"/><rect class="cls-7" x="51.54" y="40.98" width="60.14" height="14.54"/><rect class="cls-8" x="51.54" y="59.15" width="60.14" height="14.54"/><rect class="cls-5" x="124.65" y="40.27" width="45.27" height="14.54"/><rect class="cls-5" x="178.84" y="40.27" width="70.88" height="14.54"/><rect class="cls-5" x="256.66" y="40.27" width="35.44" height="14.54"/><rect class="cls-5" x="295.82" y="40.27" width="92.69" height="14.54"/><rect class="cls-5" x="124.65" y="59.85" width="60.39" height="14.54"/><rect class="cls-5" x="189.33" y="59.85" width="21.73" height="14.54"/><rect class="cls-5" x="217.09" y="59.85" width="82.69" height="14.54"/><rect class="cls-5" x="305.81" y="59.85" width="36.35" height="14.54"/><circle class="cls-6" cx="538.26" cy="158.41" r="18.23"/><circle class="cls-6" cx="611.83" cy="75.56" r="18.23"/><circle class="cls-6" cx="669.22" cy="140.18" r="18.23"/><circle class="cls-6" cx="725.22" cy="85.17" r="18.23"/><circle class="cls-6" cx="779.57" cy="105.72" r="18.23"/><circle class="cls-6" cx="836.58" cy="18.23" r="18.23"/><polyline class="cls-9" points="538.26 156.75 613.49 75.23 670.49 140.19 726.5 84.84 780.18 104.72 839.17 13.59"/><circle class="cls-10" cx="539.55" cy="201.2" r="18.23"/><circle class="cls-10" cx="611.83" cy="154.81" r="18.23"/><circle class="cls-10" cx="670.51" cy="197.89" r="18.23"/><circle class="cls-10" cx="726.52" cy="123.95" r="18.23"/><circle class="cls-10" cx="780.87" cy="173.03" r="18.23"/><circle class="cls-10" cx="836.58" cy="87.49" r="18.23"/><polyline class="cls-11" points="539.55 199.55 609.18 154.44 670.51 199.84 726.52 116.32 780.87 178.3 840.47 83.51"/><polyline class="cls-12" points="483.77 32.66 483.77 273.04 947.59 273.04"/></svg>