<svg version="1.1" id="Layer_1" xmlns="http://www.w3.org/2000/svg" xmlns:xlink="http://www.w3.org/1999/xlink" x="0px" y="0px"
	 viewBox="0 0 479.5 472.1" enable-background="new 0 0 479.5 472.1" xml:space="preserve">
	 <style>
	 	
	 </style>
<g>
	<path fill="#13B0BF" d="M431,449.1H49.8c-16.6,0-30-13.4-30-30V172.2c0-16.6,13.4-30,30-30H431c16.6,0,30,13.4,30,30V419
		C461,435.6,447.6,449.1,431,449.1z"/>
	<rect x="72.2" y="142.2" fill="#F9F9F9" width="319.8" height="306.9"/>
	<rect x="417.2" y="270.6" width="14.7" height="57.5"/>
	<line fill="none" stroke="#325D7F" stroke-width="3.0781" stroke-miterlimit="10" x1="72.2" y1="143.4" x2="392" y2="143.4"/>
	<g>
		<path fill="#3B79A3" d="M148.3,37l-70,25.2l58.9,160.3l70-25.2L148.3,37z M105.1,86.2c0-5,4.1-9.1,9.1-9.1c5.1,0,9.2,4,9.2,9
		s-4.1,9.1-9.1,9.1C109.2,95.3,105.1,91.2,105.1,86.2z M129.2,135.1c-5.1,0-9.2-4-9.2-9c0-5,4.1-9.1,9.1-9.1c5.1,0,9.2,4,9.2,9
		C138.3,131,134.3,135,129.2,135.1z M146.2,181.4c-5.1,0-9.2-4-9.2-9c0-5,4.1-9.1,9.1-9.1c5.1,0,9.2,4,9.2,9
		C155.3,177.3,151.2,181.4,146.2,181.4z"/>
	<path fill="#325D7F" d="M172.4,209.9l34.8-12.5L148.3,37l-34.8,12.5C135,108.1,172.4,209.9,172.4,209.9z"/>
	<rect x="126.6" y="209.9" fill="#EFEA66" width="215.7" height="192.3"/>
	<rect x="257.5" y="320.3" fill="#F0677F" width="58.1" height="17.1"/>
	<rect x="265.2" y="69.6" fill="#F2727F" width="62.1" height="121.7"/>
	<rect x="296.2" y="69.6" fill="#F8B195" width="31.1" height="121.7"/>
	<polygon fill="#F2727F" points="296.2,22.5 296.3,22.5 265.2,69.3 327.3,69.3 	"/>
	<polygon fill="#F8B195" points="296.2,22.5 296.2,69.6 265.2,69.6 	"/>
	<path fill="#F2727F" d="M207.2,80.6v110.7H246V79.1c-5.7,4.2-12.8,6.7-20.5,6.7C218.8,85.8,212.5,83.9,207.2,80.6z"/>
	<rect x="225" y="67.1" fill="#C16B86" width="21" height="124.2"/>
	<path fill="#325D7F" d="M259.9,51.8c0-18.8-15.4-34-34.4-34c-19,0-34.4,15.2-34.4,34c0,12.1,6.4,22.8,16.1,28.8V62.3H246v16.7
		C254.4,72.9,259.9,63,259.9,51.8z"/>
	<path fill="#325D7F" d="M207.2,62.3v18.2c5.3,3.3,11.6,5.2,18.3,5.2c7.7,0,14.7-2.5,20.5-6.7V62.3H207.2z"/>
	<rect x="148.6" y="222.3" fill="#4784DA" width="167" height="81.4"/>
	<rect x="107.7" y="191.2" fill="#F0677F" width="248.7" height="18.7"/>
	</g>	
	<line fill="none" stroke="#325D7F" stroke-width="3.0781" stroke-miterlimit="10" x1="72.2" y1="447.5" x2="392" y2="447.5"/>
</g>
</svg>
