<svg id="Layer_1" data-name="Layer 1" xmlns="http://www.w3.org/2000/svg" viewBox="0 0 1058.07 437.68"><defs><style>.cls-1{fill:#13b0bf;}.cls-2{fill:#efea66;}.cls-3{fill:#f0677f;}.cls-4{fill:#325d7f;}.cls-5{fill:#6c5b7d;}.cls-6{fill:#7f7f7f;}.cls-7{fill:#fff;}.cls-8{fill:#606060;}.cls-9{fill:#f34809;}.cls-10{fill:#4784da;}.cls-11{fill:#d93b0a;}</style></defs><title>WebMobile</title><rect class="cls-1" x="8.93" y="8.73" width="479.24" height="346.98"/><rect class="cls-2" x="577.9" y="49.09" width="262.47" height="346.98"/><rect class="cls-3" x="941.04" y="209.94" width="117.03" height="213.98" rx="34.89" ry="34.89"/><path class="cls-4" d="M502.92,16.14H49.35A26.88,26.88,0,0,0,22.47,43V361a26.87,26.87,0,0,0,26.88,26.88H502.92A26.88,26.88,0,0,0,529.8,361V43A26.89,26.89,0,0,0,502.92,16.14Zm.15,310.71a26.89,26.89,0,0,1-26.89,26.89H79a26.89,26.89,0,0,1-26.88-26.89V65.64A26.89,26.89,0,0,1,79,38.75H476.18a26.89,26.89,0,0,1,26.89,26.89Z" transform="translate(-22.47 -16.14)"/><path class="cls-5" d="M880.31,407.59V63.53a20.59,20.59,0,0,0-20.78-20.39H613.85a20.58,20.58,0,0,0-20.77,20.39V407.59A20.59,20.59,0,0,0,613.85,428H859.53A20.59,20.59,0,0,0,880.31,407.59Zm-240.07.12c-11.47,0-31.39-7.88-31.39-19.14L609.61,85c0-11.26,19.16-19.36,30.63-19.36H842.07A20.59,20.59,0,0,1,862.84,86V387.31a20.59,20.59,0,0,1-20.77,20.4Z" transform="translate(-22.47 -16.14)"/><path class="cls-4" d="M1080.54,429.41V237.47c0-6.29-3.79-11.38-8.47-11.38H972c-4.68,0-8.47,5.09-8.47,11.38V429.41c0,6.28,3.79,11.38,8.47,11.38h100.1C1076.75,440.79,1080.54,435.69,1080.54,429.41Zm-97.82.06c-4.67,0-12.79-4.39-12.79-10.68l.31-169.38c0-6.28,7.81-10.79,12.48-10.79H1065c4.68,0,8.47,5.09,8.47,11.37V418.1c0,6.28-3.79,11.37-8.47,11.37Z" transform="translate(-22.47 -16.14)"/><rect class="cls-6" x="211.43" y="355.72" width="87.35" height="57.41"/><rect x="168.75" y="407.54" width="168.55" height="30.14"/><rect class="cls-1" x="629.5" y="297.56" width="164.16" height="73.54"/><rect class="cls-7" x="636.68" y="316.16" width="146.7" height="2.69"/><rect class="cls-7" x="636.68" y="324.77" width="146.7" height="2.69"/><rect class="cls-7" x="636.68" y="333.38" width="146.7" height="2.69"/><rect class="cls-7" x="636.68" y="341.99" width="146.7" height="2.69"/><rect class="cls-1" x="629.53" y="204.84" width="164.16" height="73.54"/><rect class="cls-7" x="636.71" y="223.44" width="146.7" height="2.69"/><rect class="cls-7" x="636.71" y="232.06" width="146.7" height="2.69"/><rect class="cls-7" x="636.71" y="240.67" width="146.7" height="2.69"/><rect class="cls-7" x="636.71" y="249.28" width="146.7" height="2.69"/><rect x="959.99" y="351.02" width="81.99" height="43.18"/><rect class="cls-7" x="963.58" y="361.94" width="73.27" height="1.58"/><rect class="cls-7" x="963.58" y="367" width="73.27" height="1.58"/><rect class="cls-7" x="963.58" y="372.06" width="73.27" height="1.58"/><rect class="cls-7" x="963.58" y="377.12" width="73.27" height="1.58"/><rect x="959.99" y="272.03" width="36.78" height="14.74"/><rect class="cls-8" x="1006.2" y="272.03" width="36.78" height="14.74"/><rect class="cls-8" x="959.99" y="295.42" width="36.78" height="14.74"/><rect class="cls-8" x="1005.2" y="295.42" width="36.78" height="14.74"/><rect class="cls-3" x="68.61" y="71.25" width="129.19" height="20.56"/><rect class="cls-9" x="649.63" y="71.25" width="129.19" height="20.56"/><rect class="cls-1" x="959.99" y="241.69" width="81.99" height="20.56"/><rect class="cls-10" x="68.61" y="185.99" width="164.16" height="73.54"/><rect x="246.84" y="117.68" width="173.94" height="46.4"/><rect x="246.84" y="77.07" width="36.78" height="14.74"/><rect class="cls-8" x="293.04" y="77.07" width="36.78" height="14.74"/><rect class="cls-8" x="338.79" y="77.07" width="36.78" height="14.74"/><rect class="cls-8" x="384" y="77.07" width="36.78" height="14.74"/><rect x="627.25" y="114.9" width="36.78" height="14.74"/><rect class="cls-8" x="673.46" y="114.9" width="36.78" height="14.74"/><rect class="cls-8" x="719.21" y="114.9" width="36.78" height="14.74"/><rect class="cls-8" x="764.42" y="114.9" width="36.78" height="14.74"/><rect class="cls-7" x="68.61" y="135.55" width="164.16" height="2.69"/><rect class="cls-7" x="68.61" y="144.16" width="164.16" height="2.69"/><rect class="cls-7" x="68.61" y="152.77" width="164.16" height="2.69"/><rect class="cls-7" x="68.61" y="161.38" width="164.16" height="2.69"/><rect class="cls-7" x="75.79" y="204.59" width="146.7" height="2.69"/><rect class="cls-7" x="75.79" y="213.2" width="146.7" height="2.69"/><rect class="cls-7" x="75.79" y="221.81" width="146.7" height="2.69"/><rect class="cls-7" x="75.79" y="230.42" width="146.7" height="2.69"/><rect class="cls-10" x="255.77" y="187.73" width="164.16" height="73.54"/><rect class="cls-7" x="262.94" y="206.33" width="146.7" height="2.69"/><rect class="cls-7" x="262.94" y="214.95" width="146.7" height="2.69"/><rect class="cls-7" x="262.94" y="223.56" width="146.7" height="2.69"/><rect class="cls-7" x="262.94" y="232.17" width="146.7" height="2.69"/><polygon class="cls-3" points="246.84 164.08 271.59 117.68 298.78 164.08 246.84 164.08"/><polygon class="cls-7" points="368.84 164.08 393.59 117.68 420.78 164.08 368.84 164.08"/><rect class="cls-7" x="301.29" y="117.68" width="25.86" height="46.4"/><rect class="cls-3" x="331.19" y="131.06" width="35.19" height="33.24"/><rect x="627.25" y="145.18" width="173.94" height="46.4"/><polygon class="cls-1" points="627.25 192.56 652.01 146.16 679.2 192.56 627.25 192.56"/><polygon class="cls-3" points="749.26 192.56 774.01 146.16 801.2 192.56 749.26 192.56"/><rect class="cls-3" x="681.71" y="146.16" width="25.86" height="46.4"/><rect class="cls-1" x="711.61" y="159.54" width="35.19" height="33.24"/><rect x="959.99" y="323.72" width="81.99" height="22.52"/><polygon class="cls-7" points="959.99 346.13 971.66 324.26 984.47 346.13 959.99 346.13"/><polygon class="cls-2" points="1017.5 346.13 1029.16 324.26 1041.98 346.13 1017.5 346.13"/><rect class="cls-2" x="985.66" y="324.27" width="12.19" height="21.87"/><rect class="cls-7" x="999.75" y="330.57" width="16.59" height="15.67"/><path class="cls-10" d="M848.79,259.27c42.23,49.3,50.78,59.66,131.3,60.91,0-11.34-.1-30.34-.1-30.34l50.52,43.58L980,378.59V346.72s-67.38,5.44-98.42-19l-33.05-26Z" transform="translate(-22.47 -16.14)"/><path class="cls-11" d="M478.62,150c48.63,56.78,59.15,70.75,151.18,74.23,0-13.06-.12-34.94-.12-34.94l58.19,50.2-58.14,52v-36.7s-77.6,6.26-113.36-21.85L478.31,203Z" transform="translate(-22.47 -16.14)"/></svg>