<svg version="1.1" class="fixed_price" xmlns="http://www.w3.org/2000/svg" xmlns:xlink="http://www.w3.org/1999/xlink" x="0px" y="0px"
	 viewBox="0 0 129 111" style="enable-background:new 0 0 129 111;" xml:space="preserve">
<style type="text/css">
	.fixed_price .st0{fill:none;stroke:#fff;stroke-width:4.1935;stroke-miterlimit:10;}
	.fixed_price .st1{fill:#fff;}
	.fixed_price .st2{font-family:'MyriadPro-Regular';}
	.fixed_price .st3{font-size:62.9032px;}
</style>
	<polyline class="st0" points="40.2,7.5 40.2,53.6 21.3,53.6 21.3,57.8 68.5,105 116.7,56.8 116.7,51.5 96.8,51.5 96.8,9.6 	"/>
	<text transform="matrix(1 0 0 1 54.1387 68.3066)" class="st1 st2 st3">$</text>
	<rect x="19.7" y="45.2" class="st1" width="3.1" height="3.1"/>
	<rect x="26" y="45.2" class="st1" width="3.1" height="3.1"/>
	<rect x="32.3" y="45.2" class="st1" width="3.1" height="3.1"/>
	<rect x="19.7" y="39" class="st1" width="3.1" height="3.1"/>
	<rect x="26" y="39" class="st1" width="3.1" height="3.1"/>
	<rect x="32.3" y="39" class="st1" width="3.1" height="3.1"/>
	<rect x="19.7" y="32.7" class="st1" width="3.1" height="3.1"/>
	<rect x="32.3" y="26.4" class="st1" width="3.1" height="3.1"/>
	<rect x="32.3" y="20.1" class="st1" width="3.1" height="3.1"/>
	<rect x="32.3" y="32.7" class="st1" width="3.1" height="3.1"/>
	<rect x="101.6" y="45.2" class="st1" width="3.1" height="3.1"/>
	<rect x="107.9" y="45.2" class="st1" width="3.1" height="3.1"/>
	<rect x="114.2" y="45.2" class="st1" width="3.1" height="3.1"/>
	<rect x="101.7" y="39" class="st1" width="3.1" height="3.1"/>
	<rect x="107.9" y="39" class="st1" width="3.1" height="3.1"/>
	<rect x="114.2" y="39" class="st1" width="3.1" height="3.1"/>
	<rect x="101.7" y="32.7" class="st1" width="3.1" height="3.1"/>
	<rect x="101.6" y="26.4" class="st1" width="3.1" height="3.1"/>
	<rect x="101.6" y="20.1" class="st1" width="3.1" height="3.1"/>
	<rect x="114.2" y="26.4" class="st1" width="3.1" height="3.1"/>
	<rect x="114.2" y="20.1" class="st1" width="3.1" height="3.1"/>
	<rect x="114.2" y="13.8" class="st1" width="3.1" height="3.1"/>
	<rect x="114.2" y="32.7" class="st1" width="3.1" height="3.1"/>
</svg>
