<svg version="1.1" class="lean" xmlns="http://www.w3.org/2000/svg" xmlns:xlink="http://www.w3.org/1999/xlink" x="0px" y="0px"
	 viewBox="0 0 129 111" style="enable-background:new 0 0 129 111;" xml:space="preserve">
<style type="text/css">
	.lean .st0{fill:none;stroke:#fff;stroke-width:3;stroke-miterlimit:10;}
	.lean .st1{fill:none;stroke:#fff;stroke-width:2;stroke-miterlimit:10;}
	.lean .st2{fill:none;stroke:#fff;stroke-miterlimit:10;}
	.lean .st3{fill:#fff;}
</style>
<path class="st0" d="M36.3,89.6v-6.1c0,0,0.2-6.4,17.9-11.8c0.4-0.1,0.7,0.2,0.7,0.5v1.6c0,0,2,4.6,7.4,4.6s7.8-4.4,7.8-4.4v-1.9
	c0-0.3,0.3-0.5,0.6-0.5C73.9,72.5,88.7,77,89,83.5c0,4.6,0,6.1,0,6.1H36.3z"/>
<path class="st1" d="M50.3,55.7c0,0-1.1,1.2-2.1,0s-2.1-5.8,0-6.8c1.1-0.4,1.7,0.8,2,1.4c0,0.1,0.1,0.1,0.1,0c0-3.2-0.1-8.1,5-9.8
	c3.3-1,5.5-0.1,8.5-0.9c3.1-0.8,5.5-1.7,6.5-3.5c2.5,1.2,4.7,4.6,4.7,7.6V50c0,0.1,0.1,0.1,0.2,0c0.3-0.7,0.9-1.7,1.9-1.3
	c1.4,0.6,1.7,3.3,0.8,5.4c-0.9,2-2.1,2.5-3.1,1.2c0.1,2.8,1,5.4-2.6,8.7c-3.6,3.3-5.8,4.2-5.8,4.2s-3,2.8-7.5,0S52,62.5,51,61
	S50.3,55.7,50.3,55.7z"/>
<line class="st1" x1="55.1" y1="71.1" x2="55.1" y2="65.1"/>
<line class="st1" x1="70" y1="72" x2="70" y2="66"/>
<path class="st2" d="M47.3,49.9c-0.3-3.6-0.8-6.9,0.2-10.7c1.1-3.7,7-14.4,18.4-11.3c2.1,0.6,4.5,2.7,4.5,2.7s5.8-1,7.8,6.6
	c0.8,3.6-0.5,12.1-0.5,12.1"/>
<circle class="st3" cx="56.9" cy="51.8" r="1.6"/>
<circle class="st3" cx="68.4" cy="51.8" r="1.6"/>
<path class="st0" d="M37,81.3H3.3v-6.1c0,0,0.2-6.4,17.9-11.8c0.3-0.1,0.7,0.2,0.7,0.5v1.7c0,0,2,4.6,7.4,4.6s7.8-4.4,7.8-4.4v-1.8
	c0-0.4,0.3-0.6,0.7-0.5c2.6,0.7,12.2,3.7,16.2,8"/>
<path class="st1" d="M17.2,47.4c0,0-1.1,1.2-2.1,0s-2.1-5.8,0-6.8c1.1-0.4,1.7,0.8,2,1.4c0,0.1,0.1,0.1,0.1,0c0-3.2-0.1-8.1,5-9.8
	c3.3-1,5.5-0.1,8.5-0.9c3.1-0.8,5.5-1.7,6.5-3.5c2.5,1.2,4.7,4.6,4.7,7.6v6.2c0,0.1,0.1,0.1,0.2,0c0.3-0.7,0.9-1.7,1.9-1.3
	c1.4,0.6,1.7,3.3,0.8,5.4s-2.1,2.5-3.1,1.2c0.1,2.8,1,5.4-2.6,8.7c-3.6,3.3-5.8,4.2-5.8,4.2s-3,2.8-7.5,0s-6.9-5.7-7.9-7.2
	C17,51.3,17.2,47.4,17.2,47.4z"/>
<line class="st1" x1="22.1" y1="62.8" x2="22.1" y2="56.8"/>
<line class="st1" x1="37" y1="63.8" x2="37" y2="57.7"/>
<path class="st2" d="M14.2,41.6c-0.3-3.6-0.8-6.9,0.2-10.7c1.1-3.7,7-14.4,18.4-11.3c2.1,0.6,4.5,2.7,4.5,2.7s5.8-1,7.8,6.6
	c0.8,3.6-0.5,12.1-0.5,12.1"/>
<circle class="st3" cx="23.9" cy="43.5" r="1.6"/>
<circle class="st3" cx="35.3" cy="43.5" r="1.6"/>
<path class="st0" d="M74.5,72.9c1.6-2.4,5.8-6.1,16.8-9.4c0.4-0.1,0.8,0.2,0.8,0.6v1.5c0,0,2,4.6,7.4,4.6s7.8-4.4,7.8-4.4V64
	c0-0.4,0.4-0.7,0.8-0.6c3.6,1,17.7,5.4,18,11.8c0,4.6,0,6.1,0,6.1H88.3"/>
<path class="st1" d="M87.4,47.4c0,0-1.1,1.2-2.1,0c-1-1.2-2.1-5.8,0-6.8c1.1-0.4,1.7,0.8,2,1.4c0,0.1,0.1,0.1,0.1,0
	c0-3.2-0.1-8.1,5-9.8c3.3-1,5.5-0.1,8.5-0.9c3.1-0.8,5.5-1.7,6.5-3.5c2.5,1.2,4.7,4.6,4.7,7.6v6.2c0,0.1,0.1,0.1,0.2,0
	c0.3-0.7,0.9-1.7,1.9-1.3c1.4,0.6,1.7,3.3,0.8,5.4c-0.9,2-2.1,2.5-3.1,1.2c0.1,2.8,1,5.4-2.6,8.7c-3.6,3.3-5.8,4.2-5.8,4.2
	s-3,2.8-7.5,0c-4.4-2.8-6.9-5.7-7.9-7.2C87.1,51.3,87.4,47.4,87.4,47.4z"/>
<line class="st1" x1="92.2" y1="62.8" x2="92.2" y2="56.8"/>
<line class="st1" x1="107.1" y1="63.8" x2="107.1" y2="57.7"/>
<path class="st2" d="M84.4,41.6c-0.3-3.6-0.8-6.9,0.2-10.7c1.1-3.7,7-14.4,18.4-11.3c2.1,0.6,4.5,2.7,4.5,2.7s5.8-1,7.8,6.6
	c0.8,3.6-0.5,12.1-0.5,12.1"/>
<circle class="st3" cx="94" cy="43.5" r="1.6"/>
<circle class="st3" cx="105.5" cy="43.5" r="1.6"/>
</svg>
