<svg viewBox="0 0 52.1 48">
	<path d="M0,46.7C0,47.4,0.6,48,1.3,48h9.3c0.7,0,1.3-0.6,1.3-1.3V15.9c0-0.7-0.6-1.3-1.3-1.3H1.3
		c-0.7,0-1.3,0.6-1.3,1.3V46.7z"/>
	<path d="M38.6,14.3c-4.5,0-7.7,1.8-9.4,3.7c-0.4,0.4-1.1,0.1-1.1-0.5v-1.6c0-0.7-0.6-1.3-1.3-1.3h-9.4
		c-0.7,0-1.3,0.6-1.3,1.3c0.1,5.7,0,25.4,0,30.7c0,0.7,0.6,1.3,1.3,1.3h9.5c0.7,0,1.3-0.6,1.3-1.3V29.9c0-1,0-2,0.3-2.7
		c0.8-2,2.6-4.1,5.7-4.1c4.1,0,6,3.1,6,7.6v15.9c0,0.7,0.6,1.3,1.3,1.3h9.3c0.7,0,1.3-0.6,1.3-1.3V29.4C52,19.1,46.1,14.3,38.6,14.3
		z"/>
	<path d="M5.9,10.9L5.9,10.9c3.8,0,6.1-2.4,6.1-5.4C11.9,2.3,9.7,0,6,0S0,2.3,0,5.4S2.3,10.9,5.9,10.9z"/>
</svg>
