<svg viewBox="0 0 52.5 46.7">
	<path d="M5,18C5.1,18,5.1,18,5,18c-0.9,0-1.8-0.2-2.6-0.4c-1.3-0.4-2.5,0.8-2.1,2c1.1,4.3,4.5,7.7,8.8,8.6
		c-1,0.3-2,0.4-3,0.4s-1.7,1.1-1.2,2c1.9,3.5,5.6,5.9,9.7,6h1c1.1,0,2,0.9,2,2s-0.9,2-2,2c-1.3,0-2.9-0.1-4.5-0.5
		c-1-0.2-2-0.2-2.9,0.1c-1.7,0.6-3.5,1.1-5.4,1.3c-0.7,0.1-1.2,0.6-1.2,1.3l0,0c0,0.5,0.3,1,0.8,1.2c3.9,1.7,8.3,2.7,12.9,2.7
		C36.4,46.7,48,28.8,48,13.2l0,0c0-0.9,0.4-1.8,1.1-2.4c1.2-1,2.3-2.1,3.3-3.4c0.4-0.5-0.1-1.2-0.7-1c-1.2,0.4-2.4,0.7-3.7,0.9
		c-0.2,0-0.3-0.2-0.1-0.4c1.5-1.1,2.8-2.6,3.6-4.3c0.3-0.6-0.3-1.2-0.9-0.9c-1.1,0.6-2.3,1-3.5,1.4s-2.6,0.1-3.6-0.7
		c-1.9-1.5-4.4-2.4-7-2.4c-5.3,0-9.8,3.7-11.1,8.8c-0.2,0.9,0.5,1.7,1.4,1.7c1.6-0.1,3.2-0.3,4.4-0.5c1-0.2,2,0.3,2.4,1.2
		c0.5,1.2-0.2,2.4-1.3,2.7c-4.6,1.3-9.7,0.4-9.7,0.4l0,0C14.8,13.2,7.9,9.4,2.9,3.9c-0.7-0.8-2-0.5-2.3,0.4C0.2,5.5,0,6.8,0,8.2
		C0,12.3,2,15.9,5,18z"/>
</svg>
