<svg version="1.1" id="Layer_1" xmlns="http://www.w3.org/2000/svg" xmlns:xlink="http://www.w3.org/1999/xlink" x="0px" y="0px"
	 viewBox="0 0 408 429" style="enable-background:new 0 0 408 429;" xml:space="preserve">
<style type="text/css">
	.st0{fill:#09A38C;}
	.st1{fill:#02173E;}
	.st2{fill:#BF0C2B;}
	.st3{fill:#F5900E;}
	.st4{fill:#2D2D2D;}
</style>
<path class="st0" d="M309.1,256.3h14.1L292,302.8l-31.9-46.6h17.5c0,0,0.7-57.9-57.2-71.9c9.3-21-4.2-34.9-4.2-34.9
	s44.2,8.9,59.7,30.8c0-33.3,0-66.1,0-66.1l31.2,12.3L309.1,256.3z"/>
<path class="st1" d="M202.2,148.9v-14.1l46.6,31.2l-46.6,31.9v-17.5c0,0-57.9-0.7-71.9,57.2c-21-9.3-36.8,6-36.8,6
	s11.6-51.1,32.7-61.5c-33.3,0-66.1,0-66.1,0l12.3-31.2L202.2,148.9z"/>
<path class="st2" d="M94.4,257.9H80.3l31.2-46.6l31.9,46.6h-17.5c0,0-5.5,58.6,58.9,74.9c-9.3,21-15.1,27.1-15.1,27.1
	s-32.2-10.7-42.2-26c0,33.3,0,66.1,0,66.1l-31.2-12.3L94.4,257.9z"/>
<path class="st3" d="M202.8,366.9V381l-46.6-31.2l46.6-31.9v17.5c0,0,55.1-0.7,76.8-50.7c4.4,7.3,9.3,13.3,12.3,17.9
	c13.4-20.7,20.8-31,20.8-31s-5.1,44-34,62c33.3,0,66.1,0,66.1,0L332.7,365L202.8,366.9z"/>
<g>	
	<path class="st4" d="M165.1,97.1c-6.7,1.8-9.9,3-16.4,5.7c-0.1,3.9-0.1,5.8,0,9.6c-2,0.9-2.9,1.4-4.9,2.4
		c-0.7-12.7,0.1-25.5,2-38.1c2.1-0.8,3.2-1.2,5.4-1.9c9.2,8.7,17.6,18.3,24.8,28.7c-2.1,0.4-3.1,0.7-5.2,1.2
		C168.7,101.6,167.5,100,165.1,97.1z M148.9,98.5c5.3-2.2,8-3.1,13.5-4.7c-4.4-5.2-6.8-7.7-11.8-12.6c-0.1,0-0.1,0-0.2,0.1
		C149.5,88.2,149.2,91.7,148.9,98.5z"/>
	<path class="st4" d="M177.1,90.8c-0.7-4-0.2-7.5,1.7-10.3s5.1-4.5,9.3-4.9c2.2-0.2,4.1,0,5.8,0.6s3,1.5,4.1,2.7
		c0.3-1.3,0.4-2,0.7-3.3c2,0,3,0,4.9,0c-0.2,10.2-0.2,15.3-0.4,25.5c0,3.2-1.1,5.7-3.1,7.5s-4.7,2.7-8.4,3
		c-1.3,0.1-2.6,0.1-4.1-0.1s-2.8-0.4-4-0.8c0.3-1.5,0.4-2.2,0.7-3.7c1,0.3,2.1,0.6,3.3,0.7c1.3,0.1,2.5,0.2,3.7,0.1
		c2.4-0.2,4.1-0.8,5.2-1.9c1.1-1.1,1.6-2.6,1.5-4.7c0-1.1,0-1.7-0.1-2.9c-0.9,1.1-2,1.9-3.3,2.5s-2.7,1-4.4,1.1
		c-3.5,0.3-6.3-0.4-8.6-2.4c-2.4-1.9-3.9-4.6-4.6-8.2C177.1,91.1,177.1,91,177.1,90.8z M182.7,90.5c0.3,2.5,1.3,4.5,2.7,5.8
		c1.4,1.4,3.4,1.9,5.9,1.7c1.6-0.1,2.9-0.5,4-1.2s1.9-1.6,2.6-2.8c-0.1-4.7-0.2-7-0.3-11.7c-0.8-1.1-1.8-1.9-3.1-2.5
		s-2.8-0.8-4.6-0.7c-2.9,0.2-5,1.4-6.1,3.4c-1.2,2-1.5,4.4-1.1,7.3C182.7,90.2,182.7,90.3,182.7,90.5z"/>
	<path class="st4" d="M220.1,70.2c-2.6-0.3-3.9-0.4-6.4-0.6c0.1-1.9,0.2-2.8,0.4-4.7c2.7,0.2,4,0.3,6.6,0.7
		C220.4,67.4,220.3,68.3,220.1,70.2z M216.3,101.8c-2.1-0.2-3.1-0.3-5.1-0.5c0.8-10.1,1.2-15.2,2-25.3c2.5,0.2,3.7,0.3,6.2,0.6
		C218.1,86.7,217.5,91.7,216.3,101.8z"/>
	<path class="st4" d="M229.7,104.1c-2-0.5-3-0.7-5.1-1.1c2.2-12,4.5-24,6.7-35.9c2.6,0.5,3.9,0.8,6.6,1.4
		C235.2,80.4,232.4,92.3,229.7,104.1z"/>
	<path class="st4" d="M248.5,110.6c-3.7-1.5-6.3-3.6-7.9-6.6c-1.6-3-2-6.2-0.9-9.8c0.1-0.4,0.2-0.6,0.3-1c1-3.5,3.1-6,6.6-7.4
		s7.2-1.4,10.9,0.1c4.4,1.7,7.2,4.2,8.4,7.1c1.2,2.9,1,5.9-0.6,8.9c-0.5,1-0.8,1.5-1.3,2.6c-7.4-3.8-11.2-5.3-18.9-7.9
		c0,0-0.1,0-0.1,0.1c-0.7,2.3-0.6,4.5,0.2,6.4s2.3,3.3,4.7,4.3c1.7,0.7,3.3,1.1,4.7,1.3c1.5,0.2,2.8,0.1,4.1-0.1
		c0.3,1.5,0.4,2.2,0.6,3.6c-1.4,0.3-2.9,0.4-4.7,0.2C252.8,112.2,250.8,111.5,248.5,110.6z M256.2,89.2c-1.9-0.8-3.8-0.8-5.6,0
		c-1.8,0.7-3.1,2-4.1,3.8c0,0.1,0,0.1,0,0.1c5.6,1.9,8.4,3,13.9,5.5c0.1-0.2,0.2-0.3,0.3-0.6c0.8-1.6,0.8-3.3,0.1-4.9
		C260.1,91.5,258.5,90.1,256.2,89.2z"/>	
</g>
</svg>
