<?xml version="1.0" encoding="utf-8"?>
<!-- Generator: Adobe Illustrator 22.0.0, SVG Export Plug-In . SVG Version: 6.00 Build 0)  -->
<svg version="1.1" id="Layer_1" xmlns="http://www.w3.org/2000/svg" xmlns:xlink="http://www.w3.org/1999/xlink" x="0px" y="0px"
	 viewBox="0 0 181.3 118.7" enable-background="new 0 0 181.3 118.7" xml:space="preserve">
<g>
	<polyline fill="none" stroke="#8F53E9" stroke-width="8.332583e-02" stroke-miterlimit="10" points="126.7,32.5 144.8,37.3 
		151.9,25.6 159.5,27.9 	"/>
	<circle fill="#444" cx="126.7" cy="32.5" r="2.4"/>
	<circle fill="#444" cx="144.8" cy="37.3" r="1.3"/>
	<circle fill="#444" cx="151.9" cy="25.6" r="0.8"/>
	<circle fill="#444" cx="159.5" cy="27.9" r="0.6"/>
</g>
<g>
	<polyline fill="none" stroke="#8F53E9" stroke-width="8.332583e-02" stroke-miterlimit="10" points="63.2,32.3 69,37.4 68.2,34.2 
		64.2,35.3 63.5,32.1 59.7,26.9 47.7,26.6 42.2,32.3 41.3,38.6 48.7,47.7 45.8,79.7 80.8,73.6 96.2,83.6 	"/>
	<circle fill="#444" cx="42.2" cy="32.1" r="2.3"/>
	<circle fill="#444" cx="48.7" cy="47.7" r="1.5"/>
	<circle fill="#444" cx="45.8" cy="79.4" r="1.5"/>
	<circle fill="#444" cx="96.2" cy="83.6" r="2.3"/>
	<circle fill="#444" cx="80.8" cy="73.6" r="0.9"/>
	<circle fill="#444" cx="63.2" cy="32.3" r="0.8"/>
	<circle fill="#444" cx="64.2" cy="35" r="0.3"/>
	<circle fill="#444" cx="68.2" cy="34.2" r="0.4"/>
	<circle fill="#444" cx="69" cy="37.4" r="0.5"/>
	<circle fill="#444" cx="59.7" cy="26.9" r="0.2"/>
	<circle fill="#444" cx="59.7" cy="26.9" r="0.2"/>
	<circle fill="#444" cx="47.7" cy="26.6" r="0.2"/>
</g>
</svg>
