<svg version="1.1" id="Layer_1" xmlns="http://www.w3.org/2000/svg" xmlns:xlink="http://www.w3.org/1999/xlink" x="0px" y="0px"
	 viewBox="0 0 408 429" style="enable-background:new 0 0 408 429;" xml:space="preserve">
<style type="text/css">
	.st0{fill:#F14C13;}
	.st1{fill:none;stroke:#02173E;stroke-width:5.8884;stroke-miterlimit:10;}
	.st2{fill:none;stroke:#09A38C;stroke-width:20.5096;stroke-miterlimit:10;}
	.st3{fill:#2D2D2D;}
</style>
<path class="st0" d="M241.4,240.5c0,0,0.3-6.2-5.6-6.9c-5.9-0.7-36.3,0-36.3,0l-48.4,48.1c0,0-4.9,5.9,0,11.5
	c4.9,5.6,29.4,30.1,29.4,30.1s5.2,11.5,15,2c9.8-9.5,47.1-47.8,47.1-47.8L241.4,240.5z M223.3,272.1l-4.4,2
	c-0.4-1.6-1.4-4.7-4.5-7.8c-3.7-3.7-7.4-2.9-9.3-1c-2.6,2.6-2,5.6,0.5,11.6c2.9,7.1,2.9,12.1-1.4,16.4c-3.8,3.8-10.1,4.8-15.9,0.6
	l-5,5l-3-3l4.9-4.9c-2.7-2.8-4.8-6.7-5.3-9.6l4.4-2.1c0.6,2.9,2.2,6.4,4.9,9.1c3.4,3.4,7.8,3.8,10.5,1c2.6-2.6,2.5-6.2,0.3-11.3
	c-3-6.9-3.8-12.2,0.4-16.4c4-4,9.9-4.2,15.1-0.5l4.9-4.9l3,3l-4.7,4.7C221.5,267.1,222.7,269.9,223.3,272.1z M227.5,254.8
	c-4.5,0-8-3.6-8-8c0-4.5,3.6-8,8-8s8,3.6,8,8C235.6,251.2,231.9,254.8,227.5,254.8z"/>
<path class="st1" d="M229.6,254.5c-12.1-36.5,14.2-37.2,21.7-32.3c11.1,7.3,14.5,24,4.7,41c-3,5.4-8.7,6.9-13.7,6.9"/>
<circle class="st2" cx="203.6" cy="265.4" r="126.6"/>
<g>
	<g>
		<path class="st3" d="M104.3,102.7c-6.6,2.7-9.9,4.2-16.4,7.3c2.6,5.4,4,8.1,6.6,13.6c-1.8,0.9-2.7,1.3-4.5,2.3
			c-5.2-10.1-10.3-20.3-15.5-30.4c10-5.1,15.1-7.4,25.4-11.5c0.5,1.4,0.8,2,1.3,3.4c-8.1,3.2-12.1,5-20,8.8
			c2.1,4.2,3.1,6.4,5.1,10.6c6.6-3.2,9.9-4.7,16.6-7.4C103.5,100.7,103.8,101.4,104.3,102.7z"/>
		<path class="st3" d="M111.6,82.1c-2.1,0.7-3.2,1.1-5.3,1.9c-0.7-1.8-1-2.6-1.6-4.4c2.1-0.8,3.2-1.2,5.4-1.9
			C110.6,79.4,111,80.3,111.6,82.1z M122.1,112.1c-1.9,0.7-2.8,1-4.7,1.7c-3.5-9.5-5.3-14.3-8.9-23.8c2.1-0.8,3.1-1.1,5.2-1.9
			C117.1,97.8,118.8,102.6,122.1,112.1z"/>
		<path class="st3" d="M134,91.6c1.4-4.3,2.1-6.4,3.6-10.7c2.5-0.6,3.7-0.9,6.2-1.5c-2.6,5.8-3.9,8.7-6.2,14.5c5,4,7.5,6,12.2,10.2
			c-2.2,0.5-3.3,0.8-5.5,1.3c-3.3-3.1-5-4.7-8.4-7.7c-1.4,4.4-2,6.6-3.2,10.9c-2.2,0.7-3.3,1-5.5,1.7c1.9-6,2.9-9,5.2-15
			c-5-3.8-7.5-5.6-12.8-9.2c2.4-0.8,3.6-1.2,6-1.9C128.9,87.2,130.6,88.7,134,91.6z"/>
		<path class="st3" d="M165.2,101.5c-3.7,0.6-6.9,0.1-9.6-1.8c-2.7-1.8-4.5-4.6-5.3-8.2c-0.1-0.4-0.1-0.6-0.2-1
			c-0.8-3.5-0.2-6.7,1.7-9.6s4.7-4.6,8.1-5.2c4-0.7,7.1-0.1,9.5,1.7c2.3,1.8,3.6,4.4,4.1,7.8c0.1,1.1,0.2,1.7,0.4,2.9
			c-7.3,0.9-10.9,1.5-18.2,3c0,0.1,0,0.1-0.1,0.1c0.5,2.4,1.6,4.2,3.2,5.5c1.6,1.3,3.5,1.7,5.8,1.3c1.7-0.3,3.1-0.7,4.3-1.4
			c1.2-0.6,2.2-1.4,3-2.3c0.9,1.1,1.4,1.6,2.3,2.7c-0.9,1-2,1.9-3.5,2.8C169.3,100.5,167.4,101.1,165.2,101.5z M160.6,79.3
			c-1.8,0.3-3.2,1.2-4.2,2.7s-1.4,3.3-1.3,5.2c0,0,0,0.1,0.1,0.1c5.2-1,7.8-1.5,13.1-2.3c0-0.2-0.1-0.4-0.1-0.6
			c-0.3-1.8-1-3.2-2.3-4.2C164.6,79.2,162.8,78.9,160.6,79.3z"/>
		<path class="st3" d="M178.4,86.8c-0.5-4.1,0.2-7.4,1.9-10.1s4.5-4.2,8.2-4.5c1.7-0.1,3.3,0.1,4.7,0.5c1.4,0.5,2.6,1.2,3.5,2.2
			c-0.2-5.6-0.4-8.4-0.6-13.9c2.2-0.1,3.4-0.1,5.6-0.2c0.3,12.2,0.6,24.4,0.9,36.6c-1.6,0-2.4,0.1-4,0.1c-0.3-1.2-0.4-1.9-0.7-3.1
			c-0.8,1.2-1.9,2.2-3.1,2.8c-1.3,0.7-2.7,1.1-4.4,1.2c-3.3,0.2-6-0.6-8.1-2.7c-2.1-2-3.4-4.9-3.8-8.5
			C178.5,87.1,178.4,87,178.4,86.8z M183.6,86.8c0.2,2.6,1,4.5,2.3,6c1.3,1.4,3.1,2.1,5.5,1.9c1.5-0.1,2.7-0.5,3.7-1.2
			s1.8-1.6,2.4-2.7c-0.2-4.7-0.3-7.1-0.5-11.8c-0.7-1-1.6-1.8-2.8-2.4c-1.1-0.6-2.5-0.8-4-0.7c-2.6,0.2-4.4,1.2-5.4,3.2
			c-1,1.9-1.4,4.3-1.2,7.3C183.6,86.5,183.6,86.6,183.6,86.8z"/>
		<path class="st3" d="M247.4,88.4c-0.5,3.6-1.9,6.4-4.1,8.4s-4.9,2.8-8.1,2.4c-1.7-0.2-3.1-0.6-4.3-1.2s-2.2-1.5-3-2.6
			c-0.4,4.9-0.5,7.4-0.9,12.4c-1.9-0.1-2.8-0.2-4.7-0.3c0.6-11.7,1.2-23.4,1.9-35.1c1.7,0.1,2.5,0.1,4.1,0.2c0.3,1.3,0.4,2,0.6,3.3
			c1-1.1,2.3-2,3.8-2.5s3.2-0.7,5.1-0.5c3.7,0.4,6.4,2,8.1,4.7c1.7,2.7,2.2,6.1,1.6,10.2C247.4,88.1,247.4,88.2,247.4,88.4z
			 M242.3,87.2c0.4-2.9,0-5.3-1.1-7.3s-2.9-3.1-5.5-3.4c-1.5-0.1-2.9,0-4,0.6c-1.1,0.5-2.1,1.3-2.8,2.3c-0.4,4.9-0.5,7.3-0.9,12.2
			c0.6,1.1,1.3,2,2.3,2.6c1,0.7,2.2,1.1,3.6,1.2c2.4,0.2,4.2-0.4,5.6-1.8c1.4-1.4,2.3-3.4,2.6-5.9C242.3,87.5,242.3,87.4,242.3,87.2
			z"/>
		<path class="st3" d="M268.9,82.5c-1.1-0.3-1.6-0.4-2.7-0.7c-1.4-0.3-2.6-0.2-3.7,0.1c-1.1,0.4-1.9,1-2.6,2
			c-1.3,7.1-2,10.7-3.3,17.8c-1.9-0.4-2.9-0.5-4.9-0.9c1.7-10,2.5-15,4.2-25c1.9,0.3,2.9,0.5,4.8,0.8c-0.1,1.5-0.1,2.2-0.2,3.7
			c1.1-1.1,2.3-2,3.6-2.4s2.8-0.6,4.4-0.2c0.4,0.1,0.8,0.2,1.1,0.3s0.6,0.3,0.9,0.4C269.9,80.1,269.6,80.9,268.9,82.5z"/>
		<path class="st3" d="M282.2,74.8c-2.2-0.6-3.2-0.8-5.4-1.3c0.4-1.8,0.7-2.7,1.1-4.6c2.2,0.5,3.3,0.8,5.5,1.4
			C283,72.1,282.7,73,282.2,74.8z M274.3,105.6c-1.9-0.5-2.9-0.7-4.8-1.2c2.3-9.9,3.5-14.8,5.9-24.7c2.1,0.5,3.2,0.8,5.3,1.3
			C278.1,90.9,276.8,95.8,274.3,105.6z"/>
		<path class="st3" d="M293.3,108c1.6,0.5,3.1,0.6,4.7,0.1c1.5-0.5,2.5-1.3,3-2.6c1.7,0.6,2.6,1,4.3,1.6c0,0.1,0,0.1,0,0.2
			c-0.7,2.1-2.4,3.5-5.1,4.3s-5.3,0.8-8.1-0.1c-3.8-1.3-6.3-3.3-7.7-6.2c-1.4-2.9-1.6-6.1-0.6-9.6c0.1-0.4,0.2-0.6,0.3-0.9
			c1-3.5,2.9-6.1,5.8-7.7c2.9-1.7,6.5-1.8,10.6-0.4c3.3,1.1,5.8,2.9,7.3,5.3s1.7,4.8,0.7,7.2l-0.1,0.1c-1.8-0.7-2.7-1-4.5-1.7
			c0.5-1.5,0.4-2.9-0.5-4.4s-2.2-2.5-4.1-3.1c-2.7-0.9-4.9-0.7-6.6,0.6c-1.7,1.3-2.9,3.2-3.6,5.6c-0.1,0.4-0.2,0.6-0.3,0.9
			c-0.8,2.5-0.8,4.7-0.3,6.7C289.2,105.8,290.8,107.2,293.3,108z"/>
		<path class="st3" d="M318.1,121.7c-3.5-1.6-5.8-3.9-7-6.9s-1.2-6.3,0.2-9.8c0.2-0.4,0.2-0.6,0.4-1c1.3-3.3,3.6-5.7,6.9-6.9
			s6.6-1.1,9.8,0.3c3.7,1.7,6.1,4,7.1,6.8s0.6,5.7-0.9,8.8c-0.5,1-0.8,1.5-1.3,2.6c-6.7-3.4-10.1-5-17-8c0,0-0.1,0-0.1,0.1
			c-0.9,2.3-1,4.4-0.5,6.3c0.6,2,1.9,3.4,4.1,4.4c1.6,0.7,3,1.2,4.4,1.3c1.4,0.2,2.7,0.1,3.9-0.2c0.2,1.4,0.3,2.2,0.5,3.6
			c-1.3,0.3-2.8,0.4-4.5,0.2C322,123.3,320.1,122.7,318.1,121.7z M326.8,100.8c-1.7-0.8-3.4-0.8-5.1-0.1c-1.7,0.7-3.1,1.9-4.1,3.6
			c0,0.1,0,0.1,0,0.1c5,2.1,7.4,3.2,12.3,5.6c0.1-0.2,0.2-0.3,0.3-0.5c0.8-1.6,0.9-3.2,0.4-4.8C330.1,103,328.8,101.7,326.8,100.8z"
			/>
	</g>
</g>
</svg>
