<?xml version="1.0" encoding="utf-8"?>
<!-- Generator: Adobe Illustrator 22.0.0, SVG Export Plug-In . SVG Version: 6.00 Build 0)  -->
<svg version="1.1" id="Layer_1" xmlns="http://www.w3.org/2000/svg" xmlns:xlink="http://www.w3.org/1999/xlink" x="0px" y="0px"
	 viewBox="0 0 225.4 124.3" enable-background="new 0 0 225.4 124.3" xml:space="preserve">
<g>
	<g>
		<path fill="#F1F2F3" d="M29.6,44.1c1.5,2.6,2.3,3.9,2.8,4.7c3.9-8.1,14.3-12.9,19.5-13.4C50.4,38.1,32.7,70,29.9,75
			c6.2,9,16,14,28.9,13.7c0-1.5,0-3.4,0-4.5c-12.3,0.2-19.5-5-23.2-10c0.8-1.5,23.2-41.7,24.5-44C48.1,29.4,37.1,33.1,29.6,44.1z"/>
		<path fill="#F1F2F3" d="M28.2,52.2c-0.3-0.4-0.8-1.3-1.5-2.9c-4,7.7-1.2,18.3,0,20.3c0.5-0.7,1-1.9,1.5-2.8
			C26.9,63.5,26.4,56.2,28.2,52.2z"/>
		<path fill="#F1F2F3" d="M188.4,49.3c-0.7,1.6-1.2,2.5-1.5,2.9c1.9,4,1.3,11.3,0,14.6c0.6,0.9,1,2,1.5,2.8
			C189.7,67.6,192.4,57,188.4,49.3z"/>
		<path fill="#F1F2F3" d="M90.8,49.9c0.9-1.5,1.8-2.9,2.6-4.4c-5.4-4.7-16-12-28.4-14.9c0,2.8-0.3,56.6-0.4,57.8
			c5.5-0.4,18-4.7,28.6-14.9c-0.9-1.7-1.4-2.3-2.2-3.9c-5.7,5.5-12.7,9.7-21.6,13.3c-0.1-2.5,0.1-21.3,0.1-21.3l21.4,0l0-4.3
			l-21.4-0.1c0,0,0-16.3,0-20.4C75,39,83.8,43.5,90.8,49.9z"/>
		<path fill="#F1F2F3" d="M145.8,82c-3.3-0.7-15.6-7-18.5-10c0-1.7,0.1-30.6,0.1-30.6l-4.7,3.5c0,0,0,27,0,29.2
			c3.3,3.3,18.1,13.6,27.7,13.8c0-2.2,0.1-56.9,0.1-56.9l-4.5,1.1C145.9,32.1,145.8,80.6,145.8,82z"/>
		<path fill="#F1F2F3" d="M174.5,54.3c-4.9-1.9-12.2-3.6-12.2-3.6s-1-0.1-1.3-1.4c0-1.9,0-12.4,0-14.2c5.5-0.2,16.5,5.1,16.5,7.8
			c0,2.7-0.1,6.9-0.1,6.9l4.8,1.5c0,0,0-8.5,0-10.2c-13-11.7-26.3-11-26.3-11s-0.1,18.1-0.1,19.9c0,1.8,0.6,2.9,1.9,3.8
			c1.3,0.9,13.8,4.1,16,5c2.4,1.1,4.3,2,4.3,3.6c0,1.6,0.1,10.8,0.2,13.1c-1.6,3.6-14.1,8.8-17,8.3c0-2.3,0-17.2,0-17.2l-4.9-1
			c0,0,0.1,20.5,0.1,23.1c12.8,0.9,22.8-6.2,26.6-10.5c0.1-1.6,0.1-12.2-0.1-16.6C182.6,57.2,179.4,56.2,174.5,54.3z"/>
		<polygon fill="#F1F2F3" points="117.8,48.8 107.6,58 97.6,48.8 96.4,51 105.5,59.3 96.4,67.6 97.6,69.8 107.5,60.7 117.8,69.8 
			119,67.7 109.7,59.2 119,51 		"/>
	</g>
	<g>
		<g>
			<path fill="#FFFFFF" d="M82.4,72.2h-0.3l-0.4-2.7H82l0.3,2h0l0.3-2h0.3l0.3,2h0l0.3-2h0.4l-0.4,2.7h-0.3l-0.3-1.9h0L82.4,72.2z"
				/>
		</g>
		<g>
			<path fill="#FFFFFF" d="M85.1,72.2H84v-2.7h1.1V70h-0.7v0.7H85v0.4h-0.7v0.7h0.7V72.2z"/>
		</g>
		<g>
			<path fill="#FFFFFF" d="M85.3,72.2v-2.7H86c0.3,0,0.5,0.3,0.5,0.7c0,0.3-0.1,0.5-0.3,0.6v0c0.2,0,0.4,0.3,0.4,0.7
				c0,0.5-0.2,0.8-0.6,0.8H85.3z M85.7,70.6h0.3c0.2,0,0.3-0.1,0.3-0.4c0-0.2-0.1-0.3-0.3-0.3h-0.3V70.6z M86,71.8
				c0.2,0,0.3-0.1,0.3-0.4c0-0.3-0.1-0.4-0.3-0.4h-0.3v0.8H86z"/>
		</g>
	</g>
	<g>
		<g>
			<path fill="#FFFFFF" d="M117.3,64.2h-0.3l-0.4-2.7h0.4l0.3,2h0l0.3-2h0.3l0.3,2h0l0.3-2h0.4l-0.4,2.7h-0.3l-0.3-1.9h0L117.3,64.2
				z"/>
		</g>
		<g>
			<path fill="#FFFFFF" d="M119.9,64.2h-1.1v-2.7h1.1v0.5h-0.7v0.7h0.7V63h-0.7v0.7h0.7V64.2z"/>
		</g>
		<g>
			<path fill="#FFFFFF" d="M120.2,64.2v-2.7h0.7c0.3,0,0.5,0.3,0.5,0.7c0,0.3-0.1,0.5-0.3,0.6v0c0.2,0,0.4,0.3,0.4,0.7
				c0,0.5-0.2,0.8-0.6,0.8H120.2z M120.5,62.6h0.3c0.2,0,0.3-0.1,0.3-0.4c0-0.2-0.1-0.3-0.3-0.3h-0.3V62.6z M120.8,63.7
				c0.2,0,0.3-0.1,0.3-0.4c0-0.3-0.1-0.4-0.3-0.4h-0.3v0.8H120.8z"/>
		</g>
	</g>
	<g>
		<g>
			<path fill="#FFFFFF" d="M139.8,78.1h-0.4l-0.5-1.9h0.4l0.3,1.3h0l0.3-1.3h0.3l0.3,1.3h0l0.3-1.3h0.4l-0.5,1.9h-0.4l-0.4-1.3h0
				L139.8,78.1z"/>
		</g>
		<g>
			<path fill="#FFFFFF" d="M142.8,78.1h-1.2v-1.9h1.2v0.3h-0.8V77h0.8v0.3h-0.8v0.5h0.8V78.1z"/>
		</g>
		<g>
			<path fill="#FFFFFF" d="M143,78.1v-1.9h0.8c0.3,0,0.6,0.2,0.6,0.5c0,0.2-0.2,0.4-0.3,0.4v0c0.3,0,0.4,0.2,0.4,0.5
				c0,0.3-0.2,0.5-0.6,0.5H143z M143.4,77h0.3c0.2,0,0.3-0.1,0.3-0.2c0-0.1-0.1-0.2-0.3-0.2h-0.3V77z M143.8,77.8
				c0.2,0,0.3-0.1,0.3-0.3c0-0.2-0.1-0.3-0.4-0.3h-0.3v0.5H143.8z"/>
		</g>
	</g>
	<g>
		<g>
			<path fill="#FFFFFF" d="M32.3,63.8v0.7l-3.3,0.9v-0.7l2.4-0.5v0l-2.4-0.6v-0.6l2.4-0.6v0l-2.4-0.5V61l3.3,0.9v0.7L30,63.2v0
				L32.3,63.8z"/>
		</g>
		<g>
			<path fill="#FFFFFF" d="M32.3,58.4v2.2h-3.3v-2.2h0.6V60h0.8v-1.4h0.5V60h0.8v-1.5H32.3z"/>
		</g>
		<g>
			<path fill="#FFFFFF" d="M32.3,57.9h-3.3v-1.5c0-0.6,0.3-1,0.8-1c0.4,0,0.7,0.3,0.7,0.6h0c0-0.5,0.4-0.8,0.8-0.8
				c0.6,0,1,0.4,1,1.1V57.9z M30.3,57.2v-0.5c0-0.4-0.2-0.6-0.4-0.6c-0.3,0-0.4,0.2-0.4,0.5v0.6H30.3z M31.7,56.6
				c0-0.4-0.2-0.6-0.5-0.6c-0.3,0-0.5,0.2-0.5,0.6v0.6h1V56.6z"/>
		</g>
	</g>
	<g>
		<g>
			<path fill="#FFFFFF" d="M74.7,76.1v-1.2h0l-0.5,1.2H74l-0.5-1.2h0v1.2h-0.2v-1.6h0.2l0.6,1.3h0l0.6-1.3h0.2v1.6H74.7z"/>
		</g>
		<g>
			<path fill="#FFFFFF" d="M75.2,75.5c0-0.4,0.2-0.6,0.6-0.6c0.3,0,0.6,0.2,0.6,0.6c0,0.4-0.2,0.6-0.6,0.6
				C75.4,76.2,75.2,75.9,75.2,75.5z M76.1,75.5c0-0.3-0.1-0.5-0.4-0.5c-0.2,0-0.4,0.2-0.4,0.5c0,0.3,0.1,0.4,0.4,0.4
				C76,76,76.1,75.8,76.1,75.5z"/>
		</g>
		<g>
			<path fill="#FFFFFF" d="M76.8,75.9L76.8,75.9l0,0.2h-0.2v-1.7h0.2v0.7h0c0.1-0.1,0.2-0.2,0.4-0.2c0.3,0,0.5,0.2,0.5,0.6
				c0,0.4-0.2,0.6-0.5,0.6C77,76.2,76.9,76.1,76.8,75.9z M76.8,75.5c0,0.3,0.1,0.4,0.4,0.4c0.2,0,0.4-0.2,0.4-0.4
				c0-0.3-0.1-0.5-0.4-0.5C76.9,75.1,76.8,75.3,76.8,75.5z"/>
		</g>
		<g>
			<path fill="#FFFFFF" d="M78,74.5c0-0.1,0.1-0.1,0.1-0.1c0.1,0,0.1,0.1,0.1,0.1c0,0.1-0.1,0.1-0.1,0.1C78,74.7,78,74.6,78,74.5z
				 M78,74.9h0.2v1.2H78V74.9z"/>
		</g>
		<g>
			<path fill="#FFFFFF" d="M78.6,74.4h0.2v1.7h-0.2V74.4z"/>
		</g>
		<g>
			<path fill="#FFFFFF" d="M80.1,75.8c-0.1,0.2-0.2,0.3-0.5,0.3c-0.3,0-0.5-0.2-0.5-0.6c0-0.4,0.2-0.6,0.5-0.6
				c0.3,0,0.5,0.2,0.5,0.6v0.1h-0.9v0c0,0.2,0.1,0.4,0.3,0.4c0.2,0,0.3-0.1,0.3-0.2H80.1z M79.3,75.4H80c0-0.2-0.1-0.4-0.3-0.4
				C79.4,75.1,79.3,75.2,79.3,75.4z"/>
		</g>
	</g>
	<g>
		<g>
			<path fill="#FFFFFF" d="M41.9,69.7h-1.4l-0.3,1h-0.5l1.3-3.5h0.4l1.3,3.5h-0.5L41.9,69.7z M40.6,69.3h1.1l-0.5-1.6h0L40.6,69.3z"
				/>
		</g>
		<g>
			<path fill="#FFFFFF" d="M43.3,68.1h0.4v0.4h0c0.1-0.3,0.4-0.5,0.8-0.5c0.6,0,0.9,0.3,0.9,1v1.7H45v-1.6c0-0.5-0.2-0.7-0.6-0.7
				c-0.4,0-0.7,0.3-0.7,0.7v1.5h-0.4V68.1z"/>
		</g>
		<g>
			<path fill="#FFFFFF" d="M46,69.9c0-0.5,0.3-0.7,0.9-0.8l0.7,0v-0.2c0-0.3-0.2-0.5-0.6-0.5c-0.3,0-0.5,0.1-0.6,0.3h-0.4
				c0.1-0.4,0.5-0.7,1-0.7c0.6,0,1,0.3,1,0.9v1.8h-0.4v-0.4h0c-0.2,0.3-0.5,0.4-0.8,0.4C46.4,70.7,46,70.4,46,69.9z M47.7,69.7v-0.2
				l-0.7,0c-0.4,0-0.6,0.2-0.6,0.4c0,0.3,0.2,0.4,0.5,0.4C47.4,70.3,47.7,70.1,47.7,69.7z"/>
		</g>
		<g>
			<path fill="#FFFFFF" d="M48.9,67h0.4v3.6h-0.4V67z"/>
		</g>
		<g>
			<path fill="#FFFFFF" d="M50.1,71.6v-0.4c0.1,0,0.1,0,0.2,0c0.2,0,0.4-0.1,0.5-0.4l0-0.2l-1-2.6h0.4l0.7,2.1h0l0.7-2.1h0.4l-1,2.8
				c-0.2,0.6-0.4,0.8-0.9,0.8C50.3,71.6,50.2,71.6,50.1,71.6z"/>
		</g>
		<g>
			<path fill="#FFFFFF" d="M53.6,68c0.5,0,0.9,0.3,1,0.7h-0.4c-0.1-0.2-0.3-0.3-0.6-0.3c-0.3,0-0.6,0.2-0.6,0.4
				c0,0.2,0.1,0.3,0.5,0.4l0.4,0.1c0.5,0.1,0.7,0.3,0.7,0.7c0,0.5-0.4,0.8-1,0.8c-0.6,0-1-0.3-1-0.7H53c0.1,0.2,0.3,0.4,0.6,0.4
				c0.3,0,0.6-0.2,0.6-0.4c0-0.2-0.1-0.3-0.4-0.4l-0.4-0.1c-0.5-0.1-0.7-0.3-0.7-0.7C52.6,68.3,53.1,68,53.6,68z"/>
		</g>
		<g>
			<path fill="#FFFFFF" d="M55.2,67.2c0-0.2,0.1-0.3,0.3-0.3c0.2,0,0.3,0.1,0.3,0.3c0,0.2-0.1,0.3-0.3,0.3
				C55.3,67.5,55.2,67.4,55.2,67.2z M55.3,68.1h0.4v2.6h-0.4V68.1z"/>
		</g>
		<g>
			<path fill="#FFFFFF" d="M57.4,68c0.5,0,0.9,0.3,1,0.7H58c-0.1-0.2-0.3-0.3-0.6-0.3c-0.3,0-0.5,0.2-0.5,0.4c0,0.2,0.1,0.3,0.4,0.4
				l0.4,0.1c0.5,0.1,0.7,0.3,0.7,0.7c0,0.5-0.5,0.8-1,0.8c-0.6,0-1-0.3-1-0.7h0.4c0.1,0.2,0.3,0.4,0.6,0.4c0.3,0,0.6-0.2,0.6-0.4
				c0-0.2-0.1-0.3-0.4-0.4l-0.4-0.1c-0.5-0.1-0.7-0.3-0.7-0.7C56.4,68.3,56.9,68,57.4,68z"/>
		</g>
	</g>
	<g>
		<g>
			<path fill="#FFFFFF" d="M156.3,60.1c0.1,0.3,0.4,0.5,0.9,0.5c0.5,0,0.8-0.2,0.8-0.5c0-0.3-0.2-0.4-0.7-0.5l-0.4-0.1
				c-0.6-0.1-0.9-0.4-0.9-0.8c0-0.5,0.5-0.9,1.2-0.9c0.7,0,1.2,0.4,1.2,0.9h-0.4c-0.1-0.3-0.4-0.5-0.8-0.5c-0.5,0-0.8,0.2-0.8,0.5
				c0,0.2,0.2,0.4,0.7,0.5l0.4,0.1c0.7,0.2,1,0.4,1,0.9c0,0.6-0.5,0.9-1.3,0.9c-0.7,0-1.3-0.4-1.3-0.9H156.3z"/>
		</g>
		<g>
			<path fill="#FFFFFF" d="M160.8,59.3c-0.1-0.2-0.3-0.4-0.7-0.4c-0.5,0-0.8,0.3-0.8,0.9c0,0.5,0.3,0.9,0.8,0.9
				c0.4,0,0.6-0.1,0.7-0.4h0.4c-0.1,0.4-0.5,0.7-1.1,0.7c-0.7,0-1.2-0.5-1.2-1.2c0-0.7,0.5-1.2,1.2-1.2c0.6,0,1,0.3,1.1,0.8H160.8z"
				/>
		</g>
		<g>
			<path fill="#FFFFFF" d="M161.9,58.6h0.4V59h0c0.1-0.2,0.4-0.4,0.7-0.4c0.1,0,0.2,0,0.2,0V59c0,0-0.2,0-0.3,0
				c-0.4,0-0.7,0.2-0.7,0.6v1.4h-0.4V58.6z"/>
		</g>
		<g>
			<path fill="#FFFFFF" d="M165.9,60.9h-0.4v-0.4h0c-0.1,0.3-0.4,0.4-0.8,0.4c-0.6,0-0.9-0.3-0.9-0.9v-1.5h0.4V60
				c0,0.4,0.2,0.6,0.6,0.6c0.5,0,0.7-0.2,0.7-0.7v-1.4h0.4V60.9z"/>
		</g>
		<g>
			<path fill="#FFFFFF" d="M166.7,58.6h0.4V59h0c0.1-0.3,0.4-0.4,0.7-0.4c0.4,0,0.6,0.2,0.7,0.4h0c0.1-0.2,0.4-0.4,0.8-0.4
				c0.5,0,0.8,0.3,0.8,0.8v1.6h-0.4v-1.5c0-0.3-0.2-0.5-0.6-0.5c-0.4,0-0.6,0.2-0.6,0.5v1.5h-0.4v-1.6c0-0.3-0.2-0.5-0.5-0.5
				c-0.3,0-0.6,0.3-0.6,0.6v1.4h-0.4V58.6z"/>
		</g>
	</g>
	<g>
		<g>
			<path fill="#FFFFFF" d="M71.5,65.3c0.6,0,0.9,0.3,0.9,0.8c0,0.5-0.4,0.8-0.9,0.8h-0.8v1.2h-0.1v-2.8H71.5z M70.7,66.9h0.8
				c0.5,0,0.8-0.3,0.8-0.7c0-0.5-0.3-0.7-0.8-0.7h-0.8V66.9z"/>
		</g>
		<g>
			<path fill="#FFFFFF" d="M73,66.1L73,66.1l0.1,0.4h0c0.1-0.3,0.3-0.5,0.6-0.5c0.1,0,0.2,0,0.3,0v0.1c-0.1,0-0.2,0-0.3,0
				c-0.3,0-0.6,0.3-0.6,0.7v1.3H73V66.1z"/>
		</g>
		<g>
			<path fill="#FFFFFF" d="M74.3,67.1c0-0.7,0.4-1.1,0.9-1.1c0.6,0,0.9,0.4,0.9,1.1c0,0.7-0.4,1.1-0.9,1.1
				C74.6,68.2,74.3,67.8,74.3,67.1z M76,67.1c0-0.6-0.3-1-0.9-1c-0.5,0-0.9,0.4-0.9,1c0,0.6,0.3,1,0.9,1C75.7,68.1,76,67.7,76,67.1z
				"/>
		</g>
		<g>
			<path fill="#FFFFFF" d="M76.8,68.5L76.8,68.5c0.2,0.2,0.4,0.4,0.8,0.4c0.5,0,0.8-0.3,0.8-0.7v-0.6h0c-0.1,0.4-0.4,0.6-0.8,0.6
				c-0.5,0-0.9-0.4-0.9-1.1c0-0.6,0.4-1.1,0.9-1.1c0.4,0,0.7,0.3,0.8,0.6h0v-0.6h0.1v2.1c0,0.4-0.4,0.7-0.9,0.7
				C77.1,68.9,76.8,68.8,76.8,68.5z M78.3,67.1c0-0.6-0.3-1-0.8-1c-0.5,0-0.8,0.4-0.8,1c0,0.6,0.3,1,0.8,1
				C78,68.1,78.3,67.7,78.3,67.1z"/>
		</g>
		<g>
			<path fill="#FFFFFF" d="M79.2,66.1L79.2,66.1l0.1,0.4h0c0.1-0.3,0.3-0.5,0.6-0.5c0.1,0,0.2,0,0.3,0v0.1c-0.1,0-0.2,0-0.3,0
				c-0.3,0-0.6,0.3-0.6,0.7v1.3h-0.1V66.1z"/>
		</g>
		<g>
			<path fill="#FFFFFF" d="M80.3,67.6c0-0.4,0.3-0.6,0.7-0.6l0.8-0.1v-0.2c0-0.4-0.2-0.6-0.6-0.6c-0.4,0-0.7,0.2-0.7,0.5h-0.1
				c0.1-0.3,0.4-0.6,0.8-0.6c0.5,0,0.7,0.3,0.7,0.7v1.5h-0.1v-0.5h0c-0.1,0.3-0.4,0.5-0.8,0.5C80.6,68.2,80.3,68,80.3,67.6z
				 M81.9,67.4V67l-0.8,0.1c-0.4,0-0.7,0.2-0.7,0.5c0,0.3,0.3,0.5,0.6,0.5C81.5,68.1,81.9,67.8,81.9,67.4z"/>
		</g>
		<g>
			<path fill="#FFFFFF" d="M82.7,66.1L82.7,66.1l0.1,0.5h0c0.1-0.3,0.3-0.5,0.7-0.5c0.3,0,0.6,0.2,0.6,0.5h0
				c0.1-0.3,0.4-0.5,0.7-0.5c0.4,0,0.7,0.3,0.7,0.7v1.4h-0.1v-1.4c0-0.4-0.2-0.7-0.6-0.7c-0.4,0-0.7,0.3-0.7,0.8v1.3H84v-1.4
				c0-0.4-0.2-0.7-0.6-0.7c-0.4,0-0.7,0.4-0.7,0.8v1.3h-0.1V66.1z"/>
		</g>
		<g>
			<path fill="#FFFFFF" d="M86.1,66.1L86.1,66.1l0.1,0.5h0c0.1-0.3,0.3-0.5,0.7-0.5c0.3,0,0.6,0.2,0.6,0.5h0
				c0.1-0.3,0.4-0.5,0.7-0.5c0.4,0,0.7,0.3,0.7,0.7v1.4h-0.1v-1.4c0-0.4-0.2-0.7-0.6-0.7c-0.4,0-0.7,0.3-0.7,0.8v1.3h-0.1v-1.4
				c0-0.4-0.2-0.7-0.6-0.7c-0.4,0-0.7,0.4-0.7,0.8v1.3h-0.1V66.1z"/>
		</g>
		<g>
			<path fill="#FFFFFF" d="M89.5,65.4C89.5,65.4,89.6,65.3,89.5,65.4c0.1-0.1,0.2-0.1,0.2,0C89.7,65.5,89.7,65.5,89.5,65.4
				C89.6,65.5,89.5,65.5,89.5,65.4z M89.6,66.1L89.6,66.1l0.1,2.1h-0.1V66.1z"/>
		</g>
		<g>
			<path fill="#FFFFFF" d="M90.4,66.1L90.4,66.1l0.1,0.5h0c0.1-0.3,0.4-0.5,0.8-0.5c0.5,0,0.7,0.3,0.7,0.8v1.4h-0.1v-1.4
				c0-0.4-0.2-0.7-0.7-0.7c-0.5,0-0.8,0.3-0.8,0.8v1.3h-0.1V66.1z"/>
		</g>
		<g>
			<path fill="#FFFFFF" d="M92.8,68.5L92.8,68.5c0.2,0.2,0.4,0.4,0.8,0.4c0.5,0,0.8-0.3,0.8-0.7v-0.6h0c-0.1,0.4-0.4,0.6-0.8,0.6
				c-0.5,0-0.9-0.4-0.9-1.1c0-0.6,0.4-1.1,0.9-1.1c0.4,0,0.7,0.3,0.8,0.6h0v-0.6h0.1v2.1c0,0.4-0.4,0.7-0.9,0.7
				C93.1,68.9,92.8,68.8,92.8,68.5z M94.4,67.1c0-0.6-0.3-1-0.8-1c-0.5,0-0.8,0.4-0.8,1c0,0.6,0.3,1,0.8,1
				C94,68.1,94.4,67.7,94.4,67.1z"/>
		</g>
	</g>
	<g>
		<g>
			<path fill="#FFFFFF" d="M144.7,70.8h-3.2v-0.4h3.2V70.8z"/>
		</g>
		<g>
			<path fill="#FFFFFF" d="M144.7,66.9h-2.4v0l2.4,1v0.3l-2.4,1v0h2.4v0.4h-3.2v-0.5l2.6-1.1v0l-2.6-1.1v-0.5h3.2V66.9z"/>
		</g>
		<g>
			<path fill="#FFFFFF" d="M141.5,64.5c0-0.6,0.4-1,1-1c0.6,0,1,0.4,1,1v0.8h1.1v0.4h-3.2V64.5z M143.2,65.3v-0.7
				c0-0.5-0.2-0.7-0.7-0.7c-0.4,0-0.7,0.3-0.7,0.7v0.7H143.2z"/>
		</g>
		<g>
			<path fill="#FFFFFF" d="M144.7,60.9v1.9h-3.2v-0.4h2.8v-1.5H144.7z"/>
		</g>
		<g>
			<path fill="#FFFFFF" d="M144.7,58.3v2h-3.2v-2h0.4v1.6h1v-1.5h0.4v1.5h1.1v-1.6H144.7z"/>
		</g>
		<g>
			<path fill="#FFFFFF" d="M144.7,54.8h-2.4v0l2.4,1v0.3l-2.4,1v0h2.4v0.4h-3.2v-0.5l2.6-1.1v0l-2.6-1.1v-0.5h3.2V54.8z"/>
		</g>
		<g>
			<path fill="#FFFFFF" d="M144.7,51.6v2h-3.2v-2h0.4v1.6h1v-1.5h0.4v1.5h1.1v-1.6H144.7z"/>
		</g>
		<g>
			<path fill="#FFFFFF" d="M144.7,50.9h-3.2v-0.4l2.5-1.7v0h-2.5v-0.4h3.2v0.4l-2.5,1.7v0h2.5V50.9z"/>
		</g>
		<g>
			<path fill="#FFFFFF" d="M144.7,46.7h-2.8v1h-0.4v-2.5h0.4v1h2.8V46.7z"/>
		</g>
		<g>
			<path fill="#FFFFFF" d="M143.8,43.3v1.3l0.9,0.3v0.4l-3.2-1.2v-0.4l3.2-1.2V43L143.8,43.3z M143.5,44.5v-1l-1.4,0.5v0L143.5,44.5
				z"/>
		</g>
		<g>
			<path fill="#FFFFFF" d="M144.7,41.6h-2.8v1h-0.4v-2.5h0.4v1h2.8V41.6z"/>
		</g>
		<g>
			<path fill="#FFFFFF" d="M144.7,39.5h-3.2v-0.4h3.2V39.5z"/>
		</g>
		<g>
			<path fill="#FFFFFF" d="M143.1,35.5c1,0,1.7,0.5,1.7,1.5c0,0.9-0.7,1.5-1.7,1.5c-1,0-1.7-0.6-1.7-1.5
				C141.5,36.1,142.1,35.5,143.1,35.5z M143.1,38c0.8,0,1.3-0.4,1.3-1.1c0-0.7-0.5-1-1.3-1c-0.8,0-1.3,0.4-1.3,1
				C141.8,37.6,142.3,38,143.1,38z"/>
		</g>
		<g>
			<path fill="#FFFFFF" d="M144.7,34.8h-3.2v-0.4l2.5-1.7v0h-2.5v-0.4h3.2v0.4l-2.5,1.7v0h2.5V34.8z"/>
		</g>
	</g>
	<g>
		<g>
			<path fill="#FFFFFF" d="M132.9,74.8V72h0.3v1.4h0l1.1-1.4h0.4l-1,1.2l1.1,1.6h-0.4l-0.9-1.3l-0.3,0.4v1H132.9z"/>
		</g>
		<g>
			<path fill="#FFFFFF" d="M135,74.2c0-0.4,0.2-0.6,0.7-0.6l0.5,0v-0.2c0-0.3-0.1-0.4-0.4-0.4c-0.2,0-0.4,0.1-0.4,0.3h-0.3
				c0-0.3,0.3-0.6,0.7-0.6c0.4,0,0.7,0.3,0.7,0.7v1.4h-0.3v-0.3h0c-0.1,0.2-0.3,0.3-0.6,0.3C135.3,74.8,135,74.6,135,74.2z
				 M136.2,74v-0.2l-0.5,0c-0.3,0-0.4,0.1-0.4,0.3c0,0.2,0.2,0.3,0.4,0.3C136,74.5,136.2,74.3,136.2,74z"/>
		</g>
		<g>
			<path fill="#FFFFFF" d="M137.1,72.7h0.3V73h0c0.1-0.2,0.3-0.4,0.5-0.4c0.4,0,0.6,0.3,0.6,0.8v1.3h-0.3v-1.3
				c0-0.4-0.1-0.6-0.4-0.6c-0.3,0-0.5,0.2-0.5,0.6v1.2h-0.3V72.7z"/>
		</g>
		<g>
			<path fill="#FFFFFF" d="M139.1,74.8V72h0.9c0.4,0,0.7,0.3,0.7,0.7c0,0.3-0.2,0.6-0.4,0.6v0c0.3,0,0.5,0.3,0.5,0.7
				c0,0.5-0.3,0.8-0.8,0.8H139.1z M139.4,73.2h0.5c0.4,0,0.6-0.1,0.6-0.4c0-0.3-0.2-0.4-0.5-0.4h-0.6V73.2z M140,74.5
				c0.4,0,0.6-0.2,0.6-0.5c0-0.3-0.2-0.5-0.6-0.5h-0.6v1H140z"/>
		</g>
		<g>
			<path fill="#FFFFFF" d="M141.3,74.2c0-0.4,0.2-0.6,0.7-0.6l0.5,0v-0.2c0-0.3-0.1-0.4-0.4-0.4c-0.2,0-0.4,0.1-0.4,0.3h-0.3
				c0-0.3,0.3-0.6,0.7-0.6c0.4,0,0.7,0.3,0.7,0.7v1.4h-0.3v-0.3h0c-0.1,0.2-0.3,0.3-0.6,0.3C141.5,74.8,141.3,74.6,141.3,74.2z
				 M142.5,74v-0.2l-0.5,0c-0.3,0-0.4,0.1-0.4,0.3c0,0.2,0.2,0.3,0.4,0.3C142.2,74.5,142.5,74.3,142.5,74z"/>
		</g>
		<g>
			<path fill="#FFFFFF" d="M143.3,72.7h0.3V73h0c0.1-0.2,0.3-0.4,0.5-0.4c0.4,0,0.6,0.3,0.6,0.8v1.3h-0.3v-1.3
				c0-0.4-0.1-0.6-0.4-0.6c-0.3,0-0.5,0.2-0.5,0.6v1.2h-0.3V72.7z"/>
		</g>
	</g>
	<g>
		<g>
			<path fill="#FFFFFF" d="M70.7,64.3c0,0.2,0.2,0.3,0.4,0.3c0.2,0,0.4-0.1,0.4-0.3c0-0.1-0.1-0.2-0.3-0.3L71,63.9
				c-0.3-0.1-0.5-0.2-0.5-0.5c0-0.3,0.2-0.5,0.6-0.5c0.3,0,0.6,0.2,0.6,0.5h-0.2c0-0.2-0.2-0.3-0.4-0.3c-0.2,0-0.4,0.1-0.4,0.3
				c0,0.1,0.1,0.2,0.3,0.3l0.2,0c0.4,0.1,0.5,0.2,0.5,0.5c0,0.3-0.3,0.5-0.6,0.5c-0.4,0-0.6-0.2-0.6-0.5H70.7z"/>
		</g>
		<g>
			<path fill="#FFFFFF" d="M74,64.8v-1.3h0l-0.5,1.3h-0.2l-0.5-1.3h0v1.3h-0.2V63h0.3l0.6,1.4h0l0.6-1.4h0.3v1.7H74z"/>
		</g>
		<g>
			<path fill="#FFFFFF" d="M75.9,64.3h-0.7L75,64.8h-0.2l0.6-1.7h0.2l0.6,1.7h-0.2L75.9,64.3z M75.3,64.1h0.6l-0.3-0.8h0L75.3,64.1z
				"/>
		</g>
		<g>
			<path fill="#FFFFFF" d="M77.1,64.8h-0.2V63h0.7c0.3,0,0.6,0.2,0.6,0.5c0,0.2-0.1,0.4-0.3,0.5l0.4,0.7h-0.3l-0.4-0.7h-0.4V64.8z
				 M77.1,63.9h0.4c0.2,0,0.3-0.1,0.3-0.3c0-0.2-0.1-0.3-0.4-0.3h-0.4V63.9z"/>
		</g>
		<g>
			<path fill="#FFFFFF" d="M79.3,64.8v-1.5h-0.6V63h1.3v0.2h-0.6v1.5H79.3z"/>
		</g>
		<g>
			<path fill="#FFFFFF" d="M81.9,64.3c0,0.2,0.2,0.3,0.4,0.3c0.2,0,0.4-0.1,0.4-0.3c0-0.1-0.1-0.2-0.3-0.3l-0.2-0.1
				c-0.3-0.1-0.5-0.2-0.5-0.5c0-0.3,0.2-0.5,0.6-0.5c0.3,0,0.6,0.2,0.6,0.5h-0.2c0-0.2-0.2-0.3-0.4-0.3c-0.2,0-0.4,0.1-0.4,0.3
				c0,0.1,0.1,0.2,0.3,0.3l0.2,0c0.4,0.1,0.5,0.2,0.5,0.5c0,0.3-0.3,0.5-0.6,0.5c-0.4,0-0.6-0.2-0.6-0.5H81.9z"/>
		</g>
		<g>
			<path fill="#FFFFFF" d="M85.2,63.9c0,0.6-0.3,0.9-0.8,0.9c-0.5,0-0.8-0.4-0.8-0.9c0-0.6,0.3-0.9,0.8-0.9
				C84.9,63,85.2,63.3,85.2,63.9z M83.8,63.9c0,0.4,0.2,0.7,0.6,0.7c0.4,0,0.6-0.3,0.6-0.7c0-0.4-0.2-0.7-0.6-0.7
				S83.8,63.5,83.8,63.9z"/>
		</g>
		<g>
			<path fill="#FFFFFF" d="M86.9,64.8h-1.1V63h0.2v1.5h0.8V64.8z"/>
		</g>
		<g>
			<path fill="#FFFFFF" d="M87.8,64.2c0,0.3,0.2,0.5,0.5,0.5c0.3,0,0.5-0.2,0.5-0.5V63h0.2v1.1c0,0.4-0.3,0.6-0.7,0.6
				c-0.4,0-0.7-0.3-0.7-0.6V63h0.2V64.2z"/>
		</g>
		<g>
			<path fill="#FFFFFF" d="M90.1,64.8v-1.5h-0.6V63h1.3v0.2h-0.6v1.5H90.1z"/>
		</g>
		<g>
			<path fill="#FFFFFF" d="M91.6,64.8V63h0.2v1.7H91.6z"/>
		</g>
		<g>
			<path fill="#FFFFFF" d="M94.1,63.9c0,0.6-0.3,0.9-0.8,0.9c-0.5,0-0.8-0.4-0.8-0.9c0-0.6,0.3-0.9,0.8-0.9
				C93.8,63,94.1,63.3,94.1,63.9z M92.7,63.9c0,0.4,0.2,0.7,0.6,0.7c0.4,0,0.6-0.3,0.6-0.7c0-0.4-0.2-0.7-0.6-0.7
				C92.9,63.2,92.7,63.5,92.7,63.9z"/>
		</g>
		<g>
			<path fill="#FFFFFF" d="M94.8,64.8V63H95l0.9,1.3h0V63h0.2v1.7h-0.2L95,63.4h0v1.3H94.8z"/>
		</g>
		<g>
			<path fill="#FFFFFF" d="M97.1,64.3c0,0.2,0.2,0.3,0.4,0.3c0.2,0,0.4-0.1,0.4-0.3c0-0.1-0.1-0.2-0.3-0.3l-0.2-0.1
				c-0.3-0.1-0.4-0.2-0.4-0.5c0-0.3,0.2-0.5,0.6-0.5c0.3,0,0.6,0.2,0.6,0.5h-0.2c0-0.2-0.2-0.3-0.4-0.3c-0.2,0-0.4,0.1-0.4,0.3
				c0,0.1,0.1,0.2,0.3,0.3l0.2,0c0.4,0.1,0.5,0.2,0.5,0.5c0,0.3-0.3,0.5-0.6,0.5c-0.4,0-0.6-0.2-0.6-0.5H97.1z"/>
		</g>
	</g>
	<g>
		<g>
			<path fill="#FFFFFF" d="M92.2,60.7c0,0.5,0.2,0.7,0.5,0.7c0.3,0,0.5-0.3,0.5-0.8c0-0.4-0.1-0.6-0.4-0.8l-0.3-0.1
				c-0.4-0.2-0.5-0.6-0.5-1.2c0-0.7,0.3-1.3,0.7-1.3c0.4,0,0.7,0.5,0.7,1.2h-0.2c0-0.4-0.2-0.7-0.4-0.7c-0.3,0-0.4,0.3-0.4,0.7
				c0,0.3,0.1,0.5,0.4,0.7l0.2,0.1c0.4,0.2,0.6,0.6,0.6,1.2c0,0.8-0.3,1.3-0.7,1.3c-0.4,0-0.7-0.5-0.7-1.3H92.2z"/>
		</g>
		<g>
			<path fill="#FFFFFF" d="M94.8,61.8h-0.2L94,57.5h0.3l0.4,3.6h0l0.4-3.6h0.2l0.4,3.6h0l0.4-3.6h0.3l-0.5,4.4h-0.2l-0.5-3.5h0
				L94.8,61.8z"/>
		</g>
		<g>
			<path fill="#FFFFFF" d="M97.2,61.8v-4.4h0.2v4.4H97.2z"/>
		</g>
		<g>
			<path fill="#FFFFFF" d="M98.3,61.8v-4.4h1.2v0.5h-0.9v1.5h0.9v0.5h-0.9v1.9H98.3z"/>
		</g>
		<g>
			<path fill="#FFFFFF" d="M100.7,61.8v-3.9h-0.6v-0.5h1.5v0.5H101v3.9H100.7z"/>
		</g>
	</g>
	<g>
		<g>
			<path fill="#FFFFFF" d="M73.5,72.9c0,0.4,0.1,0.6,0.4,0.6c0.2,0,0.4-0.3,0.4-0.9v-3.3h0.3v3.3c0,0.9-0.2,1.4-0.6,1.4
				c-0.4,0-0.6-0.5-0.6-1.2H73.5z"/>
		</g>
		<g>
			<path fill="#FFFFFF" d="M76.7,72.7h-0.9L75.6,74h-0.3l0.8-4.5h0.3l0.8,4.5h-0.3L76.7,72.7z M75.9,72.2h0.7l-0.3-2h0L75.9,72.2z"
				/>
		</g>
		<g>
			<path fill="#FFFFFF" d="M78.4,74l-0.8-4.5h0.3l0.6,3.8h0l0.6-3.8h0.3L78.7,74H78.4z"/>
		</g>
		<g>
			<path fill="#FFFFFF" d="M81.3,72.7h-0.9L80.2,74h-0.3l0.8-4.5H81l0.8,4.5h-0.3L81.3,72.7z M80.5,72.2h0.7l-0.3-2h0L80.5,72.2z"/>
		</g>
	</g>
	<g>
		<g>
			<path fill="#FFFFFF" d="M157.3,63.9h-0.9l-0.2,0.6h-0.5l0.9-2.5h0.6l0.9,2.5h-0.6L157.3,63.9z M156.5,63.5h0.7l-0.3-1h0
				L156.5,63.5z"/>
		</g>
		<g>
			<path fill="#FFFFFF" d="M158.9,64.5V62h0.4l1.1,1.5h0V62h0.5v2.5h-0.4l-1.1-1.6h0v1.6H158.9z"/>
		</g>
		<g>
			<path fill="#FFFFFF" d="M163.5,63.9h-0.9l-0.2,0.6h-0.5l0.9-2.5h0.6l0.9,2.5h-0.6L163.5,63.9z M162.7,63.5h0.7l-0.3-1h0
				L162.7,63.5z"/>
		</g>
		<g>
			<path fill="#FFFFFF" d="M166.8,64.5h-1.6V62h0.5v2h1.1V64.5z"/>
		</g>
		<g>
			<path fill="#FFFFFF" d="M168.1,64.5v-0.9l-0.9-1.6h0.6l0.5,1h0l0.5-1h0.6l-0.9,1.6v0.9H168.1z"/>
		</g>
		<g>
			<path fill="#FFFFFF" d="M170.6,63.8c0,0.2,0.2,0.3,0.5,0.3c0.3,0,0.5-0.1,0.5-0.3c0-0.2-0.1-0.3-0.4-0.3l-0.3-0.1
				c-0.5-0.1-0.7-0.3-0.7-0.7c0-0.5,0.4-0.8,1-0.8c0.5,0,0.9,0.3,1,0.8h-0.5c0-0.2-0.2-0.3-0.5-0.3c-0.3,0-0.4,0.1-0.4,0.3
				c0,0.2,0.1,0.2,0.4,0.3l0.3,0.1c0.5,0.1,0.7,0.3,0.7,0.7c0,0.5-0.4,0.8-1,0.8c-0.6,0-1-0.3-1-0.8H170.6z"/>
		</g>
		<g>
			<path fill="#FFFFFF" d="M173.1,64.5V62h0.5v2.5H173.1z"/>
		</g>
		<g>
			<path fill="#FFFFFF" d="M175.1,63.8c0,0.2,0.2,0.3,0.5,0.3c0.3,0,0.5-0.1,0.5-0.3c0-0.2-0.1-0.3-0.4-0.3l-0.3-0.1
				c-0.5-0.1-0.7-0.3-0.7-0.7c0-0.5,0.4-0.8,1-0.8c0.5,0,0.9,0.3,1,0.8H176c0-0.2-0.2-0.3-0.5-0.3c-0.3,0-0.4,0.1-0.4,0.3
				c0,0.2,0.1,0.2,0.4,0.3l0.3,0.1c0.5,0.1,0.7,0.3,0.7,0.7c0,0.5-0.4,0.8-1,0.8c-0.6,0-1-0.3-1-0.8H175.1z"/>
		</g>
	</g>
	<g>
		<g>
			<path fill="#FFFFFF" d="M72.5,79h-0.9V80h0.9v0.4h-2.1V80h0.8V79h-0.8v-0.4h2.1V79z"/>
		</g>
		<g>
			<path fill="#FFFFFF" d="M72.5,77.6h-1.7v0.6h-0.4v-1.7h0.4v0.6h1.7V77.6z"/>
		</g>
		<g>
			<path fill="#FFFFFF" d="M72.5,74.3h-1.4v0l1.3,0.5v0.3l-1.3,0.5v0h1.4v0.4h-2.1v-0.5l1.4-0.6v0l-1.4-0.6v-0.5h2.1V74.3z"/>
		</g>
		<g>
			<path fill="#FFFFFF" d="M72.5,72.1v1.4h-2.1V73h1.7v-0.9H72.5z"/>
		</g>
		<g>
			<path fill="#FFFFFF" d="M71.9,70.9v-0.4c0.2,0,0.3-0.2,0.3-0.4c0-0.2-0.1-0.4-0.4-0.4c-0.2,0-0.4,0.2-0.4,0.4
				c0,0.2,0.1,0.3,0.2,0.4v0.4l-1.2-0.1v-1.3h0.4v1l0.5,0v0c-0.1-0.1-0.2-0.2-0.2-0.4c0-0.4,0.3-0.7,0.7-0.7c0.4,0,0.7,0.3,0.7,0.8
				C72.6,70.6,72.3,70.9,71.9,70.9z"/>
		</g>
	</g>
	<g>
		<path fill="#FFFFFF" d="M72,52.3h-1.3v-2H72v0.4h-0.9v0.5h0.9v0.3h-0.9V52H72V52.3z"/>
		<path fill="#FFFFFF" d="M72.4,52.3v-2h0.3l0.9,1.2h0v-1.2h0.4v2h-0.3l-0.9-1.3h0v1.3H72.4z"/>
		<path fill="#FFFFFF" d="M75.5,52.4c-0.6,0-1-0.4-1-1.1c0-0.6,0.4-1.1,1-1.1c0.5,0,0.8,0.3,0.9,0.7H76c-0.1-0.2-0.2-0.3-0.5-0.3
			c-0.3,0-0.5,0.3-0.5,0.7c0,0.4,0.2,0.7,0.5,0.7c0.3,0,0.5-0.2,0.5-0.4l0,0h-0.4v-0.3h0.8v0.3C76.4,52,76,52.4,75.5,52.4z"/>
		<path fill="#FFFFFF" d="M76.8,52.3v-2h0.4v2H76.8z"/>
		<path fill="#FFFFFF" d="M77.7,52.3v-2H78l0.9,1.2h0v-1.2h0.4v2H79l-0.9-1.3h0v1.3H77.7z"/>
		<path fill="#FFFFFF" d="M81.2,52.3h-1.3v-2h1.3v0.4h-0.9v0.5h0.9v0.3h-0.9V52h0.9V52.3z"/>
		<path fill="#FFFFFF" d="M83,52.3h-1.3v-2H83v0.4h-0.9v0.5h0.9v0.3h-0.9V52H83V52.3z"/>
		<path fill="#FFFFFF" d="M83.8,52.3h-0.4v-2h0.8c0.4,0,0.7,0.2,0.7,0.6c0,0.3-0.1,0.5-0.4,0.6l0.4,0.8h-0.5l-0.4-0.7h-0.3V52.3z
			 M83.8,51.3h0.4c0.2,0,0.3-0.1,0.3-0.3c0-0.2-0.1-0.3-0.3-0.3h-0.4V51.3z"/>
		<path fill="#FFFFFF" d="M85.4,52.3v-2h0.4v2H85.4z"/>
		<path fill="#FFFFFF" d="M86.3,52.3v-2h0.3l0.9,1.2h0v-1.2H88v2h-0.3l-0.9-1.3h0v1.3H86.3z"/>
		<path fill="#FFFFFF" d="M89.4,52.4c-0.6,0-1-0.4-1-1.1c0-0.6,0.4-1.1,1-1.1c0.5,0,0.8,0.3,0.9,0.7h-0.4c-0.1-0.2-0.2-0.3-0.5-0.3
			c-0.3,0-0.5,0.3-0.5,0.7c0,0.4,0.2,0.7,0.5,0.7c0.3,0,0.5-0.2,0.5-0.4l0,0h-0.4v-0.3h0.8v0.3C90.3,52,89.9,52.4,89.4,52.4z"/>
	</g>
	<g>
		<path fill="#FFFFFF" d="M38.4,75.3v-3.1h1.3c0.6,0,1,0.3,1,0.8c0,0.3-0.2,0.6-0.6,0.7v0c0.4,0,0.7,0.3,0.7,0.7
			c0,0.5-0.4,0.9-1.1,0.9H38.4z M39.1,73.5h0.5c0.3,0,0.5-0.1,0.5-0.4c0-0.2-0.2-0.4-0.5-0.4h-0.5V73.5z M39.7,74.8
			c0.4,0,0.6-0.2,0.6-0.4c0-0.3-0.2-0.4-0.6-0.4h-0.6v0.9H39.7z"/>
		<path fill="#FFFFFF" d="M41.5,75.3v-3.1h0.6v3.1H41.5z"/>
		<path fill="#FFFFFF" d="M44.2,75.3c-0.9,0-1.5-0.6-1.5-1.6c0-1,0.6-1.6,1.5-1.6c0.7,0,1.3,0.4,1.4,1.1h-0.6
			c-0.1-0.3-0.4-0.5-0.7-0.5c-0.5,0-0.8,0.4-0.8,1c0,0.7,0.3,1.1,0.8,1.1c0.4,0,0.7-0.3,0.7-0.6l0-0.1h-0.7v-0.5h1.3V74
			C45.6,74.8,45.1,75.3,44.2,75.3z"/>
		<path fill="#FFFFFF" d="M48.6,72.2c0.9,0,1.4,0.6,1.4,1.5c0,1-0.5,1.6-1.4,1.6h-1.2v-3.1H48.6z M48,74.7h0.5c0.6,0,0.9-0.4,0.9-1
			c0-0.6-0.3-1-0.9-1H48V74.7z"/>
		<path fill="#FFFFFF" d="M52.2,74.5h-1.1l-0.2,0.7h-0.6l1.1-3.1h0.8l1.1,3.1h-0.7L52.2,74.5z M51.3,74h0.8l-0.4-1.2h0L51.3,74z"/>
		<path fill="#FFFFFF" d="M54.1,75.3v-2.5h-0.9v-0.6h2.5v0.6h-0.9v2.5H54.1z"/>
		<path fill="#FFFFFF" d="M57.7,74.5h-1.1l-0.2,0.7h-0.6l1.1-3.1h0.8l1.1,3.1h-0.7L57.7,74.5z M56.8,74h0.8l-0.4-1.2h0L56.8,74z"/>
	</g>
	<g>
		<path fill="#FFFFFF" d="M117.6,54.4c0.3,0,0.5,0.3,0.5,0.8c0,0.5-0.2,0.8-0.6,0.8h-0.3v0.7H117v-2.3H117.6z M117.3,55.6h0.2
			c0.2,0,0.3-0.1,0.3-0.4c0-0.3-0.1-0.4-0.3-0.4h-0.2V55.6z"/>
		<path fill="#FFFFFF" d="M119.5,56.7v-1h-0.7v1h-0.3v-2.3h0.3v0.9h0.7v-0.9h0.3v2.3H119.5z"/>
		<path fill="#FFFFFF" d="M120.9,54.4c0.3,0,0.5,0.3,0.5,0.8c0,0.5-0.2,0.8-0.6,0.8h-0.3v0.7h-0.3v-2.3H120.9z M120.6,55.6h0.2
			c0.2,0,0.3-0.1,0.3-0.4c0-0.3-0.1-0.4-0.3-0.4h-0.2V55.6z"/>
	</g>
	<g>
		<path fill="#FFFFFF" d="M164.7,81.5h-2.4v-1.1c0-0.5,0.2-0.8,0.6-0.8c0.3,0,0.5,0.2,0.5,0.4h0c0-0.3,0.3-0.6,0.6-0.6
			c0.4,0,0.7,0.3,0.7,0.8V81.5z M163.3,81v-0.4c0-0.3-0.1-0.4-0.3-0.4c-0.2,0-0.3,0.1-0.3,0.4V81H163.3z M164.3,80.6
			c0-0.3-0.1-0.5-0.3-0.5c-0.2,0-0.3,0.2-0.3,0.5V81h0.7V80.6z"/>
		<path fill="#FFFFFF" d="M164.7,79.1h-2.4v-0.5h2.4V79.1z"/>
		<path fill="#FFFFFF" d="M164.8,77c0,0.7-0.5,1.2-1.3,1.2c-0.8,0-1.3-0.4-1.3-1.1c0-0.6,0.3-1,0.8-1.1v0.5
			c-0.2,0.1-0.4,0.3-0.4,0.6c0,0.4,0.3,0.6,0.8,0.6c0.5,0,0.8-0.3,0.8-0.7c0-0.3-0.2-0.6-0.5-0.6l0,0v0.5h-0.4v-1h0.3
			C164.4,75.9,164.8,76.3,164.8,77z"/>
		<path fill="#FFFFFF" d="M162.3,73.6c0-0.7,0.4-1.1,1.2-1.1c0.8,0,1.2,0.4,1.2,1.1v1h-2.4V73.6z M164.3,74v-0.4
			c0-0.4-0.3-0.7-0.8-0.7c-0.5,0-0.8,0.3-0.8,0.7V74H164.3z"/>
		<path fill="#FFFFFF" d="M164.1,70.7v0.9l0.6,0.2v0.5l-2.4-0.8v-0.6l2.4-0.8v0.5L164.1,70.7z M163.8,71.4v-0.6l-1,0.3v0L163.8,71.4
			z"/>
		<path fill="#FFFFFF" d="M164.7,69.2h-2v0.7h-0.4v-2h0.4v0.7h2V69.2z"/>
		<path fill="#FFFFFF" d="M164.1,66.4v0.9l0.6,0.2v0.5l-2.4-0.8v-0.6l2.4-0.8v0.5L164.1,66.4z M163.8,67.1v-0.6l-1,0.3v0L163.8,67.1
			z"/>
	</g>
	<g>
		<g>
			<path fill="#FFFFFF" d="M70.9,48.1c0,0.3,0.1,0.5,0.4,0.5c0.2,0,0.4-0.2,0.4-0.7v-2.5h0.3V48c0,0.7-0.2,1-0.6,1
				c-0.4,0-0.6-0.4-0.6-0.9H70.9z"/>
		</g>
		<g>
			<path fill="#FFFFFF" d="M74,48h-0.9l-0.2,1h-0.3l0.8-3.5h0.3l0.8,3.5h-0.3L74,48z M73.2,47.6h0.7l-0.3-1.5h0L73.2,47.6z"/>
		</g>
		<g>
			<path fill="#FFFFFF" d="M75.7,49l-0.8-3.5h0.3l0.6,2.9h0l0.6-2.9h0.3L76,49H75.7z"/>
		</g>
		<g>
			<path fill="#FFFFFF" d="M78.6,48h-0.9l-0.2,1h-0.3l0.8-3.5h0.3l0.8,3.5h-0.3L78.6,48z M77.8,47.6h0.7l-0.3-1.5h0L77.8,47.6z"/>
		</g>
	</g>
	<g>
		<g>
			<path fill="#FFFFFF" d="M29.9,53.1c0,0.3,0.2,0.5,0.4,0.5c0.3,0,0.4-0.2,0.4-0.7v-2.5h0.3V53c0,0.7-0.3,1-0.8,1
				c-0.4,0-0.8-0.4-0.8-0.9H29.9z"/>
		</g>
		<g>
			<path fill="#FFFFFF" d="M33.7,53h-1.1l-0.3,1H32l1-3.5h0.3l1,3.5H34L33.7,53z M32.7,52.6h0.9l-0.4-1.5h0L32.7,52.6z"/>
		</g>
		<g>
			<path fill="#FFFFFF" d="M35.8,54l-1-3.5h0.3l0.8,2.9h0l0.8-2.9h0.3l-1,3.5H35.8z"/>
		</g>
		<g>
			<path fill="#FFFFFF" d="M39.3,53h-1.1L38,54h-0.3l1-3.5H39l1,3.5h-0.3L39.3,53z M38.4,52.6h0.9l-0.4-1.5h0L38.4,52.6z"/>
		</g>
	</g>
	<g>
		<path fill="#FFFFFF" d="M165,43.8h-1.8l-0.4,1.3h-0.6l1.6-4.4h0.5l1.6,4.4h-0.6L165,43.8z M163.3,43.3h1.4l-0.7-2h0L163.3,43.3z"
			/>
		<path fill="#FFFFFF" d="M166.5,45.4h0.6c0.1,0.3,0.4,0.4,0.8,0.4c0.6,0,0.9-0.3,0.9-0.8v-0.6h0c-0.2,0.4-0.6,0.6-1,0.6
			c-0.9,0-1.4-0.7-1.4-1.6c0-1,0.5-1.7,1.4-1.7c0.5,0,0.9,0.2,1.1,0.6h0v-0.5h0.5v3.3c0,0.7-0.6,1.2-1.5,1.2
			C167.1,46.3,166.6,46,166.5,45.4z M168.8,43.4c0-0.7-0.4-1.2-1-1.2c-0.6,0-1,0.5-1,1.2c0,0.7,0.3,1.2,1,1.2
			C168.5,44.5,168.8,44.1,168.8,43.4z"/>
		<path fill="#FFFFFF" d="M170.2,40.7c0-0.2,0.2-0.4,0.4-0.4c0.2,0,0.4,0.2,0.4,0.4c0,0.2-0.2,0.4-0.4,0.4
			C170.4,41.1,170.2,40.9,170.2,40.7z M170.3,41.8h0.5v3.3h-0.5V41.8z"/>
		<path fill="#FFFFFF" d="M171.9,40.5h0.5v4.6h-0.5V40.5z"/>
		<path fill="#FFFFFF" d="M176.2,44.2c-0.2,0.6-0.7,0.9-1.4,0.9c-0.9,0-1.5-0.7-1.5-1.7c0-1,0.6-1.7,1.5-1.7c0.9,0,1.4,0.6,1.4,1.7
			v0.2h-2.4v0c0,0.6,0.4,1.1,1,1.1c0.4,0,0.7-0.2,0.9-0.4H176.2z M173.9,43.1h1.8c0-0.6-0.4-1-0.9-1
			C174.3,42.2,173.9,42.6,173.9,43.1z"/>
	</g>
	<g>
		<path fill="#FFFFFF" d="M165.5,67.5c0-1.2,0.7-1.9,1.8-1.9c0.9,0,1.6,0.6,1.7,1.5h-0.9c0-0.4-0.4-0.7-0.8-0.7
			c-0.5,0-0.8,0.4-0.8,1.2c0,0.7,0.3,1.2,0.8,1.2c0.4,0,0.7-0.3,0.8-0.7h0.9c0,0.8-0.7,1.4-1.7,1.4
			C166.2,69.5,165.5,68.7,165.5,67.5z"/>
		<path fill="#FFFFFF" d="M170.6,69.4h-0.9v-3.7h1.6c0.9,0,1.4,0.5,1.4,1.2c0,0.5-0.2,0.9-0.6,1l0.7,1.4h-1.1l-0.6-1.3h-0.5V69.4z
			 M170.6,67.4h0.6c0.3,0,0.6-0.2,0.6-0.5c0-0.3-0.2-0.5-0.6-0.5h-0.6V67.4z"/>
		<path fill="#FFFFFF" d="M176.6,69.4V67h0l-0.8,2.1h-0.6l-0.8-2.1h0v2.3h-0.9v-3.7h1.1l0.9,2.3h0l0.9-2.3h1.1v3.7H176.6z"/>
	</g>
	<g>
		<path fill="#FFFFFF" d="M167.1,70.3c0.7,0,1.3,0.6,1.3,1.5c0,0.9-0.5,1.5-1.3,1.5h-0.9v1.5h-0.6v-4.4H167.1z M166.2,72.7h0.7
			c0.5,0,0.8-0.3,0.8-0.9c0-0.6-0.3-0.9-0.8-0.9h-0.7V72.7z"/>
		<path fill="#FFFFFF" d="M171.7,74.8v-1.9h-2v1.9h-0.6v-4.4h0.6v1.9h2v-1.9h0.6v4.4H171.7z"/>
		<path fill="#FFFFFF" d="M174.8,70.3c0.7,0,1.3,0.6,1.3,1.5c0,0.9-0.5,1.5-1.3,1.5h-0.9v1.5h-0.6v-4.4H174.8z M173.9,72.7h0.7
			c0.5,0,0.8-0.3,0.8-0.9c0-0.6-0.3-0.9-0.8-0.9h-0.7V72.7z"/>
	</g>
	<g>
		<path fill="#FFFFFF" d="M80,48.3c0-0.4,0.3-0.6,0.8-0.6c0.5,0,0.8,0.3,0.8,0.7v0.3h0.7v0.4H80V48.3z M81.2,48.6v-0.2
			c0-0.2-0.1-0.3-0.4-0.3c-0.2,0-0.4,0.1-0.4,0.3v0.2H81.2z"/>
		<path fill="#FFFFFF" d="M82.3,46.2h-0.9v0.7h0.9v0.4H80v-0.4h0.9v-0.7H80v-0.4h2.3V46.2z"/>
		<path fill="#FFFFFF" d="M80,44.6c0-0.4,0.3-0.6,0.8-0.6c0.5,0,0.8,0.3,0.8,0.7v0.3h0.7v0.4H80V44.6z M81.2,44.9v-0.2
			c0-0.2-0.1-0.3-0.4-0.3c-0.2,0-0.4,0.1-0.4,0.3v0.2H81.2z"/>
	</g>
	<g>
		<g>
			<path fill="#FFFFFF" d="M131.4,42.8v-2.1h0l-0.9,2.1h-0.3l-0.9-2.1h0v2.1H129v-2.7h0.4l0.9,2.3h0l0.9-2.3h0.4v2.7H131.4z"/>
		</g>
		<g>
			<path fill="#FFFFFF" d="M132.2,41.8c0-0.7,0.4-1.1,0.9-1.1c0.6,0,0.9,0.4,0.9,1.1c0,0.7-0.4,1.1-0.9,1.1
				C132.6,42.8,132.2,42.4,132.2,41.8z M133.8,41.8c0-0.5-0.2-0.8-0.6-0.8c-0.4,0-0.6,0.3-0.6,0.8c0,0.5,0.2,0.8,0.6,0.8
				C133.6,42.5,133.8,42.3,133.8,41.8z"/>
		</g>
		<g>
			<path fill="#FFFFFF" d="M135,42.5L135,42.5l0,0.3h-0.3v-2.9h0.3v1.1h0c0.1-0.2,0.4-0.4,0.6-0.4c0.5,0,0.9,0.4,0.9,1.1
				c0,0.6-0.3,1.1-0.9,1.1C135.4,42.8,135.1,42.7,135,42.5z M135,41.8c0,0.5,0.2,0.8,0.6,0.8c0.4,0,0.6-0.3,0.6-0.8
				c0-0.5-0.2-0.8-0.6-0.8C135.2,41,135,41.3,135,41.8z"/>
		</g>
		<g>
			<path fill="#FFFFFF" d="M137,40.1c0-0.1,0.1-0.2,0.2-0.2c0.1,0,0.2,0.1,0.2,0.2c0,0.1-0.1,0.2-0.2,0.2
				C137.1,40.3,137,40.2,137,40.1z M137,40.7h0.3v2H137V40.7z"/>
		</g>
		<g>
			<path fill="#FFFFFF" d="M138,39.9h0.3v2.9H138V39.9z"/>
		</g>
		<g>
			<path fill="#FFFFFF" d="M140.6,42.3c-0.1,0.4-0.4,0.6-0.9,0.6c-0.6,0-0.9-0.4-0.9-1.1c0-0.6,0.4-1.1,0.9-1.1c0.6,0,0.9,0.4,0.9,1
				v0.1h-1.5v0c0,0.4,0.2,0.7,0.6,0.7c0.3,0,0.4-0.1,0.5-0.3H140.6z M139.2,41.6h1.1c0-0.4-0.2-0.6-0.5-0.6
				C139.4,41,139.2,41.2,139.2,41.6z"/>
		</g>
	</g>
	<g>
		<path fill="#FFFFFF" d="M129.1,45.6c0,0.1,0.1,0.2,0.3,0.2c0.2,0,0.3-0.1,0.3-0.2c0-0.1-0.1-0.2-0.3-0.2l-0.2,0
			c-0.3-0.1-0.5-0.2-0.5-0.5c0-0.4,0.3-0.6,0.7-0.6c0.4,0,0.7,0.2,0.7,0.6h-0.4c0-0.1-0.1-0.2-0.3-0.2c-0.2,0-0.3,0.1-0.3,0.2
			c0,0.1,0.1,0.2,0.3,0.2l0.2,0c0.4,0.1,0.5,0.2,0.5,0.5c0,0.4-0.3,0.6-0.8,0.6c-0.5,0-0.8-0.2-0.8-0.6H129.1z"/>
		<path fill="#FFFFFF" d="M130.4,45.4c0-0.5,0.3-0.7,0.7-0.7c0.4,0,0.7,0.3,0.7,0.7c0,0.5-0.3,0.7-0.7,0.7
			C130.7,46.1,130.4,45.9,130.4,45.4z M131.4,45.4c0-0.2-0.1-0.4-0.3-0.4c-0.2,0-0.3,0.1-0.3,0.4c0,0.3,0.1,0.4,0.3,0.4
			C131.3,45.8,131.4,45.6,131.4,45.4z"/>
		<path fill="#FFFFFF" d="M132.3,45H132v-0.3h0.2v-0.1c0-0.3,0.2-0.4,0.5-0.4c0.1,0,0.1,0,0.2,0v0.3c0,0-0.1,0-0.1,0
			c-0.1,0-0.2,0-0.2,0.1v0.1h0.3V45h-0.3v1.1h-0.4V45z"/>
		<path fill="#FFFFFF" d="M133.9,44.4v0.3h0.3V45h-0.3v0.6c0,0.1,0.1,0.2,0.2,0.2c0.1,0,0.1,0,0.1,0v0.3c0,0-0.1,0-0.2,0
			c-0.4,0-0.5-0.1-0.5-0.4V45h-0.2v-0.3h0.2v-0.3H133.9z"/>
		<path fill="#FFFFFF" d="M136.1,46.1h-0.5l-0.2-0.9h0l-0.2,0.9h-0.5l-0.4-1.4h0.5l0.2,1h0l0.2-1h0.4l0.2,1h0l0.2-1h0.4L136.1,46.1z
			"/>
		<path fill="#FFFFFF" d="M136.6,45.7c0-0.3,0.2-0.4,0.6-0.4l0.3,0v-0.1c0-0.1-0.1-0.2-0.2-0.2c-0.1,0-0.2,0-0.2,0.1h-0.4
			c0-0.3,0.3-0.4,0.7-0.4c0.4,0,0.6,0.2,0.6,0.5v1h-0.4v-0.2h0c-0.1,0.1-0.2,0.2-0.4,0.2C136.8,46.1,136.6,46,136.6,45.7z
			 M137.5,45.6L137.5,45.6l-0.2-0.1c-0.1,0-0.2,0.1-0.2,0.1c0,0.1,0.1,0.1,0.2,0.1C137.4,45.8,137.5,45.7,137.5,45.6z"/>
		<path fill="#FFFFFF" d="M138.3,44.7h0.4v0.2h0c0-0.1,0.2-0.3,0.3-0.3c0.1,0,0.1,0,0.2,0v0.4c0,0-0.1,0-0.2,0
			c-0.2,0-0.3,0.1-0.3,0.3v0.7h-0.4V44.7z"/>
		<path fill="#FFFFFF" d="M140.8,45.7c0,0.3-0.3,0.4-0.7,0.4c-0.4,0-0.7-0.3-0.7-0.7c0-0.5,0.3-0.7,0.7-0.7c0.4,0,0.7,0.3,0.7,0.7
			v0.1h-0.9v0c0,0.2,0.1,0.3,0.3,0.3c0.1,0,0.2,0,0.3-0.1H140.8z M139.8,45.2h0.5c0-0.2-0.1-0.3-0.3-0.3
			C140,45,139.9,45.1,139.8,45.2z"/>
	</g>
	<g>
		<path fill="#FFFFFF" d="M113.1,57.3c0-0.2,0.2-0.4,0.5-0.4c0.3,0,0.5,0.1,0.5,0.4c0,0.2-0.2,0.4-0.5,0.4
			C113.3,57.7,113.1,57.6,113.1,57.3z M113.2,58h0.9v2.6h-0.9V58z"/>
		<path fill="#FFFFFF" d="M118,58.9c0,1.1-0.7,1.8-1.7,1.8c-1.1,0-1.7-0.7-1.7-1.8c0-1.1,0.7-1.8,1.7-1.8
			C117.4,57.1,118,57.8,118,58.9z M115.5,58.9c0,0.6,0.3,1.1,0.8,1.1c0.5,0,0.8-0.4,0.8-1.1c0-0.6-0.3-1.1-0.8-1.1
			C115.8,57.9,115.5,58.3,115.5,58.9z"/>
		<path fill="#FFFFFF" d="M119.4,59.6c0,0.2,0.3,0.4,0.6,0.4c0.3,0,0.6-0.2,0.6-0.4c0-0.2-0.2-0.3-0.5-0.4l-0.5-0.1
			c-0.6-0.1-1-0.5-1-1c0-0.7,0.5-1.1,1.4-1.1c0.8,0,1.4,0.4,1.4,1h-0.8c0-0.2-0.3-0.4-0.6-0.4c-0.3,0-0.5,0.1-0.5,0.4
			c0,0.2,0.2,0.3,0.5,0.4l0.4,0.1c0.7,0.1,1,0.4,1,1c0,0.7-0.6,1.1-1.5,1.1c-0.9,0-1.4-0.4-1.4-1H119.4z"/>
	</g>
	<g>
		<path fill="#FFFFFF" d="M52.4,80.2c0-0.2,0.1-0.3,0.4-0.3c0.2,0,0.4,0.1,0.4,0.3c0,0.2-0.1,0.3-0.4,0.3
			C52.6,80.5,52.4,80.4,52.4,80.2z M52.5,80.8h0.7v2.1h-0.7V80.8z"/>
		<path fill="#FFFFFF" d="M56.2,81.5c0,0.9-0.5,1.4-1.3,1.4c-0.8,0-1.3-0.5-1.3-1.4c0-0.9,0.5-1.4,1.3-1.4
			C55.7,80.1,56.2,80.6,56.2,81.5z M54.3,81.5c0,0.5,0.2,0.9,0.6,0.9c0.4,0,0.6-0.3,0.6-0.9c0-0.5-0.3-0.9-0.6-0.9
			C54.5,80.6,54.3,81,54.3,81.5z"/>
		<path fill="#FFFFFF" d="M57.3,82.1c0,0.2,0.2,0.3,0.5,0.3c0.3,0,0.4-0.1,0.4-0.3c0-0.1-0.1-0.2-0.4-0.3l-0.4-0.1
			c-0.5-0.1-0.7-0.4-0.7-0.8c0-0.5,0.4-0.9,1.1-0.9c0.6,0,1.1,0.3,1.1,0.8h-0.6c0-0.2-0.2-0.3-0.4-0.3c-0.2,0-0.4,0.1-0.4,0.3
			c0,0.1,0.1,0.2,0.4,0.3l0.3,0.1c0.5,0.1,0.8,0.3,0.8,0.8c0,0.6-0.4,0.9-1.1,0.9c-0.7,0-1.1-0.3-1.1-0.8H57.3z"/>
	</g>
	<g>
		<path fill="#FFFFFF" d="M70.6,43c0-1,0.5-1.6,1.4-1.6c0.7,0,1.2,0.5,1.3,1.2h-0.7c0-0.3-0.3-0.6-0.6-0.6c-0.4,0-0.6,0.4-0.6,1
			c0,0.6,0.2,1,0.6,1c0.3,0,0.5-0.2,0.6-0.5h0.7c0,0.7-0.5,1.2-1.3,1.2C71.1,44.6,70.6,44,70.6,43z"/>
		<path fill="#FFFFFF" d="M75.1,44.5h-0.6v-0.8h-0.8V43h0.8v-0.8h0.6V43h0.8v0.6h-0.8V44.5z"/>
		<path fill="#FFFFFF" d="M78,44.5h-0.6v-0.8h-0.8V43h0.8v-0.8H78V43h0.8v0.6H78V44.5z"/>
	</g>
	<g>
		<path fill="#FFFFFF" d="M43.5,65.6c0,0.4,0.4,0.6,0.9,0.6c0.5,0,0.8-0.3,0.8-0.6c0-0.3-0.2-0.5-0.7-0.6l-0.4-0.1
			c-0.6-0.1-0.8-0.4-0.8-0.8c0-0.5,0.4-0.9,1.1-0.9c0.6,0,1,0.3,1.1,0.8h-0.3c0-0.3-0.3-0.6-0.8-0.6c-0.4,0-0.7,0.2-0.7,0.6
			c0,0.3,0.2,0.4,0.7,0.5l0.3,0.1c0.6,0.2,0.9,0.4,0.9,0.8c0,0.5-0.4,0.9-1.1,0.9c-0.6,0-1.1-0.4-1.1-0.9H43.5z"/>
		<path fill="#FFFFFF" d="M45.9,64.9c0-1,0.5-1.6,1.4-1.6c0.6,0,1.1,0.4,1.2,1h-0.3c-0.1-0.4-0.5-0.7-0.9-0.7
			c-0.6,0-1.1,0.5-1.1,1.3c0,0.8,0.4,1.3,1.1,1.3c0.5,0,0.8-0.3,0.9-0.7h0.3c-0.1,0.6-0.6,0.9-1.2,0.9
			C46.5,66.5,45.9,65.8,45.9,64.9z"/>
		<path fill="#FFFFFF" d="M49.5,66.4h-0.3v-3.1h1.1c0.6,0,1,0.4,1,0.9c0,0.4-0.2,0.8-0.7,0.9l0.7,1.3H51l-0.7-1.3c0,0,0,0,0,0h-0.8
			V66.4z M49.5,64.9h0.8c0.4,0,0.7-0.2,0.7-0.6c0-0.4-0.3-0.6-0.7-0.6h-0.8V64.9z"/>
		<path fill="#FFFFFF" d="M52.3,65.3c0,0.5,0.3,0.9,0.9,0.9c0.6,0,0.9-0.4,0.9-0.9v-2h0.3v2c0,0.7-0.5,1.1-1.2,1.1
			c-0.7,0-1.2-0.5-1.2-1.1v-2h0.3V65.3z"/>
		<path fill="#FFFFFF" d="M57.9,66.4v-2.5h0l-1.1,2.5h-0.3l-1.1-2.5h0v2.5h-0.3v-3.1h0.3l1.1,2.7h0l1.1-2.7h0.3v3.1H57.9z"/>
	</g>
	<g>
		<path fill="#FFFFFF" d="M128.7,70.2c0,0.3,0.3,0.5,0.7,0.5c0.4,0,0.7-0.2,0.7-0.5c0-0.2-0.2-0.4-0.6-0.5l-0.3-0.1
			c-0.5-0.1-0.7-0.3-0.7-0.7c0-0.4,0.4-0.7,0.9-0.7c0.5,0,0.8,0.3,0.9,0.7H130c0-0.3-0.3-0.5-0.6-0.5c-0.4,0-0.6,0.2-0.6,0.5
			c0,0.2,0.2,0.3,0.5,0.4l0.3,0.1c0.5,0.1,0.7,0.3,0.7,0.7c0,0.4-0.4,0.7-0.9,0.7c-0.5,0-0.9-0.3-0.9-0.7H128.7z"/>
		<path fill="#FFFFFF" d="M130.8,69.6c0-0.8,0.4-1.3,1.1-1.3c0.5,0,0.9,0.3,1,0.8h-0.2c-0.1-0.4-0.4-0.6-0.8-0.6
			c-0.5,0-0.9,0.4-0.9,1.1c0,0.7,0.3,1.1,0.9,1.1c0.4,0,0.7-0.2,0.8-0.6h0.2c-0.1,0.5-0.5,0.8-1,0.8
			C131.2,70.9,130.8,70.4,130.8,69.6z"/>
		<path fill="#FFFFFF" d="M133.7,70.8h-0.2v-2.5h0.9c0.5,0,0.8,0.3,0.8,0.7c0,0.4-0.2,0.6-0.5,0.7l0.6,1.1h-0.3l-0.6-1c0,0,0,0,0,0
			h-0.6V70.8z M133.7,69.6h0.6c0.4,0,0.6-0.2,0.6-0.5c0-0.3-0.2-0.5-0.6-0.5h-0.6V69.6z"/>
		<path fill="#FFFFFF" d="M136,70c0,0.4,0.3,0.7,0.7,0.7c0.5,0,0.7-0.3,0.7-0.7v-1.6h0.2V70c0,0.5-0.4,0.9-1,0.9c-0.6,0-1-0.4-1-0.9
			v-1.7h0.2V70z"/>
		<path fill="#FFFFFF" d="M140.6,70.8v-2.1h0l-0.9,2.1h-0.2l-0.9-2.1h0v2.1h-0.2v-2.5h0.3l0.9,2.2h0l0.9-2.2h0.3v2.5H140.6z"/>
	</g>
	<g>
		<path fill="#FFFFFF" d="M131.1,59.2h-1.5l-0.4,1.1h-0.5l1.4-3.7h0.5l1.4,3.7h-0.5L131.1,59.2z M129.7,58.8h1.2l-0.6-1.7h0
			L129.7,58.8z"/>
		<path fill="#FFFFFF" d="M132.3,60.6h0.5c0,0.2,0.3,0.4,0.7,0.4c0.5,0,0.8-0.2,0.8-0.7v-0.5h0c-0.2,0.3-0.5,0.5-0.9,0.5
			c-0.7,0-1.2-0.6-1.2-1.4c0-0.8,0.5-1.4,1.2-1.4c0.4,0,0.7,0.2,0.9,0.5h0v-0.4h0.4v2.8c0,0.6-0.5,1-1.2,1
			C132.8,61.3,132.4,61,132.3,60.6z M134.3,58.8c0-0.6-0.3-1-0.8-1c-0.5,0-0.8,0.4-0.8,1c0,0.6,0.3,1,0.8,1
			C134,59.8,134.3,59.4,134.3,58.8z"/>
		<path fill="#FFFFFF" d="M135.5,56.6c0-0.2,0.1-0.3,0.3-0.3c0.2,0,0.3,0.1,0.3,0.3c0,0.2-0.1,0.3-0.3,0.3
			C135.7,56.9,135.5,56.8,135.5,56.6z M135.6,57.5h0.4v2.8h-0.4V57.5z"/>
		<path fill="#FFFFFF" d="M136.9,56.4h0.4v3.9h-0.4V56.4z"/>
		<path fill="#FFFFFF" d="M140.6,59.5c-0.1,0.5-0.6,0.8-1.2,0.8c-0.8,0-1.3-0.6-1.3-1.4c0-0.9,0.5-1.4,1.3-1.4
			c0.8,0,1.2,0.5,1.2,1.4V59h-2v0c0,0.5,0.3,0.9,0.8,0.9c0.4,0,0.6-0.1,0.7-0.4H140.6z M138.6,58.6h1.5c0-0.5-0.3-0.8-0.7-0.8
			C138.9,57.8,138.6,58.2,138.6,58.6z"/>
	</g>
	<g>
		<path fill="#FFFFFF" d="M165.4,77c0-1.1,0.5-1.8,1.4-1.8c0.7,0,1.2,0.5,1.3,1.1h-0.4c-0.1-0.4-0.4-0.7-0.9-0.7c-0.6,0-1,0.5-1,1.4
			c0,0.9,0.4,1.4,1,1.4c0.4,0,0.8-0.2,0.9-0.6h0.4c-0.1,0.6-0.6,1-1.3,1C166,78.7,165.4,78,165.4,77z"/>
		<path fill="#FFFFFF" d="M169.9,78.5h-0.3v-1h-0.9v-0.4h0.9v-1h0.3v1h0.9v0.4h-0.9V78.5z"/>
		<path fill="#FFFFFF" d="M172.8,78.5h-0.3v-1h-0.9v-0.4h0.9v-1h0.3v1h0.9v0.4h-0.9V78.5z"/>
	</g>
	<g>
		<path fill="#FFFFFF" d="M35.1,49.3v-3.1h0.4l1.7,2.4h0v-2.4h0.4v3.1h-0.4l-1.7-2.4h0v2.4H35.1z"/>
		<path fill="#FFFFFF" d="M40.3,49.3h-1.9v-3.1h1.9v0.3h-1.5v1h1.4v0.3h-1.4V49h1.5V49.3z"/>
		<path fill="#FFFFFF" d="M41.8,49.3v-2.7h-1v-0.3h2.4v0.3h-1v2.7H41.8z"/>
	</g>
	<g>
		<path fill="#FFFFFF" d="M38.2,43.7c0-0.7,0.4-1.2,1.1-1.2c0.5,0,1,0.4,1,0.9h-0.5c0-0.2-0.2-0.4-0.4-0.4c-0.3,0-0.5,0.3-0.5,0.7
			c0,0.4,0.2,0.7,0.5,0.7c0.2,0,0.4-0.2,0.4-0.4h0.5c0,0.5-0.4,0.9-1,0.9C38.6,44.9,38.2,44.5,38.2,43.7z"/>
		<path fill="#FFFFFF" d="M41.7,44.8h-0.5v-0.6h-0.6v-0.5h0.6v-0.6h0.5v0.6h0.6v0.5h-0.6V44.8z"/>
		<path fill="#FFFFFF" d="M43.9,44.8h-0.5v-0.6h-0.6v-0.5h0.6v-0.6h0.5v0.6h0.6v0.5h-0.6V44.8z"/>
	</g>
	<g>
		<path fill="#FFFFFF" d="M50.1,55.1h-1l-0.2,0.8h-0.6l1-3.4H50l1,3.4h-0.7L50.1,55.1z M49.2,54.5H50l-0.4-1.3h0L49.2,54.5z"/>
		<path fill="#FFFFFF" d="M51.3,56.1h0.6c0,0.2,0.2,0.3,0.5,0.3c0.3,0,0.5-0.2,0.5-0.5v-0.5h0c-0.1,0.3-0.4,0.4-0.7,0.4
			c-0.6,0-0.9-0.5-0.9-1.3c0-0.8,0.4-1.3,0.9-1.3c0.3,0,0.6,0.2,0.7,0.5h0v-0.4h0.6v2.6c0,0.6-0.4,1-1.1,1
			C51.7,56.8,51.3,56.5,51.3,56.1z M52.8,54.5c0-0.5-0.2-0.7-0.5-0.7c-0.3,0-0.5,0.3-0.5,0.7c0,0.5,0.2,0.7,0.5,0.7
			C52.6,55.3,52.8,55,52.8,54.5z"/>
		<path fill="#FFFFFF" d="M54,52.6c0-0.2,0.1-0.3,0.4-0.3c0.2,0,0.4,0.1,0.4,0.3c0,0.2-0.1,0.3-0.4,0.3C54.1,52.9,54,52.8,54,52.6z
			 M54,53.3h0.6v2.6H54V53.3z"/>
		<path fill="#FFFFFF" d="M55.2,52.3h0.6v3.6h-0.6V52.3z"/>
		<path fill="#FFFFFF" d="M58.5,55.1c-0.1,0.5-0.5,0.8-1,0.8c-0.7,0-1.1-0.5-1.1-1.3c0-0.8,0.4-1.4,1.1-1.4c0.7,0,1.1,0.5,1.1,1.3
			v0.2h-1.5v0c0,0.4,0.2,0.6,0.5,0.6c0.2,0,0.4-0.1,0.5-0.3H58.5z M56.9,54.3h1c0-0.3-0.2-0.6-0.5-0.6C57.1,53.7,56.9,54,56.9,54.3z
			"/>
	</g>
	<g>
		<path fill="#FFFFFF" d="M42.6,39.7c0-0.1,0.1-0.2,0.3-0.2c0.2,0,0.3,0.1,0.3,0.2c0,0.1-0.1,0.2-0.3,0.2
			C42.7,39.9,42.6,39.8,42.6,39.7z M42.6,40.1h0.5v1.7h-0.5V40.1z"/>
		<path fill="#FFFFFF" d="M45.5,40.7c0,0.7-0.4,1.2-1,1.2c-0.6,0-1-0.5-1-1.2c0-0.7,0.4-1.2,1-1.2C45.1,39.5,45.5,40,45.5,40.7z
			 M44,40.7c0,0.4,0.2,0.7,0.5,0.7c0.3,0,0.5-0.3,0.5-0.7c0-0.4-0.2-0.7-0.5-0.7C44.2,40,44,40.3,44,40.7z"/>
		<path fill="#FFFFFF" d="M46.3,41.2c0,0.2,0.2,0.3,0.4,0.3c0.2,0,0.3-0.1,0.3-0.3c0-0.1-0.1-0.2-0.3-0.2l-0.3-0.1
			c-0.4-0.1-0.6-0.3-0.6-0.7c0-0.4,0.3-0.7,0.8-0.7c0.5,0,0.8,0.3,0.8,0.7H47c0-0.2-0.2-0.3-0.3-0.3c-0.2,0-0.3,0.1-0.3,0.2
			c0,0.1,0.1,0.2,0.3,0.2l0.3,0.1c0.4,0.1,0.6,0.3,0.6,0.6c0,0.5-0.3,0.8-0.9,0.8c-0.5,0-0.9-0.3-0.9-0.7H46.3z"/>
	</g>
	<g>
		<g>
			<path fill="#FFFFFF" d="M58.8,50h-1.2V51h1.2v0.4H56V51h1.2V50H56v-0.4h2.9V50z"/>
		</g>
		<g>
			<path fill="#FFFFFF" d="M58.8,48.6h-2.4v0.6H56v-1.7h0.5v0.6h2.4V48.6z"/>
		</g>
		<g>
			<path fill="#FFFFFF" d="M58.8,45.3h-1.9v0l1.8,0.5v0.3l-1.8,0.5v0h1.9v0.4H56v-0.5l1.9-0.6v0L56,45.5v-0.5h2.9V45.3z"/>
		</g>
		<g>
			<path fill="#FFFFFF" d="M58.8,43.1v1.4H56V44h2.3v-0.9H58.8z"/>
		</g>
		<g>
			<path fill="#FFFFFF" d="M58,41.9v-0.4c0.2,0,0.4-0.2,0.4-0.4c0-0.2-0.2-0.4-0.5-0.4c-0.3,0-0.5,0.2-0.5,0.4
				c0,0.2,0.1,0.3,0.3,0.4v0.4L56,41.8v-1.3h0.5v1l0.7,0v0c-0.2-0.1-0.3-0.2-0.3-0.4c0-0.4,0.4-0.7,1-0.7c0.6,0,1,0.3,1,0.8
				C58.9,41.6,58.5,41.9,58,41.9z"/>
		</g>
	</g>
	<g>
		<path fill="#FFFFFF" d="M130.7,55.6v-1.5h-1.1v1.5h-0.7v-3.8h0.7v1.5h1.1v-1.5h0.7v3.8H130.7z"/>
		<path fill="#FFFFFF" d="M132.7,55.6v-3h-0.8v-0.8h2.3v0.8h-0.8v3H132.7z"/>
		<path fill="#FFFFFF" d="M137.2,55.6v-2.4h0l-0.6,2.1h-0.4l-0.6-2.1h0v2.4h-0.7v-3.8h0.8l0.7,2.3h0l0.7-2.3h0.8v3.8H137.2z"/>
		<path fill="#FFFFFF" d="M140.5,55.6h-1.9v-3.8h0.7v3h1.2V55.6z"/>
	</g>
	<g>
		<path fill="#FFFFFF" d="M45.8,60.8c0,0.3,0.2,0.5,0.6,0.5c0.3,0,0.5-0.2,0.5-0.5c0-0.2-0.1-0.4-0.5-0.5L46,60.3
			c-0.6-0.1-0.9-0.6-0.9-1.2c0-0.8,0.5-1.4,1.2-1.4c0.7,0,1.2,0.5,1.2,1.3h-0.7c0-0.3-0.2-0.5-0.5-0.5c-0.3,0-0.5,0.2-0.5,0.5
			c0,0.2,0.1,0.4,0.5,0.5l0.4,0.1c0.6,0.2,0.9,0.5,0.9,1.2c0,0.9-0.5,1.4-1.3,1.4c-0.8,0-1.3-0.5-1.3-1.3H45.8z"/>
		<path fill="#FFFFFF" d="M49.5,62.1h-0.7L48,57.8h0.8l0.4,2.8h0l0.5-2.8h0.6l0.5,2.8h0l0.4-2.8h0.8l-0.8,4.3h-0.7L50,59.5h0
			L49.5,62.1z"/>
		<path fill="#FFFFFF" d="M52.7,62.1v-4.3h0.8v4.3H52.7z"/>
		<path fill="#FFFFFF" d="M54.2,62.1v-4.3h2.1v0.9H55v1h1.2v0.8H55v1.6H54.2z"/>
		<path fill="#FFFFFF" d="M57.6,62.1v-3.4h-0.9v-0.9h2.6v0.9h-0.9v3.4H57.6z"/>
	</g>
	<g>
		<path fill="#FFFFFF" d="M34.5,62.9c-0.8,0-1.2-0.4-1.3-1.1c0-0.6,0.4-1,0.9-1.1l0,0.6c-0.3,0-0.4,0.2-0.4,0.5
			c0,0.3,0.3,0.5,0.7,0.5c0.5,0,0.7-0.2,0.7-0.5c0-0.3-0.2-0.4-0.4-0.5l0-0.6c0.5,0,0.9,0.4,0.9,1C35.7,62.4,35.2,62.8,34.5,62.9z"
			/>
		<path fill="#FFFFFF" d="M35.5,59.6l0,0.6l-2.3,0.1l0-1c0-0.5,0.3-0.9,0.7-0.9c0.3,0,0.6,0.1,0.7,0.4l0.9-0.5l0,0.7l-0.8,0.4l0,0.3
			L35.5,59.6z M34.3,59.7l0-0.4c0-0.2-0.1-0.3-0.3-0.3c-0.2,0-0.3,0.1-0.3,0.4l0,0.3L34.3,59.7z"/>
		<path fill="#FFFFFF" d="M35.4,55.8l-1.5,0l0,0l1.3,0.5l0,0.4L34,57.3l0,0l1.5,0l0,0.5l-2.3,0.1l0-0.7l1.4-0.6l0,0L33.1,56l0-0.7
			l2.3-0.1L35.4,55.8z"/>
	</g>
	<g>
		<g>
			<path fill="#FFFFFF" d="M54.9,50.6V51l-2.4,0.6v-0.5l1.8-0.3v0l-1.8-0.4V50l1.8-0.4v0l-1.8-0.3v-0.5l2.4,0.6v0.4l-1.7,0.4v0
				L54.9,50.6z"/>
		</g>
		<g>
			<path fill="#FFFFFF" d="M54.9,47.2v1.4h-2.4v-1.4h0.4v1h0.6v-0.9h0.4v0.9h0.6v-1H54.9z"/>
		</g>
		<g>
			<path fill="#FFFFFF" d="M54.9,46.9h-2.4v-0.9c0-0.4,0.2-0.6,0.6-0.6c0.3,0,0.5,0.2,0.5,0.4h0c0-0.3,0.3-0.5,0.6-0.5
				c0.4,0,0.7,0.3,0.7,0.7V46.9z M53.5,46.4v-0.3c0-0.2-0.1-0.4-0.3-0.4c-0.2,0-0.3,0.1-0.3,0.3v0.4H53.5z M54.5,46
				c0-0.3-0.1-0.4-0.4-0.4c-0.2,0-0.3,0.1-0.3,0.4v0.4h0.7V46z"/>
		</g>
	</g>
	<g>
		<path fill="#FFFFFF" d="M162.7,49.3v-2.5h0.6v1.1h0l0.8-1.1h0.7l-0.9,1.1l0.9,1.4h-0.7l-0.6-1l-0.2,0.3v0.7H162.7z"/>
		<path fill="#FFFFFF" d="M165,48.8c0-0.3,0.3-0.5,0.8-0.6l0.4,0V48c0-0.1-0.1-0.2-0.3-0.2c-0.2,0-0.3,0.1-0.3,0.2h-0.5
			c0-0.4,0.4-0.6,0.9-0.6c0.5,0,0.8,0.2,0.8,0.6v1.3h-0.6v-0.2h0c-0.1,0.2-0.3,0.3-0.5,0.3C165.3,49.3,165,49.1,165,48.8z
			 M166.2,48.6v-0.1l-0.3,0c-0.2,0-0.3,0.1-0.3,0.2c0,0.1,0.1,0.2,0.3,0.2C166.1,48.9,166.2,48.8,166.2,48.6z"/>
		<path fill="#FFFFFF" d="M167.3,47.4h0.6v0.3h0c0.1-0.2,0.3-0.4,0.6-0.4c0.4,0,0.6,0.3,0.6,0.7v1.2h-0.6v-1.1
			c0-0.2-0.1-0.4-0.3-0.4c-0.2,0-0.3,0.1-0.3,0.4v1.1h-0.6V47.4z"/>
		<path fill="#FFFFFF" d="M169.6,49.3v-2.5h1.1c0.5,0,0.8,0.2,0.8,0.6c0,0.3-0.2,0.5-0.5,0.5v0c0.3,0,0.6,0.3,0.6,0.6
			c0,0.4-0.3,0.7-0.9,0.7H169.6z M170.2,47.9h0.3c0.2,0,0.4-0.1,0.4-0.3c0-0.2-0.1-0.3-0.3-0.3h-0.4V47.9z M170.6,48.9
			c0.3,0,0.4-0.1,0.4-0.3c0-0.2-0.1-0.3-0.4-0.3h-0.4v0.6H170.6z"/>
		<path fill="#FFFFFF" d="M171.9,48.8c0-0.3,0.3-0.5,0.8-0.6l0.4,0V48c0-0.1-0.1-0.2-0.3-0.2c-0.2,0-0.3,0.1-0.3,0.2H172
			c0-0.4,0.4-0.6,0.9-0.6c0.5,0,0.8,0.2,0.8,0.6v1.3h-0.6v-0.2h0c-0.1,0.2-0.3,0.3-0.5,0.3C172.2,49.3,171.9,49.1,171.9,48.8z
			 M173.1,48.6v-0.1l-0.3,0c-0.2,0-0.3,0.1-0.3,0.2c0,0.1,0.1,0.2,0.3,0.2C173,48.9,173.1,48.8,173.1,48.6z"/>
		<path fill="#FFFFFF" d="M174.1,47.4h0.6v0.3h0c0.1-0.2,0.3-0.4,0.6-0.4c0.4,0,0.6,0.3,0.6,0.7v1.2h-0.6v-1.1
			c0-0.2-0.1-0.4-0.3-0.4c-0.2,0-0.3,0.1-0.3,0.4v1.1h-0.6V47.4z"/>
	</g>
	<g>
		<path fill="#FFFFFF" d="M162.3,39.2c0,0.1,0.1,0.1,0.2,0.1c0.1,0,0.2-0.1,0.2-0.1c0-0.1-0.1-0.1-0.2-0.1l-0.2,0
			c-0.2,0-0.3-0.2-0.3-0.4c0-0.2,0.2-0.4,0.5-0.4c0.3,0,0.5,0.2,0.5,0.4h-0.3c0-0.1-0.1-0.2-0.2-0.2c-0.1,0-0.2,0.1-0.2,0.1
			c0,0.1,0.1,0.1,0.2,0.1l0.2,0c0.2,0,0.4,0.2,0.4,0.4c0,0.3-0.2,0.4-0.5,0.4c-0.3,0-0.5-0.1-0.5-0.4H162.3z"/>
		<path fill="#FFFFFF" d="M163.2,39c0-0.3,0.2-0.5,0.5-0.5c0.3,0,0.5,0.2,0.5,0.5c0,0.3-0.2,0.5-0.5,0.5
			C163.4,39.5,163.2,39.3,163.2,39z M163.9,39c0-0.2-0.1-0.3-0.2-0.3s-0.2,0.1-0.2,0.3c0,0.2,0.1,0.3,0.2,0.3
			C163.9,39.3,163.9,39.2,163.9,39z"/>
		<path fill="#FFFFFF" d="M164.5,38.8h-0.2v-0.2h0.2v-0.1c0-0.2,0.1-0.3,0.4-0.3c0.1,0,0.1,0,0.1,0v0.2c0,0,0,0-0.1,0
			c-0.1,0-0.1,0-0.1,0.1v0.1h0.2v0.2h-0.2v0.7h-0.3V38.8z"/>
		<path fill="#FFFFFF" d="M165.6,38.3v0.2h0.2v0.2h-0.2v0.4c0,0.1,0,0.1,0.1,0.1c0,0,0.1,0,0.1,0v0.2c0,0-0.1,0-0.1,0
			c-0.3,0-0.4-0.1-0.4-0.3v-0.5h-0.1v-0.2h0.1v-0.2H165.6z"/>
		<path fill="#FFFFFF" d="M167.1,39.5h-0.3l-0.2-0.6h0l-0.1,0.6h-0.3l-0.3-1h0.3l0.1,0.7h0l0.1-0.7h0.3l0.1,0.7h0l0.1-0.7h0.3
			L167.1,39.5z"/>
		<path fill="#FFFFFF" d="M167.5,39.2c0-0.2,0.1-0.3,0.4-0.3l0.2,0v-0.1c0-0.1,0-0.1-0.1-0.1c-0.1,0-0.1,0-0.2,0.1h-0.3
			c0-0.2,0.2-0.3,0.4-0.3c0.3,0,0.4,0.1,0.4,0.3v0.7h-0.3v-0.1h0c0,0.1-0.1,0.1-0.3,0.1C167.6,39.5,167.5,39.4,167.5,39.2z
			 M168.1,39.2L168.1,39.2l-0.2-0.1c-0.1,0-0.1,0-0.1,0.1c0,0.1,0.1,0.1,0.1,0.1C168,39.3,168.1,39.2,168.1,39.2z"/>
		<path fill="#FFFFFF" d="M168.6,38.5h0.3v0.2h0c0-0.1,0.1-0.2,0.2-0.2c0,0,0.1,0,0.1,0v0.3c0,0-0.1,0-0.1,0c-0.1,0-0.2,0.1-0.2,0.2
			v0.5h-0.3V38.5z"/>
		<path fill="#FFFFFF" d="M170.3,39.2c0,0.2-0.2,0.3-0.5,0.3c-0.3,0-0.5-0.2-0.5-0.5c0-0.3,0.2-0.5,0.5-0.5c0.3,0,0.5,0.2,0.5,0.5
			v0.1h-0.7v0c0,0.1,0.1,0.2,0.2,0.2c0.1,0,0.2,0,0.2-0.1H170.3z M169.7,38.9h0.4c0-0.1-0.1-0.2-0.2-0.2
			C169.8,38.7,169.7,38.8,169.7,38.9z"/>
	</g>
	<g>
		<g>
			<path fill="#FFFFFF" d="M183.9,75.9c0-0.5,0.3-0.9,0.7-0.9c0.4,0,0.7,0.4,0.7,0.9v0.4h0.6V77h-1.9V75.9z M184.9,76.3v-0.3
				c0-0.3-0.1-0.4-0.3-0.4c-0.2,0-0.3,0.2-0.3,0.4v0.3H184.9z"/>
		</g>
		<g>
			<path fill="#FFFFFF" d="M185.8,73.3v0.6h-1.9v-1.1c0-0.6,0.2-0.9,0.6-0.9c0.2,0,0.4,0.1,0.5,0.4l0.7-0.5v0.7l-0.7,0.4v0.3H185.8z
				 M184.8,73.3v-0.4c0-0.2-0.1-0.4-0.3-0.4c-0.2,0-0.3,0.1-0.3,0.4v0.4H184.8z"/>
		</g>
		<g>
			<path fill="#FFFFFF" d="M184.8,68.5c0.6,0,1,0.5,1,1.2c0,0.7-0.4,1.2-1,1.2c-0.6,0-1-0.5-1-1.2C183.8,69,184.2,68.5,184.8,68.5z
				 M184.8,70.3c0.4,0,0.6-0.2,0.6-0.6c0-0.3-0.2-0.6-0.6-0.6c-0.4,0-0.6,0.2-0.6,0.6C184.2,70.1,184.5,70.3,184.8,70.3z"/>
		</g>
		<g>
			<path fill="#FFFFFF" d="M185.8,66.3c0,0.7-0.4,1.2-1,1.2c-0.6,0-1-0.4-1-1.2c0-0.6,0.3-1,0.7-1.1v0.6c-0.2,0.1-0.3,0.2-0.3,0.5
				c0,0.3,0.2,0.5,0.6,0.5c0.4,0,0.6-0.2,0.6-0.6c0-0.3-0.1-0.5-0.3-0.5l0,0v0.4h-0.3v-1h0.2C185.5,65.3,185.8,65.7,185.8,66.3z"/>
		</g>
		<g>
			<path fill="#FFFFFF" d="M185.8,63.5v0.6h-1.9v-1.1c0-0.6,0.2-0.9,0.6-0.9c0.2,0,0.4,0.1,0.5,0.4l0.7-0.5v0.7l-0.7,0.4v0.3H185.8z
				 M184.8,63.5v-0.4c0-0.2-0.1-0.4-0.3-0.4c-0.2,0-0.3,0.1-0.3,0.4v0.4H184.8z"/>
		</g>
		<g>
			<path fill="#FFFFFF" d="M185.4,59.6v0.8l0.4,0.2v0.6l-1.9-0.8v-0.7l1.9-0.8v0.7L185.4,59.6z M185,60.3v-0.5l-0.7,0.3v0L185,60.3z
				"/>
		</g>
		<g>
			<path fill="#FFFFFF" d="M185.8,55.7h-1.2v0l1.1,0.5v0.4l-1.1,0.5v0h1.2v0.6h-1.9V57l1.2-0.6v0l-1.2-0.6v-0.7h1.9V55.7z"/>
		</g>
		<g>
			<path fill="#FFFFFF" d="M185.8,51.8h-1.2v0l1.1,0.5v0.4l-1.1,0.5v0h1.2v0.6h-1.9v-0.7l1.2-0.6v0l-1.2-0.6v-0.7h1.9V51.8z"/>
		</g>
		<g>
			<path fill="#FFFFFF" d="M185.8,50h-1.9v-0.6h1.9V50z"/>
		</g>
		<g>
			<path fill="#FFFFFF" d="M185.8,48.1h-1.9v-0.5l1.1-1v0h-1.1V46h1.9v0.5l-1.1,1v0h1.1V48.1z"/>
		</g>
		<g>
			<path fill="#FFFFFF" d="M185.8,43.7c0,0.7-0.4,1.2-1,1.2c-0.6,0-1-0.4-1-1.2c0-0.6,0.3-1,0.7-1.1v0.6c-0.2,0.1-0.3,0.2-0.3,0.5
				c0,0.3,0.2,0.5,0.6,0.5c0.4,0,0.6-0.2,0.6-0.6c0-0.3-0.1-0.5-0.3-0.5h0v0.4h-0.3v-1h0.2C185.5,42.6,185.8,43,185.8,43.7z"/>
		</g>
	</g>
	<g>
		<path fill="#FFFFFF" d="M129.3,49.1c0,0.2,0.1,0.3,0.3,0.3c0.2,0,0.3-0.1,0.3-0.4v-1.7h0.7v1.7c0,0.6-0.4,0.9-0.9,0.9
			c-0.6,0-0.9-0.3-0.9-0.9H129.3z"/>
		<path fill="#FFFFFF" d="M132.9,49.4h-0.8l-0.2,0.6h-0.6l0.9-2.6h0.8l0.9,2.6h-0.7L132.9,49.4z M132.2,48.9h0.6l-0.3-1h0
			L132.2,48.9z"/>
		<path fill="#FFFFFF" d="M135,50l-0.8-2.6h0.8l0.5,1.9h0l0.5-1.9h0.7l-0.8,2.6H135z"/>
		<path fill="#FFFFFF" d="M138.7,49.4h-0.8l-0.2,0.6h-0.6l0.9-2.6h0.8l0.9,2.6h-0.7L138.7,49.4z M138,48.9h0.6l-0.3-1h0L138,48.9z"
			/>
	</g>
	<g>
		<path fill="#FFFFFF" d="M134.4,36.3c0-0.2,0.1-0.3,0.4-0.3c0.2,0,0.4,0.1,0.4,0.3c0,0.2-0.1,0.3-0.4,0.3
			C134.5,36.6,134.4,36.5,134.4,36.3z M134.4,36.9h0.7V39h-0.7V36.9z"/>
		<path fill="#FFFFFF" d="M138.2,37.6c0,0.9-0.5,1.4-1.3,1.4c-0.8,0-1.3-0.5-1.3-1.4c0-0.9,0.5-1.4,1.3-1.4
			C137.7,36.2,138.2,36.7,138.2,37.6z M136.2,37.6c0,0.5,0.2,0.9,0.6,0.9c0.4,0,0.6-0.3,0.6-0.9c0-0.5-0.3-0.9-0.6-0.9
			C136.5,36.7,136.2,37.1,136.2,37.6z"/>
		<path fill="#FFFFFF" d="M139.2,38.2c0,0.2,0.2,0.3,0.5,0.3c0.3,0,0.4-0.1,0.4-0.3c0-0.2-0.1-0.2-0.4-0.3l-0.4-0.1
			c-0.5-0.1-0.7-0.4-0.7-0.8c0-0.5,0.4-0.9,1.1-0.9c0.6,0,1.1,0.3,1.1,0.8h-0.6c0-0.2-0.2-0.3-0.4-0.3c-0.2,0-0.4,0.1-0.4,0.3
			c0,0.1,0.1,0.2,0.4,0.3l0.3,0.1c0.5,0.1,0.8,0.3,0.8,0.8c0,0.6-0.4,0.9-1.1,0.9c-0.7,0-1.1-0.3-1.1-0.8H139.2z"/>
	</g>
	<g>
		<path fill="#FFFFFF" d="M173.1,51.9c0-0.7,0.4-1.1,1.1-1.1c0.5,0,1,0.3,1,0.8h-0.5c0-0.2-0.2-0.4-0.4-0.4c-0.3,0-0.5,0.2-0.5,0.6
			c0,0.4,0.2,0.6,0.5,0.6c0.2,0,0.4-0.1,0.4-0.4h0.5c0,0.5-0.4,0.8-1,0.8C173.5,53,173.1,52.6,173.1,51.9z"/>
		<path fill="#FFFFFF" d="M176.6,52.9h-0.5v-0.6h-0.6v-0.4h0.6v-0.6h0.5v0.6h0.6v0.4h-0.6V52.9z"/>
		<path fill="#FFFFFF" d="M178.8,52.9h-0.5v-0.6h-0.6v-0.4h0.6v-0.6h0.5v0.6h0.6v0.4h-0.6V52.9z"/>
	</g>
	<g>
		<path fill="#FFFFFF" d="M152,87.7c0-0.6,0.4-1,1-1c0.6,0,1,0.4,1,1v0.8h1.1v0.4H152V87.7z M153.6,88.5v-0.7c0-0.4-0.2-0.7-0.7-0.7
			c-0.4,0-0.7,0.2-0.7,0.7v0.7H153.6z"/>
		<path fill="#FFFFFF" d="M155.1,85.3v0.4H152v-1.2c0-0.6,0.4-1,0.9-1c0.4,0,0.8,0.2,0.9,0.6l1.3-0.7v0.5l-1.2,0.7v0.8H155.1z
			 M153.5,85.3v-0.8c0-0.4-0.2-0.6-0.6-0.6c-0.4,0-0.6,0.2-0.6,0.6v0.7H153.5z"/>
		<path fill="#FFFFFF" d="M153.5,79.7c1,0,1.6,0.5,1.6,1.4c0,0.9-0.6,1.4-1.6,1.4c-1,0-1.6-0.5-1.6-1.4
			C151.9,80.2,152.5,79.7,153.5,79.7z M153.5,82.1c0.8,0,1.3-0.4,1.3-1c0-0.6-0.5-1-1.3-1c-0.8,0-1.3,0.4-1.3,1
			C152.3,81.7,152.8,82.1,153.5,82.1z"/>
		<path fill="#FFFFFF" d="M152,77.5c0-0.9,0.6-1.5,1.6-1.5c1,0,1.6,0.5,1.6,1.5v1.1H152V77.5z M154.8,78.2v-0.6
			c0-0.7-0.4-1.1-1.2-1.1c-0.8,0-1.2,0.4-1.2,1.1v0.6H154.8z"/>
		<path fill="#FFFFFF" d="M154,74.6c0.5,0,0.8-0.3,0.8-0.8s-0.3-0.8-0.8-0.8h-2v-0.4h2.1c0.7,0,1.2,0.5,1.2,1.2
			c0,0.8-0.5,1.2-1.2,1.2H152v-0.4H154z"/>
		<path fill="#FFFFFF" d="M153.5,71.4c-1,0-1.6-0.5-1.6-1.4c0-0.6,0.4-1.2,1-1.2v0.4c-0.4,0.1-0.7,0.4-0.7,0.9c0,0.6,0.5,1,1.3,1
			c0.8,0,1.3-0.4,1.3-1c0-0.4-0.2-0.8-0.6-0.9v-0.4c0.6,0.1,1,0.6,1,1.2C155.2,70.9,154.6,71.4,153.5,71.4z"/>
		<path fill="#FFFFFF" d="M155.1,67.1h-2.8v1H152v-2.4h0.4v1h2.8V67.1z"/>
		<path fill="#FFFFFF" d="M155.1,61.1V63H152v-1.9h0.4v1.5h1v-1.4h0.3v1.4h1.1v-1.5H155.1z"/>
		<path fill="#FFFFFF" d="M155.1,60H152v-0.4l2.5-1.7v0H152v-0.4h3.1v0.4l-2.4,1.7v0h2.4V60z"/>
		<path fill="#FFFFFF" d="M155.2,55c0,0.9-0.6,1.4-1.6,1.4c-1,0-1.6-0.6-1.6-1.4c0-0.7,0.4-1.2,1-1.3v0.4c-0.4,0.1-0.7,0.4-0.7,0.9
			c0,0.6,0.5,1,1.3,1c0.8,0,1.3-0.4,1.3-1c0-0.6-0.4-0.9-0.9-0.9h-0.1v0.9h-0.3v-1.3h0.4C154.7,53.7,155.2,54.2,155.2,55z"/>
		<path fill="#FFFFFF" d="M155.1,52.6H152v-0.4h3.1V52.6z"/>
		<path fill="#FFFFFF" d="M155.1,51H152v-0.4l2.5-1.7v0H152v-0.4h3.1v0.4l-2.4,1.7v0h2.4V51z"/>
		<path fill="#FFFFFF" d="M155.1,45.4v1.9H152v-1.9h0.4v1.5h1v-1.4h0.3v1.4h1.1v-1.5H155.1z"/>
		<path fill="#FFFFFF" d="M155.1,42.4v1.9H152v-1.9h0.4v1.5h1v-1.4h0.3v1.4h1.1v-1.5H155.1z"/>
		<path fill="#FFFFFF" d="M155.1,40.9v0.4H152v-1.2c0-0.6,0.4-1,0.9-1c0.4,0,0.8,0.2,0.9,0.6l1.3-0.7v0.5l-1.2,0.7v0.8H155.1z
			 M153.5,40.9v-0.8c0-0.4-0.2-0.6-0.6-0.6c-0.4,0-0.6,0.2-0.6,0.6v0.7H153.5z"/>
		<path fill="#FFFFFF" d="M155.1,38H152v-0.4h3.1V38z"/>
		<path fill="#FFFFFF" d="M155.1,36.4H152V36l2.5-1.7v0H152v-0.4h3.1v0.4l-2.4,1.7v0h2.4V36.4z"/>
		<path fill="#FFFFFF" d="M155.2,31.4c0,0.9-0.6,1.4-1.6,1.4c-1,0-1.6-0.6-1.6-1.4c0-0.7,0.4-1.2,1-1.3v0.4
			c-0.4,0.1-0.7,0.4-0.7,0.9c0,0.6,0.5,1,1.3,1c0.8,0,1.3-0.4,1.3-1c0-0.6-0.4-0.9-0.9-0.9h-0.1v0.9h-0.3v-1.3h0.4
			C154.7,30.1,155.2,30.6,155.2,31.4z"/>
	</g>
	<g>
		<path fill="#FFFFFF" d="M63,86.3v1.6l1.2,0.4v0.4l-3.9-1.5v-0.4l3.9-1.5v0.4L63,86.3z M62.6,87.8v-1.4l-1.9,0.7v0L62.6,87.8z"/>
		<path fill="#FFFFFF" d="M64.2,84.8v0.4h-3.9v-1.4c0-0.8,0.4-1.2,1.1-1.2c0.6,0,1,0.3,1.1,0.8l1.7-0.9v0.4l-1.6,0.9c0,0,0,0,0,0.1
			v1H64.2z M62.2,84.8v-1c0-0.6-0.3-0.9-0.8-0.9c-0.5,0-0.8,0.3-0.8,0.9v1H62.2z"/>
		<path fill="#FFFFFF" d="M64.2,81h-3.6v1.3h-0.3v-3h0.3v1.3h3.6V81z"/>
		<path fill="#FFFFFF" d="M64.2,79h-3.9v-0.4h3.9V79z"/>
		<path fill="#FFFFFF" d="M64.2,78.1h-3.9v-2.3h0.3v1.9h1.5v-1.8h0.3v1.8h1.8V78.1z"/>
		<path fill="#FFFFFF" d="M64.2,75.3h-3.9V75h3.9V75.3z"/>
		<path fill="#FFFFFF" d="M62.2,74.5c-1.3,0-2-0.7-2-1.7c0-0.8,0.5-1.5,1.3-1.6v0.4c-0.6,0.1-0.9,0.6-0.9,1.2c0,0.8,0.7,1.3,1.7,1.3
			c1,0,1.7-0.5,1.7-1.3c0-0.6-0.3-1.1-0.8-1.2v-0.4c0.7,0.1,1.2,0.7,1.2,1.6C64.2,73.9,63.5,74.5,62.2,74.5z"/>
		<path fill="#FFFFFF" d="M64.2,70.9h-3.9v-0.4h3.9V70.9z"/>
		<path fill="#FFFFFF" d="M63,67.8v1.6l1.2,0.4v0.4l-3.9-1.5v-0.4l3.9-1.5v0.4L63,67.8z M62.6,69.3v-1.4l-1.9,0.7v0L62.6,69.3z"/>
		<path fill="#FFFFFF" d="M64.2,64.3v2.3h-3.9v-0.4h3.6v-1.9H64.2z"/>
		<path fill="#FFFFFF" d="M64.2,62.9h-3.9v-0.4h3.9V62.9z"/>
		<path fill="#FFFFFF" d="M64.2,62h-3.9v-0.4l3.2-2.3v0h-3.2v-0.4h3.9v0.4l-3.2,2.3v0h3.2V62z"/>
		<path fill="#FFFFFF" d="M64.2,57.3h-3.6v1.3h-0.3v-3h0.3v1.3h3.6V57.3z"/>
		<path fill="#FFFFFF" d="M64.2,52.9v2.4h-3.9v-2.4h0.3v2H62V53h0.3v1.9h1.5v-2H64.2z"/>
		<path fill="#FFFFFF" d="M64.2,50.2v2.3h-3.9v-0.4h3.6v-1.9H64.2z"/>
		<path fill="#FFFFFF" d="M64.2,47.5v2.3h-3.9v-0.4h3.6v-1.9H64.2z"/>
		<path fill="#FFFFFF" d="M64.2,47.1h-3.9v-0.4h3.9V47.1z"/>
		<path fill="#FFFFFF" d="M64.2,44.6c0,1.1-0.8,1.7-2,1.7c-1.2,0-2-0.7-2-1.7c0-0.8,0.5-1.5,1.2-1.6v0.4c-0.6,0.2-0.9,0.6-0.9,1.2
			c0,0.8,0.7,1.4,1.7,1.4c1,0,1.7-0.5,1.7-1.4c0-0.8-0.5-1.3-1.2-1.3h-0.1v1.2h-0.3V43h0.4C63.6,43,64.2,43.6,64.2,44.6z"/>
		<path fill="#FFFFFF" d="M64.2,40.2v2.4h-3.9v-2.4h0.3v2H62v-1.9h0.3v1.9h1.5v-2H64.2z"/>
		<path fill="#FFFFFF" d="M64.2,39.7h-3.9v-0.4l3.2-2.3v0h-3.2v-0.4h3.9V37l-3.2,2.3v0h3.2V39.7z"/>
		<path fill="#FFFFFF" d="M62.2,36.3c-1.3,0-2-0.7-2-1.7c0-0.8,0.5-1.5,1.3-1.6v0.4c-0.6,0.1-0.9,0.6-0.9,1.2c0,0.8,0.7,1.3,1.7,1.3
			c1,0,1.7-0.5,1.7-1.3c0-0.6-0.3-1.1-0.8-1.2V33c0.7,0.1,1.2,0.7,1.2,1.6C64.2,35.6,63.5,36.3,62.2,36.3z"/>
		<path fill="#FFFFFF" d="M64.2,30.2v2.4h-3.9v-2.4h0.3v2H62v-1.9h0.3v1.9h1.5v-2H64.2z"/>
	</g>
	<g>
		<path fill="#FFFFFF" d="M71.1,55.3c0.1,0.4,0.5,0.7,1.1,0.7c0.6,0,1-0.3,1-0.7c0-0.3-0.3-0.5-0.9-0.7L72,54.5
			c-0.8-0.2-1.1-0.4-1.1-0.9c0-0.6,0.6-1,1.4-1c0.8,0,1.4,0.4,1.4,0.9h-0.4c-0.1-0.4-0.5-0.6-1-0.6c-0.6,0-1,0.3-1,0.7
			c0,0.3,0.3,0.5,0.9,0.6l0.4,0.1c0.8,0.2,1.2,0.5,1.2,1c0,0.6-0.6,1-1.5,1c-0.8,0-1.4-0.4-1.5-1H71.1z"/>
		<path fill="#FFFFFF" d="M75,55c0,0.6,0.5,1,1.2,1c0.7,0,1.2-0.4,1.2-1v-2.3h0.4V55c0,0.8-0.6,1.3-1.6,1.3c-1,0-1.6-0.5-1.6-1.3
			v-2.3H75V55z"/>
		<path fill="#FFFFFF" d="M80.2,52.8c0.8,0,1.3,0.4,1.3,1.1c0,0.6-0.5,1.1-1.3,1.1h-1.1v1.3h-0.4v-3.5H80.2z M79.2,54.6h1
			c0.6,0,1-0.3,1-0.8c0-0.5-0.4-0.8-1-0.8h-1V54.6z"/>
		<path fill="#FFFFFF" d="M83.8,52.8c0.8,0,1.3,0.4,1.3,1.1c0,0.6-0.5,1.1-1.3,1.1h-1.1v1.3h-0.4v-3.5H83.8z M82.8,54.6h1
			c0.6,0,1-0.3,1-0.8c0-0.5-0.4-0.8-1-0.8h-1V54.6z"/>
		<path fill="#FFFFFF" d="M89.5,54.5c0,1.1-0.7,1.8-1.8,1.8c-1.1,0-1.8-0.7-1.8-1.8c0-1.1,0.7-1.8,1.8-1.8
			C88.8,52.7,89.5,53.4,89.5,54.5z M86.2,54.5c0,0.9,0.6,1.5,1.5,1.5c0.9,0,1.4-0.6,1.4-1.5c0-0.9-0.6-1.5-1.4-1.5
			C86.8,53,86.2,53.6,86.2,54.5z"/>
		<path fill="#FFFFFF" d="M90.8,56.2h-0.4v-3.5h1.5c0.8,0,1.3,0.4,1.3,1c0,0.5-0.3,0.9-0.9,1l1,1.5h-0.5l-0.9-1.4c0,0,0,0-0.1,0h-1
			V56.2z M90.8,54.5h1c0.6,0,0.9-0.3,0.9-0.7c0-0.5-0.4-0.7-1-0.7h-1V54.5z"/>
		<path fill="#FFFFFF" d="M95.2,56.2V53h-1.4v-0.3h3.1V53h-1.4v3.2H95.2z"/>
	</g>
	<g>
		<path fill="#FFFFFF" d="M129.9,61.3c0.7,0,1.1,0.9,1.1,2.5c0,1.6-0.4,2.5-1.1,2.5H129v-5H129.9z M129.4,65.7h0.4
			c0.5,0,0.8-0.7,0.8-1.8c0-1.1-0.3-1.8-0.8-1.8h-0.4V65.7z"/>
		<path fill="#FFFFFF" d="M132.8,65.4c-0.1,0.7-0.4,1.1-0.7,1.1c-0.5,0-0.8-0.7-0.8-2c0-1.2,0.3-2,0.8-2c0.5,0,0.8,0.7,0.8,1.9v0.3
			h-1.2v0c0,0.7,0.2,1.1,0.5,1.1c0.2,0,0.3-0.2,0.4-0.5H132.8z M131.6,64.1h0.9c0-0.6-0.2-1-0.4-1C131.8,63.1,131.7,63.5,131.6,64.1
			z"/>
		<path fill="#FFFFFF" d="M134.1,66.4h-0.4l-0.6-3.8h0.4l0.4,3h0l0.4-3h0.4L134.1,66.4z"/>
		<path fill="#FFFFFF" d="M137.1,63.9c0,1.6-0.4,2.6-1.1,2.6c-0.7,0-1.1-1-1.1-2.6c0-1.6,0.4-2.6,1.1-2.6
			C136.7,61.2,137.1,62.2,137.1,63.9z M135.4,63.9c0,1.2,0.3,1.9,0.7,1.9c0.4,0,0.7-0.8,0.7-1.9c0-1.2-0.3-1.9-0.7-1.9
			C135.6,62,135.4,62.7,135.4,63.9z"/>
		<path fill="#FFFFFF" d="M139.2,64.5c0,1.2-0.3,2-0.7,2c-0.2,0-0.4-0.2-0.5-0.6h0v1.8h-0.3v-5.1h0.3v0.6h0c0.1-0.4,0.3-0.7,0.5-0.7
			C138.9,62.5,139.2,63.3,139.2,64.5z M138.8,64.5c0-0.8-0.2-1.3-0.5-1.3c-0.3,0-0.5,0.5-0.5,1.3c0,0.8,0.2,1.3,0.5,1.3
			C138.7,65.8,138.8,65.3,138.8,64.5z"/>
		<path fill="#FFFFFF" d="M140.2,62.5c0.4,0,0.6,0.4,0.7,1.1h-0.3c0-0.3-0.2-0.5-0.3-0.5c-0.2,0-0.3,0.2-0.3,0.5
			c0,0.2,0.1,0.4,0.3,0.5l0.3,0.1c0.3,0.2,0.5,0.5,0.5,1c0,0.7-0.3,1.2-0.7,1.2c-0.4,0-0.7-0.4-0.7-1.1h0.3c0,0.3,0.2,0.5,0.4,0.5
			c0.2,0,0.4-0.2,0.4-0.5c0-0.2-0.1-0.4-0.3-0.5l-0.3-0.2c-0.3-0.2-0.5-0.5-0.5-1.1C139.6,63,139.8,62.5,140.2,62.5z"/>
	</g>
	<g>
		<path fill="#FFFFFF" d="M42.2,78.4c0,0.3,0.3,0.4,0.6,0.4c0.3,0,0.6-0.2,0.6-0.4c0-0.2-0.2-0.3-0.5-0.4l-0.3-0.1
			c-0.5-0.1-0.7-0.4-0.7-0.8c0-0.5,0.4-0.8,1-0.8c0.5,0,0.9,0.3,1,0.8h-0.4c0-0.3-0.3-0.4-0.6-0.4c-0.3,0-0.5,0.2-0.5,0.4
			c0,0.2,0.1,0.3,0.5,0.4l0.3,0.1c0.6,0.1,0.8,0.4,0.8,0.8c0,0.5-0.4,0.9-1,0.9c-0.6,0-1-0.3-1-0.8H42.2z"/>
		<path fill="#FFFFFF" d="M45.1,79.2v-2.4h-0.8v-0.4h2.1v0.4h-0.8v2.4H45.1z"/>
		<path fill="#FFFFFF" d="M48,78.4h-1l-0.2,0.8h-0.4l1-2.8h0.4l1,2.8h-0.4L48,78.4z M47.1,78h0.8l-0.4-1.2h0L47.1,78z"/>
		<path fill="#FFFFFF" d="M49.6,79.2h-0.4v-2.8h1.1c0.5,0,0.9,0.3,0.9,0.9c0,0.4-0.2,0.7-0.5,0.8l0.6,1.2h-0.5l-0.5-1.1h-0.6V79.2z
			 M49.6,77.7h0.6c0.3,0,0.5-0.2,0.5-0.5c0-0.3-0.2-0.5-0.5-0.5h-0.6V77.7z"/>
		<path fill="#FFFFFF" d="M52.4,79.2v-2.4h-0.8v-0.4h2.1v0.4h-0.8v2.4H52.4z"/>
		<path fill="#FFFFFF" d="M54.6,78.1c0,0.4,0.2,0.7,0.7,0.7c0.4,0,0.7-0.3,0.7-0.7v-1.8h0.4v1.9c0,0.6-0.4,1-1.1,1s-1.1-0.4-1.1-1
			v-1.9h0.4V78.1z"/>
		<path fill="#FFFFFF" d="M58.1,76.3c0.5,0,0.9,0.4,0.9,0.9c0,0.6-0.4,0.9-0.9,0.9h-0.6v1H57v-2.8H58.1z M57.4,77.8H58
			c0.4,0,0.6-0.2,0.6-0.5c0-0.4-0.2-0.6-0.6-0.6h-0.5V77.8z"/>
	</g>
</g>
<g>
	<path fill="#000703" d="M70.7,106.9h-4v-0.5l3-9.1H67v-0.8h3.7V97l-3,9.2h3V106.9z"/>
	<path fill="#000703" d="M78.1,106.9h-3.4V96.5h3.4v0.8h-2.5v3.9h2.3v0.8h-2.3v4.1h2.5V106.9z"/>
	<path fill="#000703" d="M86.7,106.2c0,0.2-0.1,0.4-0.2,0.5c-0.1,0.1-0.3,0.2-0.5,0.2h-2.9c-0.2,0-0.4-0.1-0.5-0.2
		c-0.1-0.1-0.2-0.3-0.2-0.5v-9.7h0.9v9.6h2.5v-9.6h0.9V106.2z"/>
	<path fill="#000703" d="M95.2,106.2c0,0.2-0.1,0.4-0.2,0.5c-0.1,0.1-0.3,0.2-0.5,0.2h-2.6c-0.2,0-0.4-0.1-0.5-0.2
		c-0.1-0.1-0.2-0.3-0.2-0.5v-2.6H92v2.6h2.3v-2.5l-2.9-3.5c-0.2-0.2-0.3-0.5-0.3-0.8v-2.1c0-0.2,0.1-0.4,0.2-0.5
		c0.1-0.1,0.3-0.2,0.5-0.2h2.6c0.2,0,0.4,0.1,0.5,0.2c0.1,0.1,0.2,0.3,0.2,0.5v2.4h-0.9v-2.4H92v2.2l2.9,3.5
		c0.2,0.2,0.3,0.5,0.3,0.8V106.2z"/>
	<path fill="#000703" d="M114.7,106.2c0,0.2-0.1,0.4-0.2,0.5c-0.1,0.1-0.3,0.2-0.5,0.2h-2.8c-0.2,0-0.4-0.1-0.5-0.2
		c-0.1-0.1-0.2-0.3-0.2-0.5v-9c0-0.2,0.1-0.4,0.2-0.5c0.1-0.1,0.3-0.2,0.5-0.2h2.8c0.2,0,0.4,0.1,0.5,0.2c0.1,0.1,0.2,0.3,0.2,0.5
		v2.4h-0.9v-2.4h-2.4v8.8h2.4v-3.6h-1.1v-0.8h2.1V106.2z"/>
	<path fill="#000703" d="M123.6,106.9h-1l-2-5.6l0.1-0.2h1.7v-3.8h-2.4v9.6h-0.9V96.5h3.5c0.2,0,0.4,0.1,0.5,0.2
		c0.1,0.1,0.2,0.3,0.2,0.5v4c0,0.5-0.3,0.8-1,0.8c-0.1,0-0.2,0-0.3,0c-0.1,0-0.2,0-0.3,0C122.4,103.6,123,105.3,123.6,106.9z"/>
	<path fill="#000703" d="M132.2,106.2c0,0.2-0.1,0.4-0.2,0.5c-0.1,0.1-0.3,0.2-0.5,0.2h-2.9c-0.2,0-0.4-0.1-0.5-0.2
		c-0.1-0.1-0.2-0.3-0.2-0.5v-9c0-0.2,0.1-0.4,0.2-0.5c0.1-0.1,0.3-0.2,0.5-0.2h2.9c0.2,0,0.4,0.1,0.5,0.2c0.1,0.1,0.2,0.3,0.2,0.5
		V106.2z M131.3,106.1v-8.8h-2.6v8.8H131.3z"/>
	<path fill="#000703" d="M141,106.2c0,0.2-0.1,0.4-0.2,0.5c-0.1,0.1-0.3,0.2-0.5,0.2h-2.9c-0.2,0-0.4-0.1-0.5-0.2
		c-0.1-0.1-0.2-0.3-0.2-0.5v-9.7h0.9v9.6h2.5v-9.6h0.9V106.2z"/>
	<path fill="#000703" d="M149.6,102c0,0.2-0.1,0.4-0.2,0.5c-0.1,0.1-0.3,0.2-0.5,0.2h-2.5v4.1h-0.9V96.5h3.4c0.2,0,0.4,0.1,0.5,0.2
		c0.1,0.1,0.2,0.3,0.2,0.5V102z M148.6,102v-4.7h-2.3v4.7H148.6z"/>
</g>
</svg>
