<?xml version="1.0" encoding="utf-8"?>
<!-- Generator: Adobe Illustrator 22.0.0, SVG Export Plug-In . SVG Version: 6.00 Build 0)  -->
<svg version="1.1" id="Layer_1" xmlns="http://www.w3.org/2000/svg" xmlns:xlink="http://www.w3.org/1999/xlink" x="0px" y="0px"
	 viewBox="0 0 408 429" style="enable-background:new 0 0 408 429;" xml:space="preserve">
<style type="text/css">
	.st0{fill:none;stroke:#BF0C2B;stroke-width:24;stroke-miterlimit:10;}
	.st1{fill:#02173E;}
	.st2{fill:none;stroke:#09A38C;stroke-width:28;stroke-miterlimit:10;}
	.st3{fill:#F14C13;}
	.st4{fill:#2D2D2D;}
</style>
<path class="st0" d="M146.9,158.1c-7.9-11.1-20.9-18.2-35.5-18.2c-24.2,0-43.8,19.6-43.8,43.8s19.6,42.9,43.8,43.8
	c10,0.4,16.7,0,16.7,0"/>
<polygon class="st1" points="158.1,176.9 165.1,144.6 125.4,170.2 "/>
<path class="st2" d="M114.9,328.9c-12.7-27-13.2-70.3,7.8-94.7s60.2-53.8,119.9-26.4c72.3,44.3,48.7,126,19.1,149.1
	c-13.7,10.7-19,26-134,24C87,381.1,82,381.1,82,381.1"/>
<path class="st3" d="M249.7,394.2c0,0,26.3-13,36.7-28.3c15,0,27.3,0,27.3,0v-13l26.7,28.2l-26,26.5v-13.3h-64.7V394.2z"/>
<polygon class="st1" points="89.1,335.9 140.7,316.9 124.4,352.9 "/>
<polygon class="st1" points="313.7,352.9 314.4,407.6 340.4,381.1 "/>
<g>
	<g>
		<path class="st4" d="M152.1,99.5c-0.5-1.5-1.5-2.5-3.1-3c-1.6-0.5-4.1-0.6-7.6,0.1c-4.2,0.8-7.7,1-10.6,0.5
			c-2.9-0.5-4.9-1.8-6.1-4.1c-1.2-2.4-1-5,0.8-7.8c1.8-2.8,4.8-5.1,8.9-6.8c4.5-1.8,8.5-2.1,11.8-1s5.2,3,5.9,5.6c0,0.1,0,0.1,0,0.2
			c-2,0.6-3.1,1-5.1,1.6c-0.6-1.9-1.9-3.2-3.9-3.8c-2-0.6-4.4-0.4-7.3,0.8c-2.7,1.1-4.6,2.5-5.5,4c-1,1.6-1.1,3.1-0.4,4.7
			c0.6,1.3,1.9,2.1,3.7,2.4c1.9,0.3,4.6,0,8.1-0.6c4.3-0.7,7.7-0.5,10.3,0.5c2.6,1,4.2,2.7,5,5.2c0.8,2.6,0.3,5.1-1.5,7.4
			c-1.7,2.3-4.3,4.1-7.9,5.5c-3.3,1.3-6.6,1.8-9.9,1.3c-3.3-0.5-5.7-2-7-4.8c0-0.1,0-0.1,0-0.1c1.8-0.9,2.7-1.3,4.5-2.2
			c0.9,2,2.4,3.1,4.5,3.4s4.2,0,6.6-1c2.3-0.9,4-2.1,5-3.5S152.7,101.1,152.1,99.5z"/>
		<path class="st4" d="M175.2,99.1c1.6-0.3,2.9-1,4-2.1c1.1-1.1,1.5-2.4,1.3-3.7c1.8-0.3,2.7-0.4,4.5-0.6c0,0.1,0,0.1,0.1,0.1
			c0.3,2.2-0.5,4.2-2.4,6.2s-4.1,3.2-6.9,3.7c-3.7,0.7-6.8,0.2-9.4-1.7s-4.4-4.5-5.4-8c-0.1-0.4-0.2-0.6-0.3-1
			c-0.9-3.5-0.6-6.7,1.1-9.6c1.7-2.9,4.8-4.9,9.2-5.7c3.5-0.7,6.6-0.2,9.1,1.2c2.5,1.4,3.8,3.5,4,6c0,0.1,0,0.1,0,0.1
			c-1.9,0.2-2.9,0.3-4.8,0.6c-0.2-1.5-1-2.7-2.5-3.6s-3.2-1.1-5.1-0.8c-2.8,0.5-4.7,1.8-5.5,3.8c-0.8,2-0.9,4.2-0.3,6.6
			c0.1,0.4,0.1,0.6,0.2,1c0.6,2.5,1.6,4.5,3.1,5.9C170.7,99.1,172.7,99.5,175.2,99.1z"/>
		<path class="st4" d="M203.8,78.4c-1.1-0.1-1.7-0.1-2.8-0.1c-1.4,0-2.6,0.3-3.6,0.9c-1,0.6-1.7,1.5-2.2,2.5
			c0.3,7.2,0.5,10.9,0.8,18.1c-1.9,0.1-2.9,0.1-4.8,0.3c-0.8-10.1-1.2-15.2-2-25.3c2-0.2,3-0.2,5-0.3c0.3,1.5,0.4,2.2,0.7,3.7
			c0.8-1.4,1.8-2.4,3.1-3.2c1.2-0.8,2.7-1.2,4.4-1.2c0.4,0,0.8,0,1.2,0.1s0.7,0.1,0.9,0.2C204.3,75.8,204.1,76.7,203.8,78.4z"/>
		<path class="st4" d="M225.4,97.6c-1,1.2-2.2,2.1-3.6,2.7c-1.4,0.6-2.9,0.8-4.6,0.6c-2.8-0.3-5-1.3-6.5-3.1
			c-1.5-1.8-2.3-4.6-2.1-8.3c0.2-6,0.3-9,0.5-14.9c2.2,0.1,3.3,0.1,5.6,0.3c-0.4,6-0.6,9-1,15c-0.2,2.7,0.1,4.6,0.9,5.7
			c0.8,1.1,2,1.7,3.8,1.9c1.7,0.2,3.2,0,4.4-0.5c1.2-0.5,2.2-1.3,3-2.4c1.1-7.2,1.6-10.9,2.7-18.1c2.2,0.3,3.3,0.5,5.5,0.9
			c-1.8,10-2.7,15-4.5,25c-1.7-0.3-2.5-0.4-4.2-0.7C225.3,99.8,225.3,99.1,225.4,97.6z"/>
		<path class="st4" d="M246.8,79.9c-0.2,1.3-0.3,2-0.5,3.3c1.3-0.9,2.7-1.5,4.4-1.7c1.7-0.2,3.5,0,5.5,0.6c2,0.6,3.5,1.6,4.7,2.8
			s1.8,2.7,1.9,4.4c1.4-1,3-1.6,4.8-1.8c1.8-0.2,3.7,0.1,5.7,1c2.9,1.3,4.8,3.2,5.7,5.6c0.9,2.4,0.4,5.2-1.2,8.4
			c-2.8,5.4-4.1,8.1-6.9,13.5c-1.7-0.9-2.6-1.3-4.4-2.1c2.6-5.5,3.9-8.3,6.5-13.8c1.1-2.3,1.4-4.1,0.8-5.5c-0.5-1.4-1.7-2.5-3.6-3.3
			c-1.8-0.7-3.4-0.8-4.9-0.2c-1.5,0.6-2.6,1.6-3.4,3.1c0,0.1,0,0.1-0.1,0.2c-2.3,6-3.4,9-5.7,15.1c-1.8-0.7-2.7-1-4.6-1.7
			c2-5.8,3-8.6,4.9-14.4c0.8-2.2,0.9-4.1,0.2-5.4c-0.6-1.4-1.9-2.4-3.8-3c-1.6-0.5-3-0.6-4.2-0.3s-2.2,0.8-3,1.7
			c-1.9,7.3-2.9,10.9-4.8,18.2c-1.9-0.5-2.8-0.7-4.7-1.1c2.3-9.9,3.4-14.8,5.6-24.7C243.9,79.1,244.8,79.4,246.8,79.9z"/>
	</g>
</g>
</svg>
