<svg version="1.1" id="Layer_1" xmlns="http://www.w3.org/2000/svg" xmlns:xlink="http://www.w3.org/1999/xlink" x="0px" y="0px"
	 viewBox="0 0 408 429" style="enable-background:new 0 0 408 429;" xml:space="preserve">
<style type="text/css">
	.st0{fill:#BF0C2B;}
	.st1{fill:#F5900E;}
	.st2{fill:#02173E;}
	.st3{fill:#2D2D2D;}
</style>
<path class="st0" d="M70.3,245.7c5.3-37.7,27-75,71.7-101.7s116.7-12.7,138.7,9.3c8,7.3-2,16.7-12,11.3c-10-5.4-54.4-18.3-86.4,1.7
	c-4.7,3-7.3,1.7-17.7,0c-10.3-1.6-32.3,8.4-35,26.7c-0.3,7.3,0.4,10.7-5.3,18s-16.7,45-5,72.7C124.6,299,129,304,129,304
	s7.3,11-3.3,13.7c-10.7,2.7-22-22.7-22-22.7s-10-15.3-11.3-41C91,239,73,242.7,70.3,245.7z"/>
<path class="st1" d="M288,158c30,23.4,51.5,60.8,52.3,112.8S293.1,378.2,263,386.3c-10.3,3.3-13.4-10-3.8-16.1
	c9.6-6,43-37.9,41.6-75.6c-0.3-5.5,2.2-7.2,8.8-15.3s8.9-32.2-5.6-43.6c-6.2-3.9-9.4-5-12.9-13.6c-3.5-8.6-30.7-36.9-60.5-40.6
	c-15.9-3-22.4-1.8-22.4-1.8S195,180.6,198,170c3-10.6,30.6-7.8,30.6-7.8s18.3-1,41.2,10.6C283.4,179.2,289.2,161.8,288,158z"/>
<path class="st2" d="M255.1,392.9c-35.3,14.2-78.4,14.2-123.9-11.1s-69.4-94.6-61.4-124.7c2.3-10.6,15.4-6.6,15.8,4.7
	c0.4,11.3,11.3,56.2,44.7,73.9c4.9,2.5,5.1,5.5,8.8,15.3c3.7,9.8,23.4,23.8,40.6,16.9c6.5-3.4,9.1-5.6,18.3-4.4
	c9.2,1.2,47.3-8.1,65.4-32.1c10.6-12.3,12.8-18.5,12.8-18.5s5.8-11.9,13.5-4c7.7,7.9-8.6,30.4-8.6,30.4s-8.3,16.3-29.8,30.3
	C238.9,378.4,251.1,392.1,255.1,392.9z"/>
<circle class="st2" cx="168.5" cy="332.5" r="29"/>
<circle class="st0" cx="164" cy="202" r="29"/>
<circle class="st1" cx="280.5" cy="264.1" r="29"/>
<g>
	<g>
		<path class="st3" d="M37.3,138.1c-5.2-10.1-10.3-20.3-15.5-30.4c4.3-2.2,6.5-3.3,10.9-5.3c4.7-2.2,9-2.6,12.9-1.3s6.7,4,8.4,8
			c0.7,1.7,1.1,2.6,1.8,4.3c1.7,4,1.7,7.8,0.2,11.5s-4.4,6.4-8.7,8.4C43.3,135.1,41.3,136,37.3,138.1z M28.2,108.5
			c4.7,9.6,7.1,14.5,11.9,24.1c2.2-1.1,3.4-1.6,5.6-2.7c3-1.4,5-3.5,6-6.2c0.9-2.7,0.8-5.5-0.5-8.5c-0.8-1.7-1.1-2.6-1.9-4.3
			c-1.3-2.9-3.3-5-6-6c-2.7-1.1-5.8-0.8-9,0.7C31.8,106.7,30.6,107.3,28.2,108.5z"/>
		<path class="st3" d="M77.3,121.1c-3.5,1.3-6.6,1.2-9.5-0.1c-2.9-1.4-5.1-3.8-6.5-7.2c-0.2-0.4-0.2-0.6-0.4-1
			c-1.4-3.3-1.4-6.6-0.1-9.7c1.3-3.1,3.6-5.3,6.7-6.4c3.6-1.3,6.7-1.3,9.2,0c2.5,1.3,4.3,3.6,5.4,6.9c0.4,1.1,0.6,1.6,0.9,2.7
			c-6.7,2.3-10,3.5-16.7,6.1c0,0.1,0,0.1,0,0.1c0.9,2.2,2.3,3.9,4,4.9c1.7,1,3.7,1.1,5.8,0.3c1.5-0.6,2.8-1.3,3.9-2.1
			c1-0.8,1.8-1.8,2.4-2.8c1.1,0.9,1.7,1.3,2.8,2.2c-0.6,1.2-1.6,2.3-2.8,3.3C81,119.5,79.3,120.4,77.3,121.1z M68.7,100.1
			c-1.6,0.6-2.8,1.7-3.4,3.4c-0.7,1.6-0.8,3.4-0.3,5.4c0,0,0.1,0.1,0.1,0.1c4.8-1.9,7.1-2.7,11.9-4.4c-0.1-0.2-0.1-0.3-0.2-0.6
			c-0.6-1.7-1.6-3-3-3.7C72.4,99.4,70.7,99.4,68.7,100.1z"/>
		<path class="st3" d="M86.9,104.3c-1.3-3.9-1.4-7.3-0.3-10.3s3.3-5,6.7-6c1.6-0.5,3.1-0.6,4.4-0.4s2.6,0.7,3.8,1.4
			c-1.5-5.4-2.2-8.1-3.7-13.5c2-0.6,3.1-0.8,5.1-1.4c3,11.8,6.1,23.6,9.1,35.4c-1.5,0.4-2.3,0.6-3.8,1c-0.5-1.1-0.8-1.7-1.4-2.9
			c-0.5,1.4-1.3,2.5-2.4,3.4s-2.4,1.6-3.9,2.1c-3.1,0.9-5.8,0.6-8.2-1s-4.2-4.1-5.4-7.6C87,104.6,87,104.5,86.9,104.3z M91.8,103.3
			c0.8,2.4,1.9,4.2,3.4,5.4c1.5,1.1,3.4,1.4,5.6,0.8c1.4-0.4,2.5-1,3.2-1.9c0.8-0.9,1.3-1.9,1.6-3.2c-1.2-4.6-1.9-6.9-3.1-11.4
			c-0.9-0.8-1.9-1.4-3.1-1.7c-1.2-0.3-2.5-0.3-3.9,0.1c-2.3,0.7-3.8,2.1-4.4,4.2c-0.6,2.1-0.4,4.5,0.4,7.3
			C91.7,103,91.8,103.1,91.8,103.3z"/>
		<path class="st3" d="M117.2,75.8c-2,0.5-3,0.7-5.1,1.2c-0.4-1.8-0.6-2.8-1.1-4.6c2-0.5,3.1-0.7,5.1-1.2
			C116.6,73,116.8,73.9,117.2,75.8z M124.1,106.9c-1.9,0.4-2.8,0.6-4.7,1.1c-2.3-9.9-3.5-14.8-5.8-24.7c2-0.5,3-0.7,5-1.1
			C120.8,92,121.9,97,124.1,106.9z"/>
		<path class="st3" d="M141.3,100.3c1.6-0.3,2.9-1,3.9-2.1c1.1-1.1,1.5-2.4,1.3-3.7c1.7-0.3,2.6-0.4,4.3-0.6c0,0.1,0,0.1,0.1,0.1
			c0.4,2.2-0.4,4.2-2.2,6.2s-4.1,3.2-6.8,3.7c-3.8,0.6-6.8,0-9.3-2c-2.5-2-4.1-4.7-4.8-8.3c-0.1-0.4-0.1-0.6-0.2-1
			c-0.7-3.5-0.3-6.7,1.4-9.5c1.6-2.8,4.5-4.6,8.5-5.2c3.2-0.6,6-0.1,8.3,1.3s3.6,3.4,3.9,5.9c0,0.1,0,0.1,0,0.1
			c-1.8,0.3-2.7,0.4-4.5,0.7c-0.2-1.5-1-2.7-2.4-3.6c-1.3-0.9-2.9-1.2-4.7-0.9c-2.6,0.4-4.3,1.6-5.1,3.6c-0.8,1.9-0.9,4.1-0.5,6.6
			c0.1,0.4,0.1,0.6,0.2,1c0.5,2.5,1.4,4.6,2.8,6.1C136.8,100.2,138.7,100.7,141.3,100.3z"/>
		<path class="st3" d="M173.3,99.4c-0.2-0.7-0.4-1.4-0.5-2c-0.1-0.6-0.2-1.2-0.3-1.7c-0.8,1.3-1.9,2.4-3.2,3.4
			c-1.3,1-2.8,1.5-4.5,1.7c-2.7,0.3-4.8-0.1-6.4-1.3c-1.6-1.2-2.5-2.9-2.9-5.3c-0.3-2.4,0.5-4.4,2.4-6s4.7-2.6,8.3-3
			c2.1-0.2,3.2-0.3,5.4-0.5c-0.1-1-0.1-1.5-0.2-2.5c-0.1-1.5-0.7-2.6-1.8-3.4c-1.1-0.8-2.5-1.1-4.3-0.9c-1.6,0.2-2.9,0.7-3.8,1.5
			c-0.9,0.9-1.3,1.8-1.2,2.9c-1.9,0.2-2.8,0.3-4.7,0.6c0-0.1,0-0.1-0.1-0.1c-0.3-1.8,0.4-3.6,2.2-5.4c1.8-1.8,4.3-2.8,7.5-3.1
			c3.2-0.3,5.8,0.2,7.8,1.5c2,1.3,3.1,3.3,3.3,6.1c0.3,4.9,0.5,7.3,0.9,12.2c0.1,0.9,0.2,1.8,0.3,2.6s0.4,1.6,0.7,2.4
			C176.2,99.1,175.2,99.2,173.3,99.4z M165,96.7c1.7-0.2,3.2-0.8,4.6-1.7c1.3-1,2.1-2,2.5-3.2c-0.1-1.6-0.2-2.5-0.3-4.1
			c-2.2,0.2-3.3,0.3-5.5,0.5c-2,0.2-3.5,0.8-4.6,1.9s-1.5,2.2-1.4,3.5c0.1,1.1,0.6,2,1.4,2.5C162.5,96.7,163.6,96.9,165,96.7z"/>
		<path class="st3" d="M189.5,66.9c0.1,2.4,0.1,3.7,0.2,6.1c2.1-0.1,3.2-0.1,5.3-0.2c0,1.4,0,2.1,0.1,3.4c-2.1,0-3.1,0.1-5.2,0.2
			c0.2,6.2,0.3,9.2,0.5,15.4c0,1.2,0.3,2,0.9,2.5s1.2,0.7,2.1,0.7c0.3,0,0.6,0,0.9-0.1c0.3-0.1,0.6-0.2,0.9-0.3
			c0.3,1.3,0.4,1.9,0.7,3.1c-0.3,0.3-0.9,0.5-1.5,0.7c-0.7,0.2-1.4,0.3-2.1,0.3c-1.9,0.1-3.5-0.4-4.7-1.5c-1.2-1.1-1.9-2.8-2-5.2
			c-0.3-6.2-0.4-9.2-0.7-15.4c-1.8,0.1-2.6,0.1-4.4,0.2c-0.1-1.4-0.1-2-0.2-3.4c1.8-0.1,2.7-0.2,4.4-0.2c-0.1-2.4-0.2-3.7-0.3-6.1
			C186.4,67,187.5,67,189.5,66.9z"/>
		<path class="st3" d="M212.3,98.7c-3.6-0.1-6.5-1.3-8.7-3.6c-2.2-2.4-3.3-5.4-3.3-9.1c0-0.4,0-0.6,0-1c0-3.6,1.1-6.6,3.4-9
			c2.3-2.4,5.2-3.6,8.4-3.5c3.8,0.1,6.6,1.2,8.4,3.4s2.6,4.9,2.5,8.4c-0.1,1.2-0.1,1.7-0.1,2.9c-7-0.4-10.5-0.5-17.5-0.5
			c0,0,0,0.1-0.1,0.1c0,2.4,0.7,4.4,1.9,6c1.2,1.6,2.9,2.4,5.2,2.4c1.6,0,3.1-0.1,4.3-0.5c1.2-0.4,2.3-1,3.3-1.7
			c0.7,1.2,1,1.9,1.7,3.1c-1,0.8-2.3,1.5-3.8,2.1S214.5,98.8,212.3,98.7z M212.1,76c-1.7,0-3.1,0.6-4.3,1.9
			c-1.2,1.3-1.9,2.9-2.2,4.9c0,0,0,0.1,0,0.1c5,0,7.5,0.1,12.5,0.3c0-0.2,0-0.4,0-0.6c0.1-1.8-0.4-3.3-1.4-4.6
			C215.7,76.7,214.1,76.1,212.1,76z"/>
		<path class="st3" d="M227.3,86.7c0.3-4.1,1.4-7.3,3.5-9.7c2.1-2.4,4.9-3.4,8.3-3.1c1.6,0.1,3.1,0.6,4.3,1.2c1.2,0.7,2.2,1.6,3,2.7
			c0.6-5.5,0.9-8.3,1.5-13.9c2.1,0.2,3.1,0.4,5.2,0.6c-1.5,12.1-3,24.2-4.5,36.3c-1.5-0.2-2.3-0.3-3.9-0.5c-0.1-1.3-0.1-1.9-0.2-3.2
			c-1,1.1-2.1,1.9-3.4,2.3c-1.3,0.5-2.8,0.6-4.4,0.5c-3.2-0.3-5.6-1.6-7.2-4c-1.7-2.4-2.4-5.4-2.2-9
			C227.3,86.9,227.3,86.8,227.3,86.7z M232.1,87.5c-0.2,2.6,0.2,4.6,1.2,6.3s2.6,2.5,4.9,2.7c1.4,0.1,2.7-0.1,3.7-0.6
			c1-0.5,1.9-1.3,2.7-2.4c0.5-4.7,0.8-7.1,1.3-11.8c-0.5-1.1-1.3-2-2.2-2.7c-1-0.7-2.2-1.2-3.6-1.3c-2.4-0.2-4.3,0.5-5.6,2.3
			c-1.3,1.7-2,4.1-2.2,7C232.2,87.2,232.2,87.3,232.1,87.5z"/>
		<path class="st3" d="M280,74c-0.5,2.4-0.7,3.6-1.2,6c2.1,0.4,3.1,0.6,5.2,1.1c-0.3,1.3-0.4,2-0.7,3.3c-2.1-0.4-3.1-0.6-5.2-1
			c-1.2,6-1.8,9.1-3,15.1c-0.2,1.2-0.1,2,0.3,2.6c0.4,0.6,1,0.9,1.9,1.1c0.3,0.1,0.6,0.1,0.9,0.1c0.3,0,0.6,0,0.9,0
			c0,1.3,0,1.9,0,3.2c-0.4,0.2-1,0.3-1.7,0.4c-0.7,0-1.4,0-2.1-0.1c-1.9-0.4-3.3-1.2-4.2-2.5c-0.9-1.3-1.2-3.2-0.7-5.6
			c1.1-6.1,1.7-9.1,2.8-15.1c-1.7-0.3-2.6-0.5-4.4-0.8c0.2-1.3,0.3-2,0.6-3.4c1.8,0.3,2.6,0.5,4.4,0.8c0.4-2.4,0.7-3.6,1.1-6
			C276.9,73.4,277.9,73.6,280,74z"/>
		<path class="st3" d="M295.1,110.2c-3.5-0.9-6.1-2.7-7.7-5.5c-1.6-2.8-2-6-1.2-9.7c0.1-0.4,0.1-0.6,0.2-1c0.8-3.5,2.6-6.2,5.4-8
			s5.9-2.3,9-1.5c3.7,0.9,6.2,2.7,7.5,5.2c1.3,2.5,1.5,5.4,0.5,8.7c-0.3,1.1-0.5,1.7-0.8,2.8c-6.8-2-10.2-2.8-17-4.5
			c0,0-0.1,0.1-0.1,0.1c-0.5,2.4-0.3,4.5,0.5,6.3c0.8,1.8,2.3,3,4.5,3.6c1.6,0.4,3,0.6,4.3,0.5c1.3-0.1,2.5-0.4,3.6-0.9
			c0.4,1.4,0.6,2,1,3.4c-1.2,0.6-2.6,1-4.2,1.1C299.1,111,297.2,110.8,295.1,110.2z M300,88.1c-1.6-0.4-3.2-0.1-4.7,0.8
			c-1.5,1-2.6,2.4-3.3,4.2c0,0.1,0,0.1,0,0.1c4.9,1.2,7.4,1.8,12.2,3.1c0.1-0.2,0.1-0.4,0.2-0.6c0.5-1.7,0.4-3.3-0.3-4.8
			C303.4,89.6,302,88.6,300,88.1z"/>
		<path class="st3" d="M325.5,119c0.1-0.8,0.2-1.5,0.3-2c0.1-0.6,0.3-1.2,0.4-1.7c-1.3,0.8-2.7,1.4-4.3,1.7
			c-1.6,0.3-3.2,0.2-4.8-0.3c-2.6-0.9-4.4-2.1-5.4-3.8s-1.1-3.7-0.5-6c0.7-2.3,2.2-3.8,4.7-4.5c2.4-0.7,5.4-0.5,8.8,0.7
			c2.1,0.7,3.1,1,5.2,1.8c0.3-0.9,0.5-1.4,0.8-2.4c0.5-1.4,0.4-2.7-0.2-3.8c-0.7-1.1-1.9-2-3.6-2.6c-1.6-0.5-2.9-0.6-4.2-0.2
			c-1.2,0.4-2,1.1-2.3,2.1c-1.8-0.6-2.8-0.9-4.6-1.4c0-0.1,0-0.1,0-0.1c0.4-1.8,1.8-3.1,4.2-4s5.2-0.8,8.2,0.3c3,1,5.2,2.6,6.6,4.6
			s1.5,4.3,0.6,6.9c-1.7,4.6-2.5,6.9-4.2,11.5c-0.3,0.9-0.6,1.7-0.8,2.5c-0.2,0.8-0.3,1.7-0.3,2.5C328.3,120,327.4,119.6,325.5,119z
			 M319,113.2c1.7,0.5,3.3,0.6,4.9,0.3c1.6-0.4,2.8-1,3.6-1.9c0.5-1.6,0.8-2.3,1.4-3.9c-2.1-0.7-3.2-1.1-5.3-1.8
			c-1.9-0.6-3.6-0.7-5-0.2c-1.4,0.5-2.3,1.4-2.7,2.6c-0.3,1.1-0.2,2,0.3,2.9C316.7,112.1,317.6,112.7,319,113.2z"/>
		<path class="st3" d="M349.6,101c-0.4,1.3-0.5,1.9-0.9,3.2c1.3-0.8,2.7-1.2,4.3-1.3s3.2,0.3,5,1c1.7,0.7,3.1,1.8,4,3
			c0.9,1.3,1.4,2.8,1.4,4.5c1.4-0.9,3-1.5,4.6-1.6c1.7-0.1,3.4,0.2,5.2,1.1c2.6,1.3,4.3,3.1,5,5.4c0.7,2.3,0.2,5.1-1.4,8.3
			c-2.8,5.4-4.1,8.1-6.9,13.5c-1.7-0.9-2.6-1.3-4.4-2.2c2.7-5.5,4-8.2,6.7-13.6c1.1-2.2,1.5-4,1.1-5.4s-1.5-2.5-3.2-3.3
			c-1.6-0.8-3.1-0.9-4.6-0.3c-1.4,0.5-2.6,1.5-3.5,3c0,0.1,0,0.1-0.1,0.2c-2.7,5.9-4,8.8-6.7,14.7c-1.8-0.8-2.7-1.2-4.5-2
			c2.4-5.6,3.7-8.4,6.1-13.9c1-2.2,1.2-4,0.7-5.4c-0.5-1.4-1.5-2.5-3.2-3.2c-1.4-0.6-2.7-0.8-3.9-0.7c-1.2,0.2-2.2,0.6-3.1,1.4
			c-2.8,7-4.2,10.4-7,17.4c-1.8-0.7-2.7-1.1-4.5-1.8c3.7-9.5,5.5-14.2,9.2-23.6C347,99.9,347.8,100.3,349.6,101z"/>
	</g>
</g>
</svg>
