<?xml version="1.0" encoding="utf-8"?>
<!-- Generator: Adobe Illustrator 22.0.0, SVG Export Plug-In . SVG Version: 6.00 Build 0)  -->
<svg version="1.1" id="Layer_1" xmlns="http://www.w3.org/2000/svg" xmlns:xlink="http://www.w3.org/1999/xlink" x="0px" y="0px"
	 viewBox="0 0 408 429" style="enable-background:new 0 0 408 429;" xml:space="preserve">
<style type="text/css">
	.st0{fill:#FFFFFF;stroke:#02173E;stroke-width:19.8859;stroke-miterlimit:10;}
	.st1{fill:#09A38C;}
	.st2{font-family:'MyriadPro-Regular';}
	.st3{font-size:26.1206px;}
	.st4{fill:#BF0C2B;}
	.st5{fill:none;stroke:#F14C13;stroke-width:17.237;stroke-miterlimit:10;}
</style>
<circle class="st0" cx="203.8" cy="264.5" r="127.3"/>
<text transform="matrix(1 0 0 1 282.4033 315.1953)" class="st1 st2 st3">$</text>
<text transform="matrix(1 0 0 1 197.604 172.9956)" class="st4 st2 st3">$</text>
<text transform="matrix(1 0 0 1 246.0166 189.8511)" class="st2 st3">$</text>
<text transform="matrix(1 0 0 1 281.6729 228.1343)" class="st2 st3">$</text>
<text transform="matrix(1 0 0 1 296.6445 271.6685)" class="st2 st3">$</text>
<text transform="matrix(1 0 0 1 247.0166 352.207)" class="st2 st3">$</text>
<text transform="matrix(1 0 0 1 197.604 371.3408)" class="st2 st3">$</text>
<text transform="matrix(1 0 0 1 144.0093 352.207)" class="st2 st3">$</text>
<text transform="matrix(1 0 0 1 110.9912 314.6504)" class="st2 st3">$</text>
<text transform="matrix(1 0 0 1 96.2104 271.1255)" class="st2 st3">$</text>
<text transform="matrix(1 0 0 1 110.2705 228.1343)" class="st2 st3">$</text>
<text transform="matrix(1 0 0 1 145.0239 189.8511)" class="st2 st3">$</text>
<line class="st5" x1="209.9" y1="267.9" x2="251.2" y2="288.1"/>
<line class="st5" x1="204.1" y1="191.1" x2="204.1" y2="270.3"/>
<circle class="st1" cx="203.7" cy="265.3" r="12.7"/>
<g>
	<g>
		<path d="M67.6,96.9c-4.1,1.9-6.2,2.9-10.3,5c-0.6-1.3-1-1.9-1.6-3.2c8.3-4.3,16.8-8.2,25.5-11.6c0.5,1.3,0.8,2,1.3,3.3
			c-4.2,1.7-6.3,2.6-10.5,4.5c3.9,8.8,7.9,17.5,11.8,26.3c-1.6,0.7-2.4,1.1-4.1,1.9C75.7,114.3,71.7,105.6,67.6,96.9z"/>
		<path d="M90.3,86.3c0.5,1.3-0.2,2.8-2,3.5c-1.6,0.6-3.1,0-3.7-1.3c-0.5-1.4,0.2-2.9,1.9-3.6C88.3,84.3,89.8,85,90.3,86.3z
			 M96.2,115.9c-3.4-8.6-5.1-13-8.5-21.6c1.8-0.7,2.7-1,4.5-1.7c3.3,8.7,4.9,13,8.2,21.7C98.7,115,97.9,115.3,96.2,115.9z"/>
		<path d="M101.6,95.9c-0.8-2.3-1.5-4.1-2.3-5.9c1.6-0.6,2.4-0.8,3.9-1.4c0.6,1.4,0.8,2.1,1.4,3.5c0.1,0,0.1,0,0.2-0.1
			c0.7-2.6,2.3-5.3,6.5-6.6c3.4-1,6.5,0.1,8.4,2.4c0,0,0.1,0,0.1,0c0.4-1.5,1.1-2.7,2-3.7c1.2-1.4,2.7-2.4,5.1-3
			c3.3-0.8,8.8,0,10.5,7.9c1.2,5.3,1.8,8,3,13.4c-1.7,0.4-2.5,0.6-4.2,1c-1.2-5.1-1.8-7.7-3.1-12.8c-1-4.3-3.4-6.6-7.1-5.6
			c-2.6,0.7-4.1,2.9-4.3,5.1c0,0.6,0,1.4,0.2,2.1c1.5,5.5,2.3,8.3,3.8,13.8c-1.7,0.5-2.5,0.7-4.1,1.2c-1.6-5.3-2.4-8-3.9-13.4
			c-1-3.5-3.5-5.6-7-4.6c-2.8,0.9-4.2,3.6-4.2,5.8c-0.1,0.7,0.1,1.4,0.3,2.1c1.8,5.3,2.7,8,4.4,13.3c-1.6,0.5-2.5,0.8-4.1,1.4
			C105,105.4,103.9,102.2,101.6,95.9z"/>
		<path d="M147.7,89.8c1.2,5.6,5.4,7.2,9.7,6.5c3.1-0.5,4.9-1.3,6.5-2.2c0.5,1.2,0.7,1.7,1.2,2.9c-1.4,0.9-3.9,2-7.7,2.6
			c-7.3,1.2-12.6-2.5-14-9.3c-1.4-6.9,2-13.3,9.5-14.5c8.4-1.4,11.5,5,12,9.3c0.1,0.9,0.1,1.5,0.1,2C158,87.9,154.6,88.5,147.7,89.8
			z M160.3,84.6c-0.3-2.7-2.2-6.7-7.4-5.8c-4.7,0.8-6,5.1-5.8,8C152.4,85.8,155.1,85.3,160.3,84.6z"/>
		<path d="M181,79.2c-0.2-2.4-0.4-4.4-0.7-6.3c1.6-0.1,2.5-0.2,4.1-0.3c0.2,1.5,0.3,2.2,0.5,3.7c0.1,0,0.1,0,0.2,0
			c1.3-2.3,3.6-4.5,7.8-4.7c3.5-0.1,6.2,1.7,7.4,4.5c0,0,0.1,0,0.1,0c0.8-1.3,1.8-2.3,2.8-3.1c1.5-1.1,3.2-1.6,5.7-1.6
			c3.4,0,8.4,2.2,8.1,10.3c-0.2,5.5-0.3,8.2-0.5,13.7c-1.7-0.1-2.6-0.1-4.3-0.1c0.1-5.3,0.2-7.9,0.3-13.1c0.1-4.5-1.6-7.2-5.4-7.2
			c-2.6,0-4.7,1.8-5.5,3.9c-0.2,0.6-0.3,1.3-0.3,2.1c0.1,5.7,0.1,8.6,0.2,14.4c-1.7,0-2.6,0-4.3,0.1c-0.2-5.6-0.2-8.3-0.4-13.9
			c-0.1-3.7-2-6.3-5.5-6.2c-2.9,0.1-4.9,2.4-5.5,4.5c-0.2,0.6-0.3,1.4-0.2,2.1c0.4,5.6,0.5,8.4,0.9,14c-1.7,0.1-2.5,0.2-4.2,0.3
			C181.8,89.3,181.6,85.9,181,79.2z"/>
		<path d="M236.8,96.8c0-1.2,0-1.8,0-2.9c-0.1,0-0.1,0-0.1,0c-1.5,1.7-4.2,3-7.6,2.8c-4.8-0.4-7.1-3.8-6.9-7.2
			c0.3-5.6,5.9-8.5,15.6-7.4c0-0.2,0-0.3,0-0.5c0.2-1.9,0-5.5-5.2-5.9c-2.4-0.2-4.9,0.3-6.8,1.2c-0.3-1.1-0.5-1.7-0.9-2.8
			c2.2-1.1,5.4-1.7,8.6-1.4c7.9,0.7,9.2,5.8,8.7,10.4c-0.4,3.5-0.6,5.2-1,8.6c-0.2,2-0.4,4-0.3,5.6C239.2,97.1,238.4,97,236.8,96.8z
			 M237.4,85c-4.9-0.6-10.6-0.2-10.9,4.3c-0.2,2.7,1.6,4.2,3.9,4.3c3.1,0.3,5.3-1.4,6.2-3.3c0.2-0.4,0.3-0.9,0.4-1.3
			C237.1,87.4,237.2,86.6,237.4,85z"/>
		<path d="M257,69.4c-0.4,2.6-0.6,4-1.1,6.6c2.7,0.4,4,0.7,6.6,1.1c-0.2,1.3-0.3,1.9-0.6,3.2c-2.6-0.5-3.9-0.7-6.6-1.1
			c-0.8,4.9-1.2,7.4-2,12.4c-0.5,2.8,0.1,4.6,2.6,5c1.1,0.2,2,0.2,2.6,0.2c-0.1,1.3-0.2,1.9-0.4,3.2c-0.9,0.2-2.2,0.2-3.9-0.1
			c-2-0.3-3.5-1.3-4.4-2.5c-1-1.4-1.2-3.5-0.8-6.2c0.7-5,1.1-7.5,1.8-12.5c-1.6-0.2-2.4-0.3-3.9-0.5c0.2-1.3,0.3-1.9,0.4-3.2
			c1.6,0.2,2.4,0.3,4,0.6c0.3-2.2,0.5-3.3,0.8-5.5C254.2,69.6,255.1,69.5,257,69.4z"/>
		<path d="M267.6,90.7c-1.1,5.6,2.2,8.7,6.5,9.7c3.1,0.7,5.1,0.7,6.8,0.5c0,1.2,0,1.9,0,3.1c-1.7,0.3-4.4,0.3-8.1-0.5
			c-7.2-1.7-10.7-7.1-9.4-14s6.9-11.5,14.3-9.8c8.3,1.9,8.7,9,7.6,13.2c-0.2,0.8-0.5,1.5-0.7,1.9C277.9,92.9,274.5,92.1,267.6,90.7z
			 M281.3,90.7c0.7-2.6,0.5-7-4.6-8.2c-4.6-1.1-7.5,2.4-8.4,5.2C273.5,88.8,276.1,89.4,281.3,90.7z"/>
		<path d="M291.7,91.3c0.8-2.6,1.4-4.9,1.8-7c1.6,0.5,2.4,0.7,4,1.2c-0.5,1.8-0.7,2.6-1.2,4.4c0.1,0,0.1,0,0.2,0.1
			c2-2.7,5.3-3.7,8.4-2.7c0.5,0.2,0.9,0.3,1.2,0.6c-0.5,1.5-0.8,2.3-1.3,3.8c-0.4-0.2-0.9-0.4-1.5-0.6c-3.1-1-6.1,0.5-7.6,3.3
			c-0.3,0.5-0.6,1.1-0.8,1.8c-1.4,4.7-2.2,7.1-3.6,11.9c-1.7-0.5-2.5-0.7-4.2-1.2C289,100.5,289.9,97.4,291.7,91.3z"/>
		<path d="M317.9,85.4c-0.5,1.3-2,2-3.8,1.4c-1.6-0.6-2.4-2-1.9-3.4c0.5-1.4,2.1-2.1,3.7-1.5C317.7,82.5,318.4,84,317.9,85.4z
			 M303.1,111.7c3.1-8.8,4.6-13.2,7.6-21.9c1.8,0.6,2.7,0.9,4.5,1.6c-3.2,8.7-4.8,13.1-8,21.8C305.6,112.5,304.7,112.2,303.1,111.7z
			"/>
		<path d="M326.5,121c0.3-1.1,0.5-1.7,0.9-2.8c-0.1,0-0.1,0-0.1-0.1c-2,1.1-5,1.5-8.3,0.2c-4.6-1.9-5.7-5.9-4.5-9
			c2-5.2,8.3-6.2,17.3-2.2c0.1-0.2,0.1-0.3,0.2-0.4c0.8-1.8,1.6-5.2-3.3-7.3c-2.2-0.9-4.8-1.3-6.9-1c0-1.2,0-1.8,0-3
			c2.5-0.4,5.7,0,8.8,1.3c7.4,3.1,7.2,8.5,5.2,12.7c-1.5,3.2-2.2,4.7-3.6,7.9c-0.8,1.8-1.6,3.7-2,5.2C328.8,122,328,121.6,326.5,121
			z M330.7,109.9c-4.6-2.1-10.2-3.5-11.9,0.7c-1,2.5,0.3,4.5,2.4,5.3c3,1.2,5.6,0.3,7-1.2c0.3-0.3,0.6-0.7,0.8-1.1
			C329.8,112.1,330.1,111.3,330.7,109.9z"/>
		<path d="M351.4,95c1.8,0.9,2.7,1.3,4.5,2.2c-5.2,10.1-10.3,20.2-15.5,30.4c-1.6-0.8-2.4-1.2-4-2C341.4,115.4,346.4,105.2,351.4,95
			z"/>
	</g>
</g>
</svg>
